<mxfile host="b106948d-47e9-4b7d-aa47-a55bbe4965fd" modified="2020-08-06T08:11:49.735Z" agent="5.0 (Windows NT 10.0; Win64; x64) AppleWebKit/537.36 (KHTML, like Gecko) Code/1.47.3 Chrome/78.0.3904.130 Electron/7.3.2 Safari/537.36" etag="rhlPZPvlR24cW0CvGzz-" version="13.1.3">
    <diagram id="6hGFLwfOUW9BJ-s0fimq" name="Page-1">
        <mxGraphModel dx="998" dy="792" grid="0" gridSize="10" guides="1" tooltips="1" connect="1" arrows="1" fold="1" page="1" pageScale="1" pageWidth="827" pageHeight="1169" background="#ffffff" math="0" shadow="0">
            <root>
                <mxCell id="0"/>
                <mxCell id="1" parent="0"/>
                <mxCell id="2" value="" style="shape=image;verticalLabelPosition=bottom;labelBackgroundColor=#ffffff;verticalAlign=top;aspect=fixed;imageAspect=0;image=data:image/png,iVBORw0KGgoAAAANSUhEUgAAAekAAAG+CAYAAAC3RfzYAAAgAElEQVR4nOzdd1zU9R/A8ddxrGPeKSoyZCm4UATBFY5yj9x7lGmu1OqXObKhpjZMS3OXWo5yorlHkgtERRHFAQqCKHsc64Cbvz9QigBFUw71+3w8eKjf+b47uff3+/l+Pu+PSKfT6RAIBAKBQFDlGOg7AIFAIBAIBGUTkrRAIBAIBFWUkKQFAoFAIKiihCQtEAgEAkEVJSRpgUAgEAiqKCFJCwQCgUBQRQlJWiAQCASCKkpI0gKBQCAQVFFCkhYIBAKBoIoSkrRAIBAIBFWUkKQFAoFAIKiihCQtEAgEAkEVJSRpgUAgEAiqKCFJCwQCgUBQRQlJWiAQCASCKspQ3wEIBALBi0yn06FQKIi9c4fbt29z584d4uPjKSwsRC6Xk5eXR05ODjk5OZibmyOTyTA2NqZWrVoYGRlRu3Zt3OrWpW7dujg7OWFuYaHvlySoQkQ6nU6n7yAEAoHgRVFYWMiNGzcIDgri/PnzXL9+nZSUFFxcXIoSrYszdRzrYGZmhlQqxdzcDEtLSywtLcnLyyMzMxOlUklycgpKpZK4u3FE377N7egYkpOSsLS0pH6DBrTw86NVq1Y09vREIpHo+2UL9ERI0k+o6JcrGa1Wy/379zEwMKBGjRqYmJhgbWWFpZWVvkMUCATPkFarJTExkf3793Pm9GmuXLmCpaUl7du3o0WLljRu3Ah7e3uMjY3/87lUKhXx8fFcuXKFc+fOcS7kHPcTEvD28aFD+/Z07NQJV1fXZ/CqBC8KIUn/i0ajITIyktg7d7jzoPkqMjKS2NhYsrKysLe3RyQSYWpqio1NdXQ6HVnZOeRkZ6PVaklLS8PYxAQXZ+eiK+t69fDw8MDFxQV3d/dn8ossEAieL51Oh1wu59ixY/yxZw8RERG0bt2KTh074evni6OjY6XEodFoSEpMIjg4mL9OnOD8+fO4urnRv18/Onfpgkwmq5Q4BPrzyidpjUZDxNWrBAcHE3z2LKGhF3BxdsHVxQUPDw/c6tbF1cUZVze3CidYjUbz4NlUbNGfsXe4fu06d+Pj8WzcmFatW9OqVSu8vLyEpC0QVCFqtZrIyEh+/vlnTp86Rb16denXtx9vdHyDatWq6TU2nU6HPFNOYGAge/bu5dq1a7Rv357Ro0fj6emp19gEz88rmaTVajVBZ84QEBDAkaNHsKttR/sO7WndshUtWvg9lybrh51LQkNDCT57lpCzIUTHRPPaa/68+eabdOzYUUjYAoGeqNVqbt68yZo1a7hw4QJDhw5h4IAB2NnZ6Tu0Mj183LZ9+w727dtHgwYNeOutt2jZqpW+QxM8Y69MktZqtdy8eZNdu3axZ/dubGxsGDhgAL3e7EWtWrUqPR6dTkdubi5Hjx5j544dXLtxg149e9Knb198fX0rPR6B4FWkUqm4ceMGP/30ExcuXGDE8OEMGzZU73fNFaXT6UhNTWXnjp0E7NmNnZ09kydPxs/PT9+hCZ6Rlz5Jq9VqTp06xbKlS4mLi6N///4M6N+P+g0a6Du0Yg+vinft3MWePXswNDJi8pQp9OzZE0NDYZScQPCs6XQ6UlJSWPfzzxw9epTBQwYzeNCgFyY5l0Uul7Nr5y5+27oVX19fpk6dWmVbAgQV99ImaZVKxaGDB9mwYQOZmZmMfvtthgwdgomJib5DeySVSsXJkydZsWIF2dk5jBk7lgEDBghN4QLBM5KXl8fRI0dYtWoVTZo24X8ffvjSJDOdTkdCQgKrVq0mODiYcePG0X/AAIyMjPQdmuApvXRJWqPREBISwry5c1EqlUyZMoU33+z1wt2RPkzWy5cvJyUllU9mz6Znz576DksgeGFptVpiYmL4btEiEhMTmTF9Oq3btNZ3WM+FUqnk8uVwli9fjkajYfbs2TRs1EjfYQmewkuTpHU6HakpKSxcuJCzZ88y+5NP6N6j+wuXnP9NpVLx119/8fXX32Bnb8+XX36Ji4uLvsMSCF4oBQUFnD51iqVLl9KxUycmTZzwSrROyeVZ7Nixgx07djBu/HgGDBig75AET+ilSNJKpZLNmzezcsUK+vbry9TJk1+6oiI5OTmsX7eejZs2MXLkSMaNH4+ZmZm+wxIIqrzMzEw2btzIoYMHmTlzBu3bt9d3SJVKqVRy4cIFvlu8hEaNGjF9+nSsXrLvx5fZC52kHz5/mTZtGjqthnnz5uHu7q7vsJ4brVZLXFwc33zzLbGxsSxduhSP+vX1HZZAUCXpdDru3r3LwoULUKlUfDlvHvb29voOSy8evhfLlv3I3bt3mb9gAR4eHvoOS1AB4jlz5szRdxBPQ6PREBwczJh33qFTp458++231KhRQ99hPVcikQiZTEanTp0wNDRk1qxZ1KxZk/pCohYIStBqtURGRvL5Z59Rz60uX3218JWuziUSiZBKpfj5+ZKTk8vq1atp3LixXoafCp7MC3knrVQq+WntWjZu3Mh3ixbh39Zf3yFVOo1Gw9WICGbOnEnz5r588sknQvO3QEDRsMvLly/z3Xff0a5tWyZOnKDvkKqU3Nxc9uzZw6bNW/jiiy9o3frl7Dz3snjhknROTg7TPvqIrKwsfvjhe2xtbfUdkt7odDoyMjJYsGAhd+7c4aeff8bGxkbfYQkEeqNWq7l48SLzv/yS4cOHM2TIYH2HVCUVFBRw/PhxVq5cxaT33qNHjx76DklQjhcmSet0OtLT0pgwYQJ2tWuz5PslL3zP7WclX6Fg7dq1/LF3H+vWrxd6fwteSQ8T9FcLFzJ69Gh6935T3yFVaUqlkuDgYJYvX8HYsWPp2q2bvkMSlOGFyHI6nY64uDjGjhlDu7ZtmfXJLCFB/4PEzIzxEyYglckYPmwYK1asoJm3t77DEggqjVar5cb163zz9deMGjVSSNAVYGxsTOvWrdFotPz4449YWVsLTd9VUJXvOKbVaomIiGDUyJH0H9CfGTOmY2BgoO+wqhxDQ0MaNGhANZmM2Z9+ipOzM25ubvoO66VQWFhIeHg4sbGxaLVapFLpEx9DpVJx69Yt7ty581Q9jPPz87lw4QI6nQ5ra2ug6E7o1q1bxMbGIpVKS61/VWi1Wm7cuMHChQvp0qUzw4cP13dILwyxWIydXW2kUikrV67E09Pzpe+A+6Kp0kn64bCB8ePGMe7dd5kwYby+Q6rSDA0NcXd3x9XFmdmffkZzHx9q166t77BeWIWFhZw4cYLx48fz22+/cS0igh++/x6NRoOHhwcSiaTCx8rJyeGXDRs4evQoffr0eeJY7t69y+i336Zly5Y4OTsDkJWVxS+//MKxY8fw8vIqtf5V8LCVbcmSxXg182LixIn6DumFY2hoiF3t2ojFYlauWoW3t/cLXcP8ZVNlb0kfPoN+b9IkunXrxltvv6XvkF4IRkZGtG3Xjg8/+ICJkyZx+/ZtfYf0wkpPT2fRokU0bNCAU6dOsSsggJ/XreO3LVvYs3u3vsMroW7dulwKC8OvRQv+PHaMqVOmkJmZqe+wnrvU1FQ2bdqETCZj8nvv6TucF5aFpSU9evSgR/fuLJg/n7y8PH2HJHigyibp3Nxc3v/gA5p5eTFjxnR9h/NCMTExoW/fPrw7dgzvjh1LQkKCvkN64RQUFBAUFERqSgrvTZ6MTCbDyMgIHx8f5syZg4urK1B0t33x4kVCQkJKJEWVSsXNmzcJDg4mLi6ueLlSqSxzeXnbV9Tt27fxbtaMo0eOcP7CBYKDg4mKinqpE3Vubi6BgYHcuH6dmTNmIBaL9R3SC83a2po3Or6Bbe3aLF26VN/hCB6okr2vCgoK+HT2bKrJpMyZW2Vb46s0U1NThg4dSl5uLhMnTOD3rVuFcdRPoLCggIirVzE0NCzxyMDMzIzuD4arJCQkMHr0aGrY2GBbuzbnzp1jyZIluLm5sXDhQo4ePYqLszMZmZl8/tlnqNVqQkNDGTRoEC7OzmRlZ7Ny5Upq167NksWL2bJlC56ensizsvjuu+9KzSuuUqm4ExsLIhEAuTk5JCcllYy7sJA7MTEoFApCQ0Np0aLFc36n9EOtVnP16lV+27KFhQsXvHLP4Z8XRwcHhg4ZzIIFCwjYtYt+/fvrO6RXXpVL0iqVih07dnAnNpYd27cJvbj/AzMzM94ePZq4uLvMmzuXr7/5Rt8hvVCMjY1xL6d0okqlIjU1lSGDBzP6nXdISkpi2kcfcfLkSVJSUjh54gT79u3D2tqaX3/5hZg7d9BqtcikUg4dPkxeXh6TJk3iyJEjeHl5ceDAAbZt346rqyuLFy9my+bNpZJ0VlYWP61dWzytokqlIikpiQYNGxZvY2lpyetvvMH169cZNmzY83tz9Ojhc+if1q5l6NChNG7cWN8hvTREIhHu7u6MGDGS5StWYO/g8NJe6L0oqlRz98Oe3CtXrODHZUur/NzPLwJLS0umffwx165fZ8f27foO54UhNjREKpMRFRlZYvnDIhABAQG4uLiQnZPDgP79GTx4MKGhoeTn5xN26RKNGjfGyckJqVTK+x98wODBgzE2NqZBw4bIZDLEYjFWVlYUFBQQGRmJnZ1d0b5hYVhaWnLu3LlSTdU2NjYsXLiQ7Tt2sH3HDtatX198V/8qycjI4I89e6hRw4ahQ4foO5yXjqmpKa1ataRTx44sXryY+Ph4fYf0SqsySVqn05Gens7MGTOYPXs2Tk5O+g7ppSASiahZswZzvviCpUuXEnnzpr5DeiGYmJjQuHFj8vLyOHr0aPHy9LQ05s2dy5XwcLZs2UJAQADzvvySbdu20bx5cwwNDalla4tGoyEzM5P8/HwCAwM5cOBAmefRarVkZ2eTkprKxdBQrl65gqmJCePHj3+la02XR61WExUVxalTp5g6daq+w3lp2djY0KNHd1SFhXz99ddER0frO6RXVpVpSy4sLGTB/Pm0aNGCnj31f3egVCrZtSuAzIwMBg8ZTPXq1YvXFRQUsHrVaqpVr86QIYOLtxsydEiVHLogFotp1KghEydOZPr06ezYufOVmEv3vzAyMqJJkyZ079GDH374AbFYjEQiYfPmzRQUFDBu/Hh27tyJtZUVBgYGnDlzhpuRkTT39cXX15d169axd+9eLC0tWbVqVbnz+JqZmeHl5cVvW7bQoEEDtDodBw8cIE+h4O3Ro586/odN4S9bok9KSmL79u307tO7wuPNMzMz2b17D2Fhl1Ao8unatSudOnV8qvHu+pKXl8eJEyf49ddfS62ztpbSs2fPZ17AxcXFhbdHv838BQvZtHkT/fv1x9PT85meQ/B4VWKctEaj4eTJk+wOCGD16lVV4jl0fn4+CxbMZ/+BA4wZ806JTlc5OTmMHDmK3Lw8evXsyfz58zl48BBjxrzzRGNnK5OhoSHOzk6EXQ4jLi4OPz8/fYdU5UkkElq3bo1EIuHPP/8k/PJlfHx8+GLOHJycnGjYsCFJSUns2rkTQyMjevbowY2bN2nZsiWtWrUi8PhxLoeF8WavXgweMoSkpCSqVauGn58fSqWS+Ph4GjVqhL+/P25ubhw+fJiLoaG0bNmSDz78sMT/pYKCAqKjo3n9jTeKi02oVCqSk5OpXr06np6exMTE0LFjR2rXrs2t27e5FhFB165d9fX2PXMKhYKTJ04QeuE8n332WYV6cyclJTFv3pesXbuW/PwClMpCNm7cyNmQc3Tv1g1TU9NKiPy/02q15OXlodPqMJOYcTYkBLk8ix7du1OnTh1cXV1wdHR8puc0NDTEwsKC5ORkLl26hFKpRCaVUbNmzWd6HsFj6KqAjIwM3Ruvv647deKETqfVVImfnOwsXd8+vXUe7u66tNSUEusy0tN09nZ2un79+umys+S6Pr3f1NX38NClp6XqPe5H/WjUKt2N69d07dq21cXFxen7YxcInsitW7d0gwYO1J05fapC/98L8hW6gwf26+o4OuoGDRyouxsXq0tOStTN+PhjXePGjXRr1qzW++/k0/xERd7Ude3SWdelc2ddZkb6c//OOH8uROffpo3unTHv6BYtWqS7ffu2vv8rvFL0fsuqVCrZsH49np6Nq/SUk2q1mkuXLnEu5Byujyi3qVarCQsLIzz8CtWqVaN9+3ZVpgncwMAAJycnhg8bysIFC1i9Zo2+QxIIKiQ7O5vgoCCkMhlt2rSp0D4KRT7Xr99AJpPxZq9eODo6olarmTxlMr3e7IWNjQ1qtZro6Gh27dpF/L171PfwoGvXrjg7OxNxNYIzQUEYGBgQFRWJTqejW7funD5zmpSkZDp27EivN3tx5kwQUVFRaHVF5UmdnZzo378/bm5uREZFsWnTJmKio7GwsKBTx0707NWTM2eCuBUVhUarJSs7i4kTJnD37l0OHzrM7ejb+Pn50bt3bxwcHCr0WuWZcvbv38+fgccpLCjA1c2Nt0aNwt3dneTkZLb89huRN29So0YNHBwckUmlDK7ADGEGBga4uLjQp29fDh0+hEwmY+/evQwZMkSoZlhJ9JqkdTodsbGx7Nixg927A/QZyiMplUo2btzEZ599hr29PfKsrDK3y8vL4/PPP2fPH3vx8PDg3r17WFlZsX3b1iozM5VEIqFP374c+/NPDh8+/FI1hwpeXqmpqRw+fJj33ptU4X1UKiWpqamYmpjg5FzUEdXQ0BAHBwccHByKZ816773JmJqa0rFjR3bs3MX27Tv46quviImJYdGiRTjWqYOPjze7dgXw55/H8fXz5c6dWMKvXCEnJ4eYmBi2/PYbdZzq0Ly5L79u3ETw2RA+mTWTtWvXEhZ2mZ69enLz5k0WL1lCVnY2MdHRbNq8GUtLS7p168pff/3FvC/n4+zkRNMmTVj243KOB/7F+nU/P/bZeUFBASdPneSLOXPw9vHBzcWFnTt3ER0dw5LF37Fk8RL27d9P06ZNiIuLY9269TRr5kXXbl0rNL68evXqtGvXlj179iDPzMTAwIBdAbsYNGgQNWsITd/Pm157dxcWFrJ8+XLGjhlTpeeFLiwsZMtvv1Hbzo4tWzbz09q1pbbRarVERUWxe/ceXF1c6NalC35+vqSlprJz1y49RF0+qVTK5MmTWbliBWq1usS6/Px8zp49y5IlS/h42jSUSqWeohQIimRnZxN05gyWVlYVvov+J41Wi0KRX2p5Tk4OZ84EodPp+Oijj5g1ayazZs4gPT2d/Qf2A1CtWjXeeWc0H37wAc2aeeHg4MDCBQsZO2ZM0Vj5tDQA7O3tmTtnLnO++JyxY8aQlJhIbGwc48eP54svvsDP1w9LCwtUKhVp6X/vs2jRt8ye/Sk3btwkLzeX3Nwcrt+4gZlEQnJSEtevXX/s6zM0NMTb25s1a9YwoH9/bGvXRmJqSpZcTnR0NKfPnKFVq1b89NNPfPvtImrVqvVE759IJMLJyYl+/fqRkJCIVqvl3r17HDp4iMLCwic6luDJ6e1OWqvVEhMTw4Xz51n0bdUusqFWq4m8eZMWLVtSr149bGxsSm2j1WpJSU0t/rdYLMbbqxm+Ps1p+I9iE1XBw57LNWxs2L17Nw4ODgQHBxNy9iyXLl1CoVBgamrKm717Exoaqu9wBa+4hIQE/ti7l/99+MET7WdmZkbDhg3Zt28v165F0LlzJ3Jzczly5Cj79++jiWcTUlNSMDIyomaNGpiYmODo6IhSqSQpKZmGDSr+eys2MMDMTIKRkRE2NjZFs57dvkVQcBCHDh7C09MTmazkHbGxsTE1bGqg1WrIVyiwtLSkc+fOtG3b7sF6owo1d6vVasLDw/lo2sfIZFKa/KMHdmFhIWlpaVhLpVhbW2NiYoyt7ZMlaSi6m/b3f42AgF3kZGdjaWVFdEw0gX8F0q2rMA/186S3JK1SqYoqBg0bWuWLlhgaGuJRvz5xcXHcvn2b7OzsUtuIxWLqPnhWbWJiwrDhw7h27ToRV69WdrgVYmZmxoCBA/jyy/n07deP06dOER4eXnznrFarCbt0iXtCIQOBHmk1GrJzcrCzs3viu2gLCwua+zanUKni1183YmpiikQi4ef161ErlQwbOgwHR0d2BQSwb/8+POp7sHv3HqytrGjTqtUTnSs7J5sLFy5gZ2/PgQMHsLS0pI5jHdavW8/rr7/Ot99+w4oVKwkLu1xqX0tLS7x9vNkZEMD9hASkUmt++uknxGIxkyY9vnk/MzOTkydOUk0m44svvsDCwpzz5y8AIJPJaOrVlMthYQQFBXPvXjy3o2Nwr1f3iV6fSCTC0cGRnj17cfr0aTysrFAoFISFhVGrZi28hfnrnxu9JGmdTkdiYiJnzpxh3gtQm9vU1JTx777Lh//7H8OHj0Cr1ZbaRiQSUbt2bUa9NYpNmzYzdOgwbt68iZ29PRvWr9ND1I9mbGxMixYtsLe3o66bG9OmTSM3N5fgoCBOnzlDSEgINjY2bN26Vd+hCl5hCQkJLP/xx6cen+vi7Mzi775jzpw5zPvyS8RiMa6ursyYOZNOnTuRlpbGiBEjWL16Nb/+uhFra2sGDR5Ej549+PPP4xU+j1yexfIVK/nmm2+xllozYvhwOnZ8g5MnTxAYGEjv3n0wEIvRaDTk5eaW2Nfc3Bx/f3+6de1KQEAAe3bvoXr16owb9y7u7u6PPbeVlRW+fr7s3b+f9z/4ABMTEywtLVGr1VhYWDB40CBmf/oZAwYMQCwWY/qUw0SrV69GyxZ+7Nq1i7ru9RCLxWRkZHDy1Elq164tdCR7TkQ6nU5X2SctLCxkwYIFmJgYM/uTTyr79BXysJiJPDOTiZMmFvfuPn/uPK3btCYvT4FUao2Hhwe7dgWQJZczYeKE4u2Cg4KRVatGr149q0zv7n8rLCzkjz/2sm79evbt21eiwIlWqyUjIwOpVFolxq0LXj06nY6rV68ya9Ysfv1lQ5mPmSpKoVBw/foNDAwM8PZuVub6+Ph4PB7Ualer1SQlJREffw8HB3uqV6/O9es3EIsN8PT0JDExiXv37mFkZMiO7Ts4ffo08+fPx8XVBZlMVtzZS6FQEBkZiZmZWfGxCwoKuHPnDrm5edSrV7d4W7VaTWJiIvfv3y/u3FaWvLw8bty4gaGhEV5eTUvsm5SUXOKYD7ctLFQik0mRy7P4ePp0rK0s+f333594YpLIyCjmzJmDyMAAO/uiGvJGRkY0atiIoUOHCjORPQd6SdKZGRl07tyJffv2VekOY6+C1NRU+vXrz+ChQ5j83mR9h/NE8vLy2L5tGydPnmTAwIH07NkTKPoS/PPPP9mxfTvdundnyJDH13cuLCwkODiYHdu3s2DhwnIrdWk0GmJjY1m/fj23oqKwsLCg/4AB9HiKGtqJiYl88fnnvDtuXKnJNB6noKCAM2fOsPYfw+gMDAxwcHRkzJgxNGjQ4Inj+ffxT58+zf59+5gzd65eKpdlZWWxe/duIiMj+Wrhgko/f0UkJyWzZMkSTp8+zaLvFj1Vx7bnKT4+noVffcXRI0dxdXNDoVCQnZXFuHHvMmXKlCc+XmZmJju272BnQABNmjYpXi6TyejSuQvNmzd/luEL0EPvbrVazZkzZ2jUqLGQoKsAiURCt27dOH78OBcvXtR3OE9Eo9EQFxfHqVOnOH36dPFyhULBvr17ORsSQnJycoWOpdPpSE9L48KFC488X0REBH379CEpMZFRo0bRomVLvv7qK2bNmvXE8efn53P+/HkUeXlPvK9WqyUtNZXbt2/zzjvvMHnKFEaOGkVOdjYfffTREx+vrOOnpqRw8dKl/3ysp5WVlcXF0FA6d+qktxgeRyqT8vbot1m6bCmNGjXSdzilODo68t2iRaxb9zPdu3Zl5PDhrF2z5qkSNBTNOe3ZxJP09HQUCkXxcrlcTsi5ELJzSvfXEfw3ld6OqVar2btvH3379KnsUwvKIJFI6NWrJ7///jtHjx3Fw8MDCwsLfYdVYQYGBhgZG3Pu3DkyMjKoVq0aCoWCEydPYmlp+dTHLSgo4Pz585iamhaXUJXL5axdswZXNze+W7wYmUxGfn4+MpmMb7/9lgkTJlT6xDCmpqa0aNkSmUxGQUEBGo2GOV98wamTJ2nbrl2lxvIsabVa0tPTiYuLo02b1voOp1wmJib/udXieTM3N6d9+/a0b9/+Px/LwMCAWrVq0dzbm+SkZFxci+o/6HQ6UlJSCAoKEnp7P2OVmqR1Oh1paWlcDgtj6Q/fV+apBeUQi8XY29vj5OREVGQUf/75J31eoAuoh8UpDMViwi9fplXr1oSGhlJNJsPmQY1rhULBgf37OXjoEGqVig4dOvDOmDFkZWXxy4YNiAwMuBwWhr9/UcW7tLQ0li1dSnpGBl999VXxuQry87l+/Tr9+vcvbv6VSCQMGjSIQYMGodFoiI6OZv369UTfvo29gwNjxoyhYcOG5OTksH37do4cPky1atWY+v77mJqaolAoCAgIYMWKFcXLH26/bds2jh45QrXq1Zk6depjh/IZGBhgbm5e/G+lUkl4eDibNm4kMzOTVq1bM2nSJHJzc9m/fz9HjhxBq9HwxhtvMOqtt1AqlVy+fJnNmzaRnp6ORCIhX6Fg//79nD93jo+nT6dmzZqcOnWKfXv38vH06dSpU+dZf6RA0WcWHR1Nw0aNhMlgqpiiu+km7P/XzG5Fz/2v08SzSYUnPxE8XqU2d6vVagIDA3n99ddLTFgh0C+JREK/fv2Ij4/nUtgl7ty5o++QnoipqSmNGzcmODiYgoICwsLC8PPzw9rKqriq1Pz58xk3bhwzZ81iy5YtrF+3DrlczpIlSzhx4gTde/TA0tKS3NxcftuyhfArV/j0009L3Bmr1GpSUlLKnWAgMzOTZUuXkpuTw5q1a6lVqxZTpkzhTkwMS3/4gcOHDzNs2DBsbW2ZOnUqmZmZKJVKEpOSGDJkCBaWlvzvf/8jJyeHjRs3smHDBvr264eLiwtTpkzh7t27j3wfCgoKuHbtGsbGxji7uJCQkMBH//sfhkZG9O3XjyNHjvDDD19UhHcAACAASURBVD8QEhLC4u++Y8KECbz/wQds2rSJjb/+yr1795g2bRpGxsb069+fqKgoJGZmNGrYkFu3bnH+/Hmys7M5fvw4BYWFzy1BAyjy8rh96xZNmzR5/MaCSmVlZYW7ez3SUlNLjXTJzMzkQmj5j4wET65Sk7RGo+H06dN06tixMk8reAxTExPatfUnISEBhULBocOHyhxmVlWZmprSrFkzjgcGFlVMCw6mqZcXUHSn7e/vz7nz5yksLCT88mW0Wi25D54DW1paMmbMmOJOZ3K5nI0bN9K6desy71y1Wm25z5BtbGz4bvFiJk6aREhICElJSeTm5pKTm8vJU6cYOHAgffr2ZcbMmcyfPx8AK2tr3n77bbp1746vry9Zcjl3797l/LlzvDt2LEOHDmXIkCGIDQw4d+5cqXMmJyczftw4Bg0cyLChQ1m9ahUjR43CxsaGc+fOITEz47PPPqNjx4506tSJY8eO0bFjR06eOkV+fj5Xr1wper6dns6VK1dQq1S8//77dOncmVGjRgFgYWmJt48PZ4ODycnJIfzyZbp06fLfP7hHyFMouH37Fk2bCkm6qjEyMqJmzZpYWlqSk5NTYt3D2dru37+vp+hePpWepENDQ2nRQpgmsSoRGRhgLZVSs2ZNMjIySEhIeGQHqqpGIpHQrn17kpOS2LNnDxkZGcW9bNVqNUFBQbRo0YJt27YRExNTYl8DAwPM/9GqI5VKGTFiBAcPHODEX3+VOk/Tpk2JunWreJlKpeLkiRM08/LiyJEjzJ49m0kTJxIcHEzugy8wtUpFakoKtR7cgUskElo+eI5sIBKVOD8UdSg7efIkW7duZdDAgUydMoVMuZyUlJRSr93a2rq449jESZPw9/dn7969JCYmcu3aNZISExk/bhyj336b7du3k5qSwp49e2jTpg3bt28nNjYW+Pviw0AsxtLSEgOxuLi1y9ramg4dOnDy5ElOnDiByMCAN95446k+q4rQarVkZWWRkZ5R5ar1CYpIpTKaNG1KZkZmqXVZWVmEh4frIaqXU6Ulaa1WS+TNmzg7OWFpZVVZpxVUkImJCa1atiQtNY3CwkKCgoNeqLtpiUSCt48PmzdtKk6AUPSc7MSJEzRp0oRVq1Yx9t13sXhEhzILCwuGDR9OM29vNvzyS4l15ubm+Ldty+FDh4ovYjIzM1m/YQONGjemRo0aHD1yhC+++ILp06fT6kHVKjNzc1q0bMmVq1dRqVT89ddf+Pn6EhcXV2YMJiYmePv48M6YMWzfsYONmzYxdepUXn/99VLbPuw41rZtWzp06ED7Dh3IksspLCzExdkZewcHtu/YwZbffuPrr79mzNixXL1yBR8fH1auXMnbo0djYWmJmZkZfi1aIBaLuXr1Kvn5+Vy7dg0oKnzj7u6OhaUly5cvx9fX97kOycrPzyc2NpbGQlN3lWVtbUXjhg1RKEq3KikUCqKiokh7UNdc8N9UWsexh3fRVbmn5qvM2NiYli1aEBRUNOFAZmYmV69epWnTpvoOrUIkEgmtW7cm9MIFXvP/e8pTU1NTmjRpws6dO3l/6lTu379PQUEBZ8+exetBk/i/yWQy3nnnHSZNnMi2bdsYPLhoSj8LCwuGDRtGdHQ0gwcNwsvLi/v372NjY8OcuXOpU6cOrVu3Zu7cubRq3Zor4eHk5eZy4cIF+vTpw4wZMwg8fpzMzEz69etXbk9wmUxG3z59WLZ0Kdu2bSMvNxdXNzfaPaa3tpmZGc2bN0epVJKWmkrnLl3Yv38/Xbt2RWJqiiI/n5EjR+LVrBl7/viDqVOmcP/+fRQKBSEhIfj7+zNgwACmTJmCU5063Lhxg1oPhklKpVL69OnDb1u20Lt376f5iCqsoKCAhIT72D8olvE0MjPl/Pnnn9S2tcXXz5eIiAjOnzuPZxNPXnvtNQoLC4mIiODSpUu0bdu2uNBIbm4uwcFnycrKolOnjmXOQJWcnMy+vfto1LgR9+/dp7Zd7RLjo3Nycjh7NgSFQkGfPiXfq4KCAiIiIjh96jS2trYMHTa0xPr09AwOHjxIvkKBXwu/Mv+PJiYmcvDAQfzb+hdXJMvOzubs2RAKCgrw8/Mttf5ZMzU1pZatLbk5uWWuz8rOIiIi4pn0KH/VVWqSPnfuHG89eM4lqFqMjY1p0rQpqampaDQaCgsLOX3mNJ6enhgY6HWytHJJJBIGDByISqXC1NSUPn364OXlRf369TE3N+fj6dORSqU4ODhw8OBBYmNjqV+/PmZmZkRHR+Pq6sran37Cw8MDIyMjWrdpw4qVK6lZsybW1tZs3rKlVF15mUzGokWLmDZtGjExMVSrVq1Ek+z3P/zA9evXMTExYc6cOcTHxyOTyZDJZLRv356LFy8W75Ofn8/qNWvw8PDA2NgYf39/XF1dcXBwYOSoUQwYOLDE9v9kYmKCf9u21K1Xr8Rdrb29PctXrMDBwQF7e3t+37qVmJgYsrKycHd3RyaTodFo8Pb25t69e7i7uyORSLhz5w4NGjSgYcOG9OvXr3jdw2NnZWVhZGRE3bp18fHxeY6fKqiUStJS02hWzkVURcjlmezbt5c2r72Go1Mdfli6FBDRomVLoOj9k0gk/PLrRszNzIuTdGJiIkuXLaNFCz8GDhxQ5rGTkpJYt349//vfh9y6fRtDI6MS6xV5CoKDgkjLSC+RpAsKCggMDGTuvC/x9m7GiZMnSUlN4f333wfg/v37fLd4MdevXcejvgd79+9jyeLFpRJtQkIi6zdsoEHDBsXr8vLyCA4KQp6VRYMG9Qm/Eo7PcywsYmpqSo0aNmTnZKPVakt9R+Tl5RF1Kwp/f3+hCtl/VGlJWqvVcv36dZo1e/pfPMHzIxKJsLS0oJatLTnZOUhlUpKTk4m4FkETz6rZ7GhkZFTiC+zf9YP/2Qrw73UPk17LB1/aAHZ2dtjZFd29mZiY0KxZ6fKRUDRs7Z/b/tO/93N1dS3+u0Qi4bXXXivx7/LOX9b2/47B3t6+1FAXMzMzWrf+u7XK2NiY+vXrP3bfh2N9y1qXmprKV199xYULF5g9e3aZ8TxLygdTQNo9o2E8Wo0GkUjEa6+9VqIkqJWVFU2beHImOJhhw4cVl9ZMTUmhZYuWjzhiEam1lJ49elS46V+lUpGUlIy1lSXvT53K779v5Xb0330kFAoFGenpDBw0EO9m3kyZMoW01LQnvhu2tbVl5MhRVKtWjZ9/XseuXbvYuvXJS4A+ikgkQiKRIJPKUCgUpWorPOxXEBsbi9uDiYcET6dSbpF0Oh052dloNBrheXQVZig2xNHenpwHs3wplUou6bHilKBqsLS0ZOTIkaxdu5auXbs+9/MVFBSQcP8+Tk7/fYhXbm4uISHnuBNzh7BLlzhz5kzxOitLKzw9m3D92jXi4+PJycnh4sVL2NaujZ+fL4WFhYSFhbFm9RrWrFlLWFhYiWMnJiWyePFiDh85glqt5tatW6xZvYZNmzeRl6/4dyhIJBLq1qtLVnYOixYt4sTJk3R84+9+BpaWljg6OLJ582a+/uZr7B0caP0Ujwdv3brFhx9+SNCZM5w+fYrU1FT27d1HVlbWEx/rUUxNTbGtbUu+ovRrhaL3PupW1DM956uo0pJ0zJ07uLq5Pn5jgd4YGhlSz8OdnNyiXskPy25mZGToOTKBPj0c4lYZlbW0Wi25ubkoFIr/NKHGQ0ZGRtja1sLK2ppq1aqV6AdgZW1Fu3Zt0ep0hIZeJDs7m4hrETRv7oOFhQWhoaFMmfp+UQdKnY7/fTSNY8eOlTqHWq3m7NkQBg0eTPDZYO7ExrJr565S2xkaGmJXuzbVZFLOnTtPv759SjzfNzc3x9XNjcibkaSnpbNk8Xflvq7s7Cz27dvH90u+5/sl3/PTTz9xNSKixDYSiQQnJ2ckpqa4ubk90ztpAImZGXZ2duTmlj0kMS8vj5iYGAoKCp7peV81ldLc/bBnt3u959OJQfBsGBoa4ubqxqlTp4qXKZVKrly5InQAEVQKjUZDXl7eM5s5zsTEBGdnZ6pXr4aTszOOjo4l1ltZWeHdzIurEVdxd6/HrVu36dmjaMy8k5MTPy5biqenJ5cuXeLw0aPExsWVKmaTnV00l7SbW11+/fVX4uPjyxwZcfv2bT76aBoqlYrWrVtz8uQppFIp165dY8qUKRw79idLly1l4KCBhIVdZuvvW1Gp1TRs2JDevd8scSy1WkNubh41a5T/2iUSCXXq1MHC0pKGjZ79ULaH015qdeWPAsnLyyPubhwe7h7P/PyvikpL0ndiY6nzr18QQdUiFotxcLAvUaBApVJxOfyykKQFlUKn06HVaiuts5GVpRUNGzRk244d1Khug4FIRPPmRR3j0tPT+fqbb4iKjMLewZ709LJblFRKFfl5CmxtawFgbGRMrRo1SctIL95GoVBw8eLFovrva4tmLhs3fgI/LF1G925dUalUBAUHMWjQIN6bNInNmzbz9Tff4NmkCd26lX7EUK1aNYYOHVLc/yAxMZHVq1Yjf8ZN2o9ibGRMdVk1tGpNudvk5+dz/959IUn/B5XS3K3Vaom9cwfXukIHgqrM0NCQOnXqIM+UFy/TarVkZma+cKVCBS8mlUqFXC6nRo3/3tRdEWbmZtRvUJ87MTH8sW8fLVu2wNHREblczsGDh5CYSggLu8TSH37AvV7dMo9hKjHFwcEBeaYcuVyOUqUkObV04RkouhA2NzfHzs6Ot0aNQqVUFt+Zi8ViLMzNkUqldOnaBU/PxqiUhc+k2f95EIlEGBgY8KjZjvPz84m/F1+JUb18Km1sTWFhYanKSoKqRSQSYWZmhkqlKrFcpVIJHUAELyVDQ0OcnJzw9vEmNSWFFg96dRsZGVG9WjXi7t5l8+YtrPt5HRHXrnPv3j3kcnmJY1hbW+Pfti2ZcjmzPvmEr7/5hiOHj5TYxszMDC8vL0xMTPj888/54fsf2H9gP9VtbDh0+AhxcXdp5tWMbdt3MHfePFauWkVGRiYajZZfN278T68xPT2dkydPlVgWGRnJ+++/z+XLT18ZTCQqurAoP0UXPa+XZ8rJzCxdmUxQMZU+VaXgxfOwA5lA8LwVfalnYlOj7ElMKkoqldGnT1+cnZ2LCrH07oOzs3OZ21avXp2xY8aSkpxMhw5Fj3Wsra0ZNnwYderU4c6dO3Ts2JGBgwZy+3Y0tra2jHv3Xby8vLCwsMTFxQU3N1d+XLaU4KCiSV7GjhlTahIhNzc3li1byvHjgei0Wqb97yM8m3hy5cpVatSwoXlzH5ydnbkVFUV9j/q8N2kSSqWKvLw85HJ5cWEVO7vavDt2bIkJTh5Wwytab8fYMWNo1LgRXs28UKvVZfbA1mg05fbMrghjY2NkMilKZeEjt8vPz+fevXvPtUrdy0yke1RbxTOSr1DQpUsXNm3aWOnz7QqeTEpKKl27dqVlq1aYmf/9JWNlZcX0j6djamqqx+gELzu5XM7ugABSU1OYPn26vsN5aUVGRvLzzz/z/vvv4+Dg8FTHyM7OZu/evWzavBnPR5RwtbCwwP81/+da7/1lVqmlpITKM1Xfwyasf1Or1cLdtOC5MzQ0xNLSkowyJm4QPDtOTk7/KUFD0Z24QpGPgcGjv9dVKpXQ3P0fVM44aYq+5A0Nhdb1F5VarSY2LlbfYQheciKRCCNjY1Qqpb5DeamZmpr+pwQNRcPAFAoFRo/5XlepVM+8kMqrpFKStIiiK2S1Wl0ZpxM8BxqNRpgjVvDcicViJBJJuQUyBC8erVaLIl+B4j88/36VVc2ZEwRVjlarLXPuWIHgWfo7SZc9u9I/paen8/XX39CsmTcODo74+bXg22+/LdX7+nEKCws5cOAAfn4tOHr074pi9+7dY9KkSYyfMLHcY16+fJnWrVoTsCuAOV/MYfKUKSXW5+TksH79Bjp37vzIuO7evcuYMWOoW88dJydnunfvwdbft1Yo/qioKLp27Ubt2nalfrp16/7c7mJVKiXyLDki8ePTiFKpFJq8n1LlJOkHQ3se1oQWVF06nQ5Ffj7Gxkallufl5QlXw4LnSiQSYWhoSH5+/iO3y8/P58SJEwQEBPDjsmVER9/my/lfErB7D9u2by93v9zcXI4fDyyRjE1MTHB3d6dGzZqEnAspXp6VlcWVqxG08/cvc8rKf5JKpQweMpgx74yp4Cv9W0pKKps3byEvL4+DB/YTHn6Z7t268ePy5QQHBZe7X3p6Ort370GhyOfw4UMkJiawf/8+3Nzc2LVrJ4mJCRw6dPCZlwN9SKvToVKrKzRLnlqtLi43LHgyldPcLRIhlUrJzhE+pKpOp9ORr1CUmn4PQKPVCHW8Bc+VoaEhMqmUgoJ88h5xN52bm0vE1Qi8fXx4zf81TExM8PP1Y/y4dx+5n0Kh4Mzp0+zZs6fEcplMRquWLYvHDSsUCq5fv46BSIRP88dPzZmnUHD+/AVCL4ZW8JX+LStLTmTkTTp26oS7uztSqZS+/frSs2dPUtPSyt0vPT2dP/7Yw8VLF5/4nM9Cfn4+CffvV2jEh06nQ/OIymSC8gk9uQQVptVqSU1N/c8dTgSCxMREfly2DLe6dWnZsiX169cvHlVgbGJCrVq23E9IKHeaRonEDBdXV7Zt3868efPo2bMX3t7NGD16NFCUQE6ePMmyZT9y5coVGns25quFC7l7N559+/djIDbg+++/58MPPwSKZqBq1syLQ4cOcelSGLVr23L+wgUaNGxIrVq1SEhI4PsffuDy5XDEYjGNGzXk008/LY5HpVRyJyaGtIx0suRZ7NixgxUrV5KVlYWdvT1mkvITmaWlJbVq1mLN6jWYScxo3twHd3d3Zs2aCRQNS9u+bTsrV60iJyeHLl268NFHH7F37z4uXAglPT0Dm+o2pep7PxQfH88PS5dx5coVDA3FNG3ShFmzZqHVatm+bTurVq8mPz+fpk2b4OHhwZdfflmhzzBfoSAxIRHHCsxWVtQTXGiFexqVkqRFIhEymYzU1PKvCgX6p9VqSU9Px9LSssz1KpWKK1euPLYpUiB4HLlcTkJCAhs2bEAsFlOzVi1at2pFmzZtcHZxoUaNGty/X36StrAwp0+f3hgaGrJ7z25WrVqNqURC27ZtmTVzBiYmJmzevJn27duxbNlStm7bzrwv57Nm9Sp69exJckpKcYKGv5u8a9aqRejFUDq0b8/t29F0794NiURCeHg4apWK9et+Jj8/nxkzZ7Fj5058mzcvFdvd+Lv8unEjH388jVatWjHt448f+ajP1taWaR9/THUbG1auXEl0dDRSqZQhQ4fw3qRJXLt2jd+2bmXu3Ll4ejZmwcKFbN22lYEDBhARcRX/tm3LTdAFBQXcunULETo2rF9HdnY2n33+ObsCAvBq2pTftm5l1syZ+DT3YfqMGVy8eJGsrKwKNZEXKpWkZ2Tg0aD+Y7cVPL1KSdIGBga41a3Lrdu3KuN0gqekVquJibmDVTm/oEqlklOnTrH3jz8qOTLBy0aj0ZCcnFz898SEBPbv309sbCzNvL0xMTEh4TGjCaysrBg2bCjDhg0lPz+fwMBAFi/5nnnz5jFp0iRiY+P49NNPcXZ2pl1bfw4eOMClS2HlHk8mk+Hn60vg8UDs7exISU6muY8PJiYm+Pr6IhKJ2LZtG/H37pGUlFTmMXJycgkNvYipqQndu3dHLBbTo3sPtm79/ZGvpWbNGsyYMZ0ZM6Yjl8v5/fet/Prrr4h0RUncqY4j7doVVRRr1tSLw0cOM3DAgEceE4qGWrVo0QIDAwO2/r6VuPi7JCUlk52dzcWLlzA3k9C1W1dEIhHdunZj9+6Axx4THtRYz8xEbGCAURmPxv5Nq9VS+JjKZIKyVdqddN26dTlexlysgqrjYcEScwvzMtebmpjSvnd73nyz7Kt2gaCi7t69y4cffoihoSFt27bF398fvxYtqFatGtnZ2Rw4cIDY2PIndYmNjWX27Nl4e3vz0UcfIZFIaNeuHenpGSxfsZwrV66SnJzE559/XrxPs2Zej4zJzMyMunXd2L5tGyEh53B2dsbFxYWcnFz27NnDzz//zNixY3F0rMPdu2VPGiE2MChVDvRxLl0KY9KkScyf/yUdO3Yseibdtw9JiYlcvXYNRX4+V65GMG7cuOJ9GjVqVKFe29nZ2ezaFcDGTZsY88472Nnbk5CQgFgsxsxM8kRx/lN+fj5JyclYWFpUaHutVouyUBj7/jQqpeOYgYEBLi4uxN29WxmnEzwltbqoRreJkbG+QxG85Gxtbfn+++85feYMCxYupGu3bsVzSEskEuo4OhIVWf6kLpaWltSv34CdO3dx6VLYg1agGP76K5AO7dvTvkN7HOs4MXXKVH755RdGjx6Nqakprq4u5R7TzMwMT09PEIkICAigeXMfpFIpCkUeUZGRuLi4MHToEOrUcSy3c5qZedExDA2NOHjwIGlpaRw4eAAo6ox25coV7t27V2IfqdQaV1dX1q/fwL179ygoKCA8PJwLoaF07dyZpk2bULNGDdauXcuqVavo0qUr9vb2FWqSzs3N5fatW9R1c2Xw4EE4OjqQl5uHubk5np6eiEQGHD50mKysLC6FXQKKEnBkZCRRUeW//7m5uURHR2NuUbEkLXh6lZukY4WKVVWZWq0iOia63KtjrU4rdP4QPBPGxsYlJoj4JyMjI2rWqkVeXh5p5fRurl69OhMmjOf1119n0ODBODu7MHbsu7i7uzN58mQc7O0ZNXIksz75hAYNGrJyZVFys61lS81atTgeeJx58+aVOq61tTVtXmuDVCqlXbv2xefq268vcnkmHTq8zurVq2ns2ZjA48dLJVwAZ2cnJk6ayMpVq+nSpStiAwO8vLxISEhg8eLFHD5ScoasOnXqMHPmDIyNjfD19cPDoz5Lly5j6NAh9B/Qn/bt2+PbvDnt23egVavWhIdfpm3btpiZmWFmbs6a1Wv444+9Zb5PNWrUoHef3qSkpPDGGx1Zt24d9RvU56/AvzAxMWHs2LEsW74cf/+2nA0+C0BmRiZbNm9h1erV5X5+crmcK+FXkFZweJdYLC63hU7waJUywQYUXZ292asXP//8kzDJRhX1cHINv5YtsCjjCtnQ0JCGDRsyauQoPUQneJUk3L/P8uXLadeuHV26dNZ3OM+EXC4n8HgghYWFDB02VN/hkJ2dTVRUFPXq1UOr1fLbb7/z14kTrF5V1HntwIEDZV7IaLVazp49y+QpU2jXrl2ZwzX/TSaT0blTZ3x9fZ/HS3mpVVrFMbFYjK+vL6Gh+hnTJ3g0jUZDQsJ9NBpNmQn6acjlcia/9x5v9upVvEytVhMcHEzDBg3Yt29fmfulpqYyfNgwvvnmGwJ27cLH27vU+Oz4+Hg8Gzfmr8DAEstVKhWhoaEMHTqU2ra2uDg7M+7dd7l27RoFBQXs3LmT2ra2xT+ODg706N6d69evk5yczIjhw1m2bFnx8bLkchbMn89bb731TN4TQcWYmZtTr149wsMv6zuUZ6agoICsrCz82/rrOxQAbt++zUfTPmbfvn1Ex8RwKewSPj7eACQkJNK/f/8y98vNzSU6JgapVFahBP2QSCR6JnG/aiotSRsYGODTvDlnz56trFMKnkBhYSEhZ0OoWatWuduIRCKsLK0qfExTU1NatmxJbGws165d+/s8ISHY1KhBmzZtHrm/kZERrVq3ZvmKFRU6n0ajISoqig8/+AA7OzuCgoM5HhiIlZUVI0eMKJ7Fy8HBges3bnDv/n2O/fkn5ubmrFq5ssKvqypRKBQEBgZy6NAhfYfyTJmbm1O3Xj3Cw6/oO5RnxtbWltHvjK4ydQY8PDyYMf1j/jx+nOU//oiPjw8jR4zAxsaGvn370LRp0zL3y8nJ4ebNm1hZV/y7wNDQsMKdzAQlVeqdtI+PD8FBQZV1SsETUCqVnD13Dqms/PKHIkQVKgH4kKmpKW907IixiQnh4UWVnAoLC7l27RotHvTkfRS1Wk1kZCSbN2167LZQlLAOHTqEyMCAqVOn4urqiqurKzNnzeI1f3/uxMSU2F4sFuPg4ED7Dh0ICQl5IWsLFxQUEBQUxI4dO/QdyjNlZGREbVtbVCrVIzswCZ6eubk53bt355cNG/jll1+YNHFihS4g0tPTOXc2pEK/kw+JRCIMxULtrKdRaUlaJBJRs2ZNzC0siPnXl6VA/5RKJeGXL1PDpkb5G4nAoALF9P9JIpHwWps2nD51Cq1WS0JCAsFBQbRt2xaFQsG6devo0qUL/fr2pVvXrsV33FBUSjAjPZ2QkBCSkpI4ceIEvd98kzp16jBixIhS5yosLOTq1as4OTmV6PdgY2PDsmXLaN+hQ6l9dDodCoUCi3IKuJQnIyODzz77jOHDh9OmTRsOHjjA5k2b8PH2xsnJiZEjR5KZmUleXl7xclcXFwYNHMj7U6eSmJjIiBEjWL58OQAxMTF4NW3KyRMnyMzM5IvPP6devXp4uLvz9ddfo9FouBYRQe833yxePnfuXM6dO8cff/xBeHg4337zzRO9hqrOWirFz8+Po0eOVmj7pKQkFn71FQEBu0lPT2fJku957733isdGJyYmMnfePNb+9BMA2VnZbNq4ialTpxIZGQlAXFwcU99/n927S5YNjY6OZvLkyYSFlT/OujxqtZpbt27x3XeLGTRoEG+99RbLV6wos9NZRdy6dYtBgwYV/4wYMYIlS5Ygl8vJy8tj//79zJgx47lMrKFQKIiKiiK/oACZTFbh/YyNjB9b/1xQtkqdBUssFtPc15egRxSNF1Q+tVpNVGQkRkaGmJmXP8ZTJBJhafFkyczU1JTmzZsXJ9rLYWGYmprSpk0bCgoKuHz5MjNnzGDDL7/QzNubhQsXlnmcnJwcNm3aRD13d86cOUPPnj1LbaPT6VApldT38KhQbBqNhvj4eI4dO0bjRo2e6EtHqVRyLSKCrKwsVq9ejZ296KxW9wAAIABJREFUPT8uX86MmTM5f/48xsbGLFq0iLS0NJb9+COTJ0/mbEgIBmIx586dK/euPT8/n2PHjnHi5Ek2bdrEtu3bCTx+nPXr13Pk6FGkMhlnz54lICCAhPv3EYvF9O7dm6ZNmzJ9xowKx/8ikEql+Pr5EfhXIErl48fYmpiYUq9uPWrWqEFiYiIbf/0VP1+/EsOusrOyOXP6TNHfc7IJ/OsvgoKCuX79RnGdgJCzIZibl+yJbGFhgVdTL4yNjYmPv/dEyTo5OZk1a3/iUlgYQ4YMpWfPXhz+P3v3HRbFtYdx/LssZekgXWlSFYkFBXuviV1jNDdqmprEmlhSbDEmUeONvcSS2HuJmkRNLEnUWAELIKgIShGQIgssZWFZ7h8IV2MDBXbB83ken0dnZ2Z/swm8e86cOefw73wyceITj1GpVMTFxXH58qP35DMzs4iKiqZLl66MHTuO117ryW8HDzF58hSkUil2dna84vvKI8dlZ2c/9hGw8khNTeXMmbPY2dmVq1dNV0+30hb6qOmqNKR1dXXp3Lkzv/zy+McFBM3Izc3ljz+OYGfv8NT9JBIJ+gble4a6pMtbT1+f48ePExQURIsWLahVqxZmZmZ88MEHREZGsnzZskcGgf27xvPnztHztddwdnZmyJAhj61PT1+fa/dbRSXy8/O5cuVK6T3p+Ph4fOrXx7FOHXr36kX9+vUZNrz8I9aNjIzo3r077m5uhIWG4uDgQNeuXTExMaFN69YcPnyY8+fOIZFI6Ne/P2ZmZvTv3/+p5yx5lrZNmza0aNECJycnmvn7ExgYSG0HB/45dYopkydz+coVpk2fTrPHTEtZU+jp6eHi4oKFZS3OnTtfpmOkUilG9wPWQCbD3d29tAVnbGSMh4cH8fHxpa3O69evY+/gQGhYKHl5eURH38LIyIj6j5nqUiqVoqOjw/Hjx5ky5dMyL4mZlnaPixcv8u477zBgQH/69+/HpEmTuBN/54mrXOXm5nLkyFE+++zzx76PTCbD17cB7dq15Y03BjFzxgyioqNLH8XS1X00FOPj41m4cCFHXmBSqdTU4p4t+9pP/13xIF1dXUxNTcs0M5nwqCq9SSCVSgkICODLmTOIjo7Gzc2tKt9eeAKFQsHBQ4fwbx7w1P10dHSoZVn2+1AlDAwMaNSoEefPnSM8PJwRI0eiVqu5fv06w4cPZ/DgwTTz9+fu3bukPWGVLR0dnWd2SRsYGODr68vOHTtIT0/H0tKSwsJCrl+/zsiRIxk9ejQmJiY4Ojpy5OjRR1rOaWlpWFlZEfnAPdA8pZIrV65g95QBdfkFBdyMiiI6KooPHpgVqlnTpqjL+YSjUqnkalgYKSkpvDFoEFD8S65ho0YMeuMN2rRpw4ULFzj1zz/Mnz+fTz/9tFznr27Mzc0JCAjg+PHjtHvGqGi5PJ39+/fh7uFBamoqySkprF67FiNjY/z8mmBkbISvbwM2bthAcHAwSqUSdWEhfXv35vcjR8jOziYqKgoXFxdMTEzYtm07ycnJJCQm4FPfp7Sb/Kf167mblMQ333zDlClTiIqKYvv27WRmZtKmbVtGjhjxUF26ulLUhYWcPHmC+vXr4ejoSMeOHThzpnh8TlraPXbt2sVff/1J7dq1GT16NGq1mnXr15OSnMzcuXP54osvnthdrKurS+3aDtjb2XLp8iWysrLYs2cP/gH+nD9/gaS7Sdy8eROpVJfAwCBiYmL559Q/eHp58sXnn5OamsqBAwfIzMzkvffee2KLNyMjk9DQUIyMjB7paXgafT19rGpZlXl/4WFV2pKG4m+APXv24uefyzZHrFC5lEolF85fwNDI8IkLa5TQ0dHByqr8P2wlXd579+4lLS2NVq1aUVBQwPXr11EXFjJ48GD8/f3JeMoiBIaGhjQPCGDPnj1kZWWxY8eOR/YxMjKiR48eFKhUzJkzh9TUVG7dusWqH37A1saGli1bPrVOQ0ND/Pz8+Pvvvzl48CA5OTn8fvgwERER9Hj11ace5+/vj6GhIavXrOGndevo2asXbu7utG7dGlMTE/bv21faGwDFn6WBgQEJCQlkZGSw6/4ayMbGxrRt1w5PLy927d7ND6tW0cDXF1NTUz75+GMWLFjAgIEDmThxIm5165J8f/7rmsrMzAz/Zs24ePEid54xl3cJe3t7Phg1ClsbGz4YORI/vyZAcZjZOzhQx8mJiPAIoqKi8fL2pkXLFtxLSyMyMpKExATcPdxJT09n+/Zt7Nu3D/9m/tSt6wqAQ+3ajHj/fVxcXJg+fTppafeYOnUaRkbGvPrqaxw6dJi1P/74UD2urq5MnPgJf/19gtat29CuXTvGjRvHpUuXSUu7x4YNG9izdy/9+vWnVi0rJk+ZglpdxHvvvkvdunWfGtAljIyMqOPoyN27yaXb0tLS2LptK7/++hudO3Vm2NC38PdvxqBBr9O7dy+OHT3GjRs3uHv3LocO/465hcVTu6STkhI5dPjwU58AeRzR1f1iqjykdXV1ea1nT/bvP4BKparqtxf+JTc3lwMHDpTpB09XV7dcIzpLlNyDNjAwoFWrVri6umJgYEDnzp3p1r07vXv1YtzYsdjZ2REdHc2FCxceOYe5uTljx40jXS6nQYMGHDt2jIDmzR+allAqleLt7c3SpUuJj4/nFV9funfrhq6eHjO//PKZk+gYGRnRr39/3njjDWbOmIG3lxebNm1iwoQJtGrV6onHGRgY0Lp1a3r16kWXzp1p1LAhp//5hy5dumBra8tnn3/Ohg0baNa0KZGRxYvMWFhYMHDgQHbv3k2Txo25GBxMQEAAtnZ29OrZE319fTw9PWnVsiXqwkK6d+/Om//5D5GRkTjY29Olc2f8mjale48e1HZw4NTJkw8tnVhTSKVSnJydadW6Fdu2bXvh8xnKZDg51uFqRDgpqSk0adIYQ0NDHGrX5uLFSyQlJpXezzU3N6d//34MGvT6Y0OyeDGNICwsLfjii8/p1q0rbdu04Y9/DXQzMjKiT58+HDt6hIMHf2PUqA9ISExk/Pjx/Pnnn1y9GsaI997jP/95k4EDB6AuVBMcXL75JHJycoiNicH0X7N61bK0ZED/fgwcOKA0KGWGhnh5eWFlbc3ZM2e5ceMG8vR02jzlkcicnBzCQkOJj4vD3sG+XLUZGhpSu3btch0j/F+Vj4nX0dHBy8sLM3Nzzpw+Q7v7K7sIVa9IrSYtNZXzgYF07tL5qfvq6OhQq1atcg0WefBYX19fbt+/J1zC3Nyc+fPnM3/+/EeO6dmzZ+nfB9yfVMHa2vqZv6j19fVp37497du3f+zrr7/+Oq8/ZfUgc3NzZsycyYwHFmZ4HHt7e7Zs3Vr6bwsLiyce17VrV7p27Upubi6//PILixYuxMCgeJWk11577bHnX7169SPbPDw8+O3gwUe2+/j48P6/ulhrEisrK7p17casWbMYNmwY9vblC4kHGRsb4+7uwfbt23FxceHdd9/FxMQEN7e6nDx1kszMTHx86gMlU1k++dnenJxsIiIiiImJYdSoUagKC0lOTsFQZoBcLr8/73cOf/31FydOnGDq1Kn4+vri6+uLv38zvpg6lb///pu/T5wkMTGJffv3kZOTw710OalpqeWak0CpVJKtyMb3XwPGnnQNdnZ2tGzRgr0//0zbtm1p1arlE5cFBYiLi2f3nr04OjqW+3eAocxQa54Nr46qvCUNxb9I33rrLdasXaOJtxfuy87JYev27dSu7YC+/tMHhEmlUqytrauoMkH4v5LWdJu2bfl5374XOpeRkRHu7m7cunWLhIQE6tevh5GREY616xB4IRBnZ+enjj94kEwmw8XFBXd3D3bt2sWWzZuZN3cOY8aMLW156+vrY2RkzLFjxzl8qHjCGZVKxd3kZOTyDOrXr4+/vz8ffvgBu3btYt269YwdM4a2bdqU+ZrS0tI4dOgwuXm5pV37z2Jubo6vry8XL17k8O+/4+//5PEoxWtS3yAmNoY6TuULW5lMhkNtBwwMDMp1nPB/Gnm6XFdXl969e/Pj2rUEBwXRtAaPUNVWRUVFpKamsnv3Hlq3efrMX1D8i9LFWcy5/iL09fVp27atmLv+OVhZWdGlc2e++uor3hg06Lm/MBoYGODq6oplrVq4uLjg5OSESqWigW8DDA0N8a7njYWFxSPT0JYoXorSkPj4eDZt3sx/3nyTI0eP8Oqrr2FgoI9KVciIB3o1dHV1adSoIUOHDmXOvHls2rwZqVRKSmoq/3lzCEOHvoWBvj4LFixg46ZN5Obk4uNTn6ZN/TAyMiQ2NpYVK1cyberUh+pISkri62++wdTEhMzMLO7du8e0adPw8vLi8uUrj69dVxdlfj6HDh6ivnc9PD086NqtK1lZitK1qh8nPj6ePXv24uzkXO5WtEwmo07tOuU6RnhYlS2w8W8FBQX89OOPXLlyhR9+qJ5TMlZnOTk5rF2zll9++5Umfn7P3N/ExISPPvyozK0MQahoKSkprPvpJ1QqFdOmTX3k9dzcXG7cuEGtWrWwtLQkPDwCLy/PR+4n5+TkcP36dYyMjPC+/0y9QqEgNDQMR8c6ODk5kZOTw82bN7G0tMTJyYmsLAXXrkXg6emJvr4+4eERSKU6NGnSBKVSSXR0NAqFAk/PR98PilvPiYmJ3Lp1G0NDQzw9PR7aLysri5CQUGxsrEu7nbOzi7vTdXV1adz4/2thZ2ZmPfT89IPnK3mftLR7eHp6EBUVRa1atXB0dKSgoIDExCQSEhJwdKyDqkDFsuXLcHV1Zdy4cY/9zLOysjhw4AA//LCK5i1blDukHRwcGDJ4CHXqiKB+XhoLaYD09HR6dO/OhvXrqO/jo6kyXjpFRUUkJCTQs2cv/AP8MX/GyNGS2eKmTJ5SRRUKwqOKiooIDw9n5owZTJs2Fb8yfLkUHu/69etMnDgJqVTK99//97H3o4uKirh06RKffDIR17qu2Njalus9pFIp9erV4+3hbz/XWBahmEY/ORMTE4YNG8biJUufvbNQYXJycti6dRuWVrWeGdBQ3GUnumgFTZNIJLi4uPD666+zbNlyCgsLNV1SteXg4MCMGTNYuXLFEweMJSYm8vPP+zCQycod0FD8+93T01ME9AvS6Kenp6fH8LffJioqimNHj2mylJeGWq3m1q1bbNq8qbSr71l0pbrUda377B0FoZKZmJjQuk0bDI2M2LWrZi0qUpXMzMxo0aL5E0ddK5VKLl++zOHff8fD0+O53sPUxJR63o/O3CaUj8a/4hgbGzNz5ky+mj2bnJwcTZdT42VmZjJnzlw83D3KvG60voE+9evXr+TKBKFsHBwcGDx4MNu3byfq5k1Nl1PjFBUVcf36dZYtX07duq4YGT15Pv8n0dPTw87OTjwRUgE0HtJSqZSA5s1p0aIFy5Yt13Q5NZpSqeT48T+JjIzEzcO9TMfo6uri6eFZ5kAXhMqmp6dHkyZNGDBgALO+mk1ubq6mS6pR7ty5w8aNm1AVqHB+zttcpqameNcrW0+d8HQaD2kofixiwoQJ7Nu3j4jwcE2XUyMVFRVx9+5d5s2bh49vgzLfJ9LX13/i4u+CoClmZmb0ePVVnJydWbRokabLqTEyMzM5evQYp0+fpp5P/eeevMjG2oYGPg0qocKXj1aEtEQiwd7BgS+++IJx4yeIbu9KkJmZyawvZ2FjZ4uNzVPWjH6ARCLBzMwMT0/PSq5OEMrPzs6Od955h9DQMH779VdNl1PtFRQUEBQUxKpVq6jfwOe5JyAxNTWlQYMGYgKTCqIVIQ3F3ao9Xn2Vlq1aMXXqNE2XU6Pk5uaydctWrkaEl3mwGBR3K/o28EVXVyNz3gjCU0kkEurWrcuHH33E6jVrCQwM1HRJ1VZhYSEhISHM/+/3OLs4P9dCOlD836RWrVoPPdctvBitCWko7vYuWfqtIibTF4onUQgOCmLFDytp3KQJUqm0zMfKZDICAp6+fKUgaJKenh4BAQGMHDWK2V/NJiwsTNMlVTtFRUVcu3aNr76ajUxmgIur63Ofy8zMjEaNGj3XYDPh8bQqpKH4EYvvFyxgyZKl3HhgXV+h/EomLZk0eQo+Pg2euRTlg/T09GjcqPFzrXolCFXJ0NCQTp068eZbbzF9+gzi4uI0XVK1UTKS++vZX5Ofn4+be9kGlD5Oyb1ovyZikpmKpHUhraOjg7u7O1988QXDhg0nOjpa0yVVS0VFRdy5c4cPPvyQWlZWuLiWb5SmgYEBbcoxyb8gaJKxsTFt2rTBzc2N8ePHl3nt6ZddbGwsi5cs4W5qSrkGlD6OhYUFAQEBohVdwbQupOH/a073HzCA9957n5SUFE2XVO3cu3ePSZMnk5ubS32f8j3jrKuri4+Pj2hFC9VCeno6K1as4JOPP6Zbt274+wcwZsxY0aJ+iqKiIm7cuMHUadO5fv0GjRs3fqGA1tPTw9XFVdyLrgRaGdJQ/OjPhAkTcKhTm7feGipGfJdDZmYmUz79jIQ7Cfg1bVruHz4jQyM6tO9QSdUJQsVQKBTs2rWL3r17s3zZMho3bkyPV19lzNixvPbaa4waOUrco34MtVrNlStXmDxlCsnJyTRu0rhcY1Uex9rKmnbt2okpQCuBVn+iBgYGfPXVVxQBbw0dJoK6DLKyspj11VdERETQ1L9ZuX9o9PX1ad6iObbPMVevIFSFvLw8jh87xuA33mDC+PHcio6mrpsbH40eDRSvlfzW0KG88957fPrpZ5w7d17DFWuPgoICzp49y6TJk1EVFvJKw1deOKCNjY15peErT5xiVHgxWh3SOjo6uNV1Y8TIEWRmZtKrV2/R9f0UaWlpjP5oNGfPnqN5i+blfnRKR0cHGxsb2rdrX0kVCsKLKSoqIi0tjb/++qt0YKmdnR0jR458aApKY2Nj+vbty9ixY5kxYwbbt2/XVMlaIycnh0MHDzJp0mRMzczw8fF54Zavrq4ubnXdxO+MSqTVIQ3F/xN079ad1m1aY2hoyMABA8Vgsn8pGcU9ctQo4uLjadGyxXM922xgYEC3rt2QyWSVUKUgvDiJRIKpqSnOLi5IpVJsbWzwDwigb9++j+wrk8no1r078+bNY8/en5k0eTKZmZkaqFrzkpOTWbRwEV/O+gp3Tw88PJ5v0YwHSSQSHBwcePW1V8XEJZVI60Maimew6d2rN97162Fla8OQIW9yLSJC02VpheJVrW7z7nvvk52Tg1+zps/VfaWrq4uXlxcNGoip/ATtlZmZyY4dO9izezcrVqxgxMiRfPzxx0/8f15XVxe/pk1ZvHgxyjwlQ4cO4+pLdJ9arVYTFhbG+PHjOXzkD1q1aY2Dg0OFnNvKyoounbtgayNujVUm6axZs2Zpuohn0dHRwdbWFnm6nNzcXHR0pKxatQoTE1MaNWqo6fI0pqCggGPHjvHBBx9Sq1YtfHx8kEgk5T6PRCLBxtqGoUOHim/EgtZ6MKAXLlxI8xYtaOLnh729/VOPk0gkmJub07RZM6Kjoli+YgWFhSp8fHzQ09OrouqrXkZGBju272D69BkYGMpo2LAh+vr6FXJuY2NjmjdvTssWLSvkfMKTSYqKioo0XURZZWVlsWr1KpKSksjKzCI4OJgmTZqwaMH3mJqZabq8KpWZmcnChYvYu3cvjf2aYGdn99znMjIyYvjw4Xi4v3gXmCBUhn8HtO8rrzzXeZKTk/npp5/44/ffMTAw4IsvPqdDh5r1JEN+fj6BgYEsWLCQhMQE6vv4PPc0n48jk8lo0qQJfXr3qdFfcrRFtQrpoqIi4uLiWL1mNUqlkvz8fEJDQlHm5bFy5YqX4hk9tVrNzcibTJ4yhZTUVJo2a/pC95ANDAzo3KkznTp1qsAqBaHiVFRAw/9Xg9u8ZTNBQUHExcTQ1K8pkyZPwvUFpsPUBmq1mri4OFauWMnBw4epX68eTi7OFfpYlJ6eHj4+Pgx6fZAYu1JFqkV3dwmJRIKJiQlGxkZEREQglUqxt7enQKVi9arVJCYmEuDfrMZ22WZlZfHDyh+YOHkylrVq0bhJ4xf6JiuVSvH29qZv377P1U0uCJWtIgMain+HGBsb4+ziTFJSEiamptyMimL9+vXcjLqJh5sbltVsEh+1Wk1sbCzLli5j5swvyc7NpYlfE6xtbCr051oqleLu7s4bg94Qs4pVoWrVki6hUqk4cuQIf/71Z+m2vNxcwsKukpmRwZczZ9C3Xz8NVlixCgoKOH36NDNmzKSoqIgGr/iWax7ux9HR0cHFxYW3h7+NiYlJBVUqCBWnogP6QYWFhcTExLBt+zbS09PJzc0lKvImKakpdOrUmdEffvBC81hXhcLCQqKjo1mzdi2HDh3GobYD7m5ulXLrTyqV4u7mzqBBg7C0tKzw8wtPVi1DGoqDa9/+fVy4cKF0W1FREakpqYRfvYqzszOfffZptV7FqbCwkIiIayxevJhz587R4BVfnJycXvi8EokEOzs7Phj1wQuHvSBUhpKA3r17N4sqOKBLFBYWEhsby46dO0hLS6OoqIjc3Fxu3ogkKSkJX19fhgweTOfOnTDWoi+yCoWCkydOsnPnTgKDg6nr6opLXddKa93q6uri7u7O6wNfFwGtAdU2pAGUSiXbtm/j6tWrD21Xq9VER0UTHR2Fp7sHn33+WbUK68LCQq5du8aCBQs5c+YMHl6eeHh4VMi6zhKJBGtra95/7/2HJn8QBG1RFQFdomSOgZ27dpKQkFC6XalUknAngTt34snLy6Nrly688cYb+Pn5vfAMXc9DqVQSGhrKrl27OHLkCPr6Bjg5OeFQp3al3hvW09PDp74PAwcOFF3cGlKtQxqK79Nu2LiBmJiYR15TqVTcib/DzZs3sba2ZvKkSXTo0F5r71mrVCqCgoJYs2Yt58+fx8vLC1e3uhX2S0EikWBhYcGwocNwdnaukHMKQkWqyoB+UGpqKnt/3ktkZORD24uKisjJziY2Lo7EhETy8/Px8/OjY4cOtGnTGk9Pz0qpp6CggNjYOE6dOsWxY8e4cuUKEokEJ2dnHB3rVMnTLDKZjMaNG9O3T18xiluDqn1IQ3H3z+49ux9pUZdQq9XEx8URGxNLVlYWffr0YdDrA/Fr2rSKK318bdHR0ezauYt9+/ejpghnZ2dcXV0r9Bu7RCLB1taW4cOGv9DjWoJQWTQV0CXkcjnHjh/jwoULqNXqR14vKipCmackJTmZe/fukZ6eTkF+Pt716uHh6YmHmxt169bFta4rderUKdMzyQUFBcTHx3PzZhS3b90i6tYtrl+/TmxMDMp8JXZ2dlhaWmJja4uxsXFlXPZjmZqa0r5de9q2bauRngPh/2pESENxd9D+A/sJDAx84j5FRUVkZ2dzKzqaO3fuYGRoxMCBA2jVshUBzQOqrIWtUqkICw3l7xMn+e3gQeLiYnGtWxcnJycsLCwq/P10dHRwdnLmP//5j1h+UtBKmg7oEmlpaezes5uIiIhnth6LiorIz89HLpeTmZFBXl4eOTk5ZMgzSEtLK53CVCaTYWJigomJCbm5ucXhXlBAeno6UqkUCwsLLC0tMTYxwcBAH1NTM8zMzTTSvayjo4ODvQO9evWqtF4CoXxqTEjD40d9P0lRURHJd++SkJBIWloaGXI5DRs1pEOHDgT4B+DjU79CBkkUFRWRlZVF5I1Izp8/z18nTnDp0kVkMhm2trbY29tj7+BQaUu8SaVSPD09GTJ4iBjFLWglbQnojIwMtm/fzs979zJx0kTCIyIeuk9dXkVFRSiVSlQFKgpUBRQUFKCrq4uBvgE6Uh0MDQ0rsPoXp6+vj7e3N7179RZf5rVIjQppKB50dfHiRfYf2I9SqSzzccq8PJKTk0lNTSP93j3kGRlIpVLc6tbF29sLn/o+WNaqhUQioVatWhgZPfwDlp9fwN27dykqKkKens7NqJtci7hGVHQ0Obk51KpVCwsLS6ysrLC1tcXIuPK/Jevp6dGieQteffXVCpsOUBAqUmZmJjt37mTXrl0aDejs7GwOHTzI5s2bmTt3Lg18fcnIyOD48eOcv3CewsJCjdRVVSwsLGjXth0tW7YU95+1TI0LaSj+BpuYmMiWrVtITk5+7vPk5eWRmZGBXC4nNy+PwgIVUHwfSaUqeGhfHakUA/3i7nKprhSZTFbabaWJFqyJiQn9+vWjcaOaPwubUD2VBPTOnTtZvGiRVgV0CVWhitjYWP744w+ioqI0Ul9lkslk+Pr60q1rN9F61lI1MqRLKBQKfvnlFy5euqjpUqqMjo4OderUYfAbg5+58IAgaEp1COgH5eXlcenyJY4ePVojlruUSqU4OjrSrVs3vL28NV2O8BQ1OqShuPv78uXLHDx0sEb8cD2NTCajTZs2dOrYSXRvC1pLmwL68KFDbNq06akB/SCFQsH5C+c5e/Yscrm8CqqsWFKpFAcHBzq078Arr7wiRm5XAzU+pEsoFAqOHTvGmbNnHvt4RXVWMqdur169qO1QW9PlCMITaVtAb9y4kXnz5pUpoB+kUCgICg7i/PnzpKSkVFKVFUdPTw8nJyfatmmLj4+PCOdq5KUJaSh+JvnOnTv88usv3Lp1S9PlvLCSdXJ7dO+Bn59fpY0QF4SKUFMC+kF5eXlcu3aNixcvcjPqJvn5+RVY6YspWZCoQYMG+DXxw9XVVfyOqIZeqpAuoVaruXHjBsf/PF4tw1oikWBpaUmb1m0ICAgQS8YJWk+bAvrgb7/x07p1LFyw4IUC+kFFRUVkZGQQGhbKlctXiI2L1ViPnYGBAV6eXvj5+eHl5aW1MywKZfNShnQJtVpNVFQUJ0+dJCIiQtPlPFPJ418dO3SkWbNmFTKXtyBUtqysLHbs2KE1Ab16zRpmzZpF27ZtK+V9ioqKyMzMJPJmJJGRkURHR5Oenl4p7wXFC2DY2tji6eWJp4cnLi4uWvcMtvD8XuqQLqFWq0lMTOTS5UuSaIQ1AAAgAElEQVRcvHhR6waYyWQy6tevT1O/phW20IYgVIWXLaAfp7CwkLS0NGJiYoiJiSEoKBCJRIJER6dc3eMSiQQDAwNsbGyK/1jb4FDbAcc6jpUyU6GgHURI/4tarSbyZiSXLl0iPDycnJwcjdShp6eHh4cHjRs1pkGDBqJLW6h2SgN6xw4WL178Ugb0v8XGxLBmzRrad+hAp06dyMrKQqlUolAoUBepUSqV5ObmoqOjg7GRMXp6ekilUkxMTdDX18fMtPIX1hC0i2iS/YuOjg7eXt54e3mjVqu5ffs2kZGR3Iy6SVxcHCqVqtLe187ODk/P4i4rd3d38RiVUG09GNCLNBjQOVoU0P9WMm83IBa9EZ5IhPRT6Ojo4ObmhpubG92KupGXl0dsbCzJycmkpKaQmpJK0t2kcnWPSyQSjIyMsLayxtbWFjt7O6ytrHF0FF1WQs3w74B+RZMBffCgVga0IJSVCOkykkgkGBoa4u3tjbf3/2foKZlEPyc35/7aszmP3GeSSqWYmZshofieklg8XaiptCWglUol/5w+zRoR0EI1J0L6BUkkEmQyWek9Y6taVhquSBA0Q5sC+uTJkyxZvJiZX34pAlqo1sST7YIgvDBtC+jFixbx+RdfiIAWqj0R0oIgvBAR0IJQeURIC4Lw3LKysopnEhMBLQiVQtyTFgThuZQE9Pbt21ksAloQKoVoSQuCUG4PBfSiRSKgBaGSiJAWBKFcHgnohg01UodSqeTUyZN8N28e748YIQJaqJFESAuCUGbaFtBz585l9JgxDBgwQCN1CEJlEyEtCEKZaGNAjxEBLdRwIqQFQXgmrQ3ogQM1UocgVBUR0oIgPJUIaEHQHPEIliAIT1QS0Nu2bWPJ4sUaC2iVSsXFixdFQAsvHdGSFgThsbQqoIODmScCWngJiZAWBOER2hbQ3377LW+//bYIaOGlI0JaEISHaFVAX7woAlp4qYmQFgShlLYF9Ddffy0CWnipiZAWBAHQzoB+5513REALLzUR0oIgoFAoREALghYSIS0ILzltC+ivZs2i/4ABIqAFARHSgvBSKwnorVu3akVAfzlzJj179eLdd9/VSB2CoG1ESAvCS0obA7p3nz6MHj1aI3UIgjYSIS0ILyFtCuhLly6JgBaEJxAhLQgvGW0L6JkzZoiAFoQnECEtCC8RbQnowsJCroaFMXPGDHr17v3SBLSOVIq+gQF5eXmaLkWoJkRIC8JLQlsCWq1Wc+PGDebMnUuv3r0ZM2aMRurQBF1dXYyMjMjIyNB0KUI1IUJaEF4C2hTQ169fZ9asWbRr1+6lCmhBeB4ipAWhhhMBLQjVl1hPWhBqsJKA3rJlC0uXLBEBreXy8vIIDw/nwoULFKpUeNerR5cuXcp9nszMTM6ePYtSqaRPnz6VUKlQVURLWhBqKBHQ1YtcLmf9unW8//77XDh/nsTERGbOmMGoUaOIj48v17mys7M5/c8/HD9+vJKqFaqKaEkLQg2kTQF948aNhwI6NzeXs2fPsn/fPpJTUnB0dOTNN9+kadOm5Tp3bm4uJ06c4OiRI8yYORMLC4tKuorKp1KpCAkJYfOWLYwZM4YRI0YAEBYWxqSJE/njjz94//33NVyloAkipAWhhtG2gJ45YwbNmzdnzJgxZGdns+/nn/n2228ZMmQIPXv14tTJk0yYMIGJEycyYMCAMp+/sLCQ5ORkLl66VIlXUTUUCgUhV65gKJPRo0eP0u0eHh4sXbYMiUTyUFe4jkRCQPPmNG7cGIC0tDQOHTpEtkJBw0aNqFu3bun2zZs3k61Q0KhRI1q2agVAamoqhw8ffmS7oH1ESAtCDaJtAT1t2jRe8fXl408+ASAxMZG1a9fyxuDBfDlrFgBNmzZFKpXy89695QrpmiQvL487d+5gZm6OiYlJ6XaZTIa3tzcqlYrTp08zY8YM/vPmmxSq1UyePJnPP/+c2rVrM2nSJGo7OGBjY8OevXt5++23ycnJIfDCBQz09bG0tGTr1q3Mnz+fWlZWfDplCiqVCl9fX/b+/DOff/45nTt31uAnIDyJCGlBqCG0NaBnzJyJVColPz+fqKgocnJy6PJAIFhbW/PV7NkAD3WFp6Wl0bBhQz748ENMTEy4FR3Nzp07Cbt6FU9PTz744AMAUlNS+O6777h16xaenp5MmjQJExMToqOj2bVzJ1evXsXTy4uJEydqdZe4VCrF9IGA/jc3NzeWLl2Kr68vgYGBHD12jCtXrnDj+nWMjIxYsHAhFBVx5swZcnNzkerq0sTPj5/WreP69eukpqYSFByMlZUVubm5rFu/Hj09PdauXcuOHTtESGspMXBMEGoAbQ9ogIKCAlKSk9HT08PG1vaxx8fHx/PdvHkEBAQw77vvuHbtGnO+/Zb4+HhmzJxJRmYmQ4YMIT4ujjnffgtAfn4+KpWKQYMGERkZyZIlS7h79y6LFy0iIiKCfv36kZqSwtSpU6vscygvmUyGvb09d+7cQaFQlG5PTk5m6dKlLFmyhJSUFObMmYO/vz/ffvMNd+/eJTc3l7t37+Lo6IiFhQUWlpa81rMnrVq3xkBfHzs7u4feR6FQEB0djZ6eHrt37WLD+vXcuH6dO/HxYoIVLSVa0oJQzSkUCnbt2qXVAf2gQrWa7Ozsx57D09OT/QcOEB4eTmBgIJmZmSCREBERQVxsLLNmzcLDw4NmzZoRHR3N7du3sbO3Z/z48RgYGBAWGkpSUhLp6elcunyZFStW0KBBA0zNzJg7Zw7Xr1/H29u7sj+KcjMxMaFho0Zs276d33//nREjRqBSqYiIiGDPnj28PnAghw8fxtTEhEuXLhEZGcm333yDoaEhtjY23I6JQS6Xk5+fz88//0xuTs5j30cqlaKnpwcSCU2bNaOwsBAPDw9UKhXm5uZVfNVCWYiQFoRqrCSgN23axLKlS7U6oI2NjfFr2hSlUsnt27dLR3PL5XI2btzIkSNHmD17Np9//jlmpqb4+fkB91vgKSno6+tjb2+Prq5uacvx9u3bxd3Epqbk5+cDxZ/JxeBgUlNSmDd3bum2kvNoY0jr6urSoEED+vXrx+JFi4i6eROpVMrRo0fx9fVl+Ntvs33bNv6MiWHz5s1cDQsj7OpV3NzdadWqFb/8+iszZszA2MiIS5cvM2rkSNLT0x95H3Nzc7y8vNi/fz8nT54kX6kkJCSEzs/xLLZQNURIC0I19WBAL9VgQBcVFREXF8eC779/agsawNLCAn9/f3766Sc6d+6MiYkJkZGRHNi/nw4dOhAeHk5Bfj4/rVuHUqlkwYIFZGZm4u/vz4YNGwgLDcX3lVfYsnkzx48fp/9jBprJZDLc3Nyws7Nj9tdf4+HhQXR0NGfPnMHX17eyP47nZmVlxfjx4+nSpQsXLlyAoiIWLVpEq9atAXhr6FBc69Yl5vZtunXvzhuDB5feh1+yZEnpveghb76Jm5sb5hYWSCSS0nP37dePunXr0qBBAzZu3MiZM2fIy81lwMCBpaPEBe0jQloQqqF/B3RDDQf0N19/TZ06dZ4a0AA2traMHTuWGdOn0759e1ycnYmJjaVD+/YMGz6ce/fuITM0ZMzo0VhYWBB29Sp6enokJCTQt29fxo4bh5OjI5lZWUyYMOGh+7cldHV18fL2plOnTowcMQIrKyuysrLo1auXVg8cg+IvGH5+fqW9CA8yMzPj1VdffWhbyX7W1ta4u7s/9NqDM5VZW1vTv3//0n+7u7s/sr+gnSRFRUVFmi5CEISy07aA/nr27DIF9INKRnrL5XLq1KmDs7Nz6WvZ2dmEhITg6OiItbU1MTEx1KtXD5VKRVJSEnFxcTg6OuLg4EBSUhLJycn4+fmhVCqJiYlBrVY/dn8nJ6fK+ijKLCkpiS1btmBvb8/QoUM1XY5QDYiQFoRqRBsDunbt2sz88ssyB/TLTIS0UF6iu1sQqgkR0DWXSqUiMTGR2NhYbGxs8PLyKn0tMzOTy5cvY2ZmhpubG+Hh4Tg6OuLo6KjBioWqIp6TFoRqQAR0zZabm8vRI0cYNmwYy5YtK92enZ3NwYMHefedd1i3bh2RkZFMmjiR2JgYDVYrVCXRkhYELadQKNi9e7fWBPTsr77C3sHhuQI6NTWVzZs2YW1tzbDhw0u3y+VyfvvtN1QFBXTo2JHAwEAc7O1p07ZtRV+GVsvNySH86lXi4+NxdHQkPT2dU6dOlb7etGlTTp85o8EKhaomWtKCoMVKAnrjxo1aEdBfzpyJzNCQadOmPVcLOjk5mfnz57N69WpiY2OB4q7eq1evMmXyZDZs2EBeXh6RkZEkp6RU9GVoPX19fQyNjAgODgaKv7wEBwWVzhwWHBxM61atOHP6dOmCGydPnuTy5cul58jMzOTkyZOcO3eu3EtcCtpHtKQFQUs9FNBLlmg0oOPvB7SxiQn//e9/MTQ0fKFzKrKzCQwMxNnZGYVCwYXz50tfMzc3p2fPntSqVetFS692LCwtadSoEWFhYXTv3p2oqChUKhU9evQgXS4v3U8ul7N2zRpW/vADjRs3JiU5mddee42WrVoxbdo0itRqrG1syM7OZs6cOeI56GpMhLQgaKFHArpRI43UURLQMyswoI2NjfHy9OTc2bMMHDiweJnGkBD8/PzIzs7m7t27LFywgFatWzNs2DBOnTpFRHg4JiYmtG3XDg8PD2JiYjh27Bh5ubk4OTvXmNWzzMzMSmcEi42NJTIykkaP+W+fkpLC+fPn+eijjxg1ahShoaFcunSJq1evoqOjw4ZNm5DJZA91lQvVk+juFgQto40BbWRsXCEBDWBkZISXlxdXw8ORy+VkZ2cTefMmLVq2fGi/7OxsDhw4wOzZsylUq7kaHs748eM5duwYX3z+ORfOnye/oIANGzawcMGCF65LGxgaGuLh4YFareb48eNcv3aNgObNH9nPxsaGdu3asXXLFnr17MnhQ4fw9fWlY8eOmJuZ0blTJ6Z+8QUFBQVYW1tr4EqEiiJa0oKgRbQ1oL///vsKCWgAAwMD3N3duXT5MkePHiVDLsfAwABXV9eH9lMqlcTFxmJna0unTp3w8vIiPDycwsJCYuPiGDZsGK+//jp9+/ZFrVZXSG3awNTUFA93d86dPUtsbCxDhw0jMSHhoX2kUikNGzVi67ZtZGZmsn//fiZNnMiUTz9lxsyZuLm58dtvv7F+/XpCQ0L4+ptvNHQ1wosSLWlB0BLZ2dlaEdAAd+/e5b///W+FB3QJUzMzmjRpwvHjx4mNi6N9u3aP7GNubk7ffv3w9PLik08+oWPHjhw/dgwzMzPGjx/PqVOn6NKlCzNnziwdhFYTmJmZUbduXU6cOIGbm9tDz0yXSEpKYvmyZezcsYOMjAxsrK1Rq9WEh4fz2WefcfbMGfT19alduzZGxsYauAqhooiWtCBogezsbHbt2qUVAZ2cnMzChQspVKsrJaABjAwNcXdz4+iRI1jb2PD+++8/snxlVlYWoaGh9Ondmzlz5nDx4kU+/+wz5HI59X18WLVqFYWFhaxYsYK5c+cSEBCg9XNzP4mOjg529vb4N2uGq6sr3Xv0ICwsjNcHDUJfX5+6bm44FxZiZmaGf0AATfz88PDwYMeOHaxZvRoXV1dWr1mDk5MTVrVq8dNPP2FqakrHjh3p3aePpi9PeAEipAVBw0oCesOGDSxbulTjAf3999+TnZ1daQENxV267h4ezPvuO6ysrQkICOCvv/56ZL+EhAQWLVrEoNdfJzUtDSQSvL29Wb9uHYGBgTjWqUNkZCT16tWrtgENxYPpevbsSc+ePYHidbVXrV5d+vo777xT+vfFixeX/r11mzaPnOuj0aP5aPToSqxWqEoipAVBg162gLa1teXDDz/ExdUVMzMzZs+ejYWFBTY2NjRo0IARI0bg6upKv/79cXFxoV69enh7exMRHo6bmxsffvghDg4OtO/QgWPHjlGQn8+wYcPo1q1bhdcqCNpALLAhCBqiTQGdkpLCf//730pvQb/sxAIbQnmJgWOCoAEioAVBKAsR0oJQxbQxoBUKhQjoaiw7O5vffvuNz+4PrBNqDnFPWhCqkLYF9Lx580hMSOCHVatEQFdjhYWFJCUlceWBObyFmkG0pAWhimhjQCckJLB8xQrMzc01Vkt5XA0LI8Dfn3/EdJfCS0K0pAWhCpRMVKJtAb1ixYqXciELbSSXy/nt1185dvw4OhIJ3bp1o1///oSGhvLPqVMoFArCw8OpV78+EyZMQCaTERwUxI4dO0hPTxfretdQoiUtCJWsJKDXr1snAlp4rLy8PE6ePMnqNWsYM2YM748YwaZNm9i0cSMhISGsWbOG7Jwc+vTtS2BgICtWrCAyMpLp06djbGLCaz17cjMqStOXIVQC0ZIWhEr0UEAvW/bSB7RcLmf79u0cOHAAmYEBOjo6zJk7F0tLS5YuXUpUVBRBQUHo6+nx/vvvM3rMGE6cOMGypUsJDw/H0cmpymuuCjKZjD59+tCxY0eCgoK4GRlJYWEh2Tk5mJmZUadOHcaOHYtUKuVaRATR0dGEhoYi1dVl7NixmBgbk5aaysGDBzV9KUIFEy1pQagk2hTQaWlpLF2yROMtaIVCQWRkJNOmTmX1mjV4eHqyaNEi8vLyuBoWRqFKxaFDh/jmm2/YvXs3R44cYffu3fg1bcqx48fp1rWrRuqubHl5eRw8eJCOHTuyd+9eYmJiHnpdKpViYmJS+u/CwkJycnLQvb9dRyrF0MioqssWqoAIaUGoBNoU0HK5nPXr1nEzKkrjXdy2trYMHz6c8IgIVq5Y8dAAMDMzMzp36YKXlxf16tVDrVaTlJhIaEgI3bt1w93dvcasG/1vcrmcC+fP07JlS5YvX87QYcMwfiCU/83MzIxmzZpRBISHh5Odnc31a9eqrmChyojubkGoYNoW0D+uXUtwcDArVq7UaECrVCouXbrE+PHjeeONN/APCCA1NRVVYeETj5FKpZiYmlZhlZphamqK7yuv8P333zNu7FjuJCSQlZVFUFAQDV955bHHODk50bVrV8aMGUOd2rW5dv06Hu7uVVy5UNlESAtCBRIB/WRKpZLIGzfQ09Vl0KBB6OjosGvXrqc+n21mZoZvgwb88ssv1Pfx4eeff67CiquOsbEx/fv3p0WLFiQlJeHp6Ymenh63b9/GzMyM7j16YGFhgUwm4z9vvYVEIsHKyoqPP/6YwYMHlx5TnRcZER5PhLQgVBAR0E9nbGxM127dCL54kd69e9OoYUOsrK0JCQkhODj4scfY2toyYuRIvv76a5o1bYp3vXo0a9asRq6RrKuri5OTE04PDI5r0KABQOk2mUyGt7f3U48RahaxwIYgVIDs7Gz27t3L9m3bWLR4MfXq1dNYLdoY0EIxscCGUF6iJS0IL6gkoHds386q1atxcXHRWC0ioAWhZhEhLQgv4MGA/mHVKo0H9JrVqzl56hTr168XAV0NqVQqYmNjOX36NKkpKVjb2NC7d28sLCxIS0vjr7/+oraDA61aty49JjMzk7Nnz5KXl0ffvn1LtyckJLBzx47Sf0ulUlzr1qVPnz6lxyiVSvr06VPm+vLy8ggJCSHyxg169e5dbaaTrc7EI1iC8Jy0MaBPnDjBypUrsbGx0VgtwvPJzs5m37599O3bl19++QWFQsHOHTsYOHAgx44d4969e/z6669E/OtRq+zsbM6cPs2ff/750PaEO3dYu3Yt0bduAXAnIYGvv/6auXPnolAoOP3PP48c8yxKpZLLly+zbfv2F7tYocxES1oQnoO2BvQPq1bh7OyssVrKIj8/n5CQEPbu3UvUzZuYmJrSq1cvBgwYgFwuZ9++fdxLS2PS5Mmlx+Tm5nLixAmO/PEHM7/8snQUc1JSEkuWLCHq5s3SfW1sbHh/xAjq16/PiRMnOHrkCDNmzizXyOfo6GgWLljA+yNG0KRJk4q7+Ke4efMmc+bMoU/v3nw7Z05pHdOmTWPzpk2MHTeu3Oe0srLiP2++SctWrUhNTcXS0pITf/9Nvwda3C8qNzeXe/fuUadOnQo7p/B/oiUtCOWkjQH9999/V4uAzs3N5fDhw4waNQqlUsnw4cNp3LgxX375JR988AEFBQXExsZyIzLyoeMKCwtJTk7m0qVLD23Py8vj1q1buLi6MnbcOIYNH44yP5/p06dz+/Ztku/efeSYslAoFAQFBZGTnf1C11tWcrmcUydPUsvSko9Gjy7dXrt2bYYMGcL1GzcICgoq3a5Sqbhx4warVq1i65YtZOfklOl9dHV1MbewwPxfX1jS09PZu2cPK5Yv5/jx46XbMzIyOHToEEuXLOHXX3996JiUlBTmz5/PoEGDSE1NfZ7LFspAtKQFoRxycnK0MqBXrV6t9QENkJiYyPLly/H392fhwoVA8ZceS0tLli1d+lxLUOrr6eHh4UG7du1QqVRYWlgwadIkYm7frpCac3JyCAsLoyA/n9Zt2lTIOf8tLy+PO3fuYGZu/tD0nzKZDFdXV6RSaen1FBQUcPr0aT7++GMaNWyIkbExf/z+O716937kvHK5nF9++YVz586RdPcuFy5c4JNPPnlon7i4OBYsWEDkjRs0bdqUo0ePEhEeTp++fVm4YAE3b97Ez8+PP//6i9CQEKxtbMjKzOTgb7/x26+/Mn/+fBpp8HHDmk6EtCCUUU5ODnv27NGKgM7IyOCnH3+sVgGdn59PZGQk8vR0hr71Vul2Y2NjWrduzY4dOzh2/Di2trbA/+9/bt2yhbS0NAwMDJ75Hnl5eURHR2Mgk+Hi6kpycnLpa6mpqWzauJHAwEBcXF1599138fb2Jj09nZ07d/Ln8ePY29szZuzY0mPupaezevVqDh8+zHfffVeBn8bzy8zMJCgoCC8vLzZs3EjM7dsUqdWP3bewsBBFdja2gLGREZYWFhw8eBB7e3ugOPCvXbtGaEhIaU/M4cOHWb5sGaZmZly5coXFS5bg4eHBxYsXiYmJIScnh+hbt9iydSsDBw6kRcuWVXj1Lx/R3S0IZVAS0Nu3bdN4QCsUCvbt21etAhqKAyElORk9PT1s7gdxCZlMhquLC0mJiaXbYmNj+XTKFAxkMvr170/kA/edH5SZmcmWzZt5Y9Ag3hwyhOXLl9Ovb9+HJvhITk5mxfLlBF+8yJAhQzAxMeGTTz4hODiYJYsX88+pU6Xbp0yZglwuR6lU8s+pU2zfto0pU6ZU6r1pmUxGnTp1yMzIQKFQlG5XqVSkpaVBURH169cHir/sZGZklAatvoFB6Rebfyu5J/3JxIl8MXUqo8eMIfzqVeJiY4Hi2w+3b9/GwMAAOzs7ZDIZjo6OZGRkcPnSJQyNjHB1dcXY2Ji2bdvS+35r3cTYGFsbG86ePUvkv25NCBVLhLQgPMODAa3p56AVCgV79uwpvn+4cmW1CegHlYT1I9tSUjC9P093bm4uoSEhqNVqxo8fT/fu3R9qfT9IZmhIi5YtGTtuHB9/8gmDhwxh+/btHDlypHSf9Hv3CAoK4u2336Zvv34MHjwYExMTjhw5QmBgIANff50BAwcyddo0pk+fDhQPStu6dStOzs50reTVtywsLGjbrh330tP5YeXK0u137txhy5Yt2Nnb43N/9jHD+4Eul8uRy+XkK5UP9RiUh6GhIa6uriiVSu7evUteXh7x8fGYm5vTuEkT8u9vz8jIYM+ePcybNw8Adw8Pvpg6lcLCQvbu3fviH4DwRKK7WxCeQgR0xTE2NsY/IAA9fX1u375N23btSl/Lz88nIyODli1bkpmVhVqtJjsnB6lUiqmpKTo6Ok9civHBe9IAbm5uXLl8mVu3bmFjbV18/vtfAozun0NXVxeZTEbCnTukpaVhe/+RNRMTEwICAggJCcHGxoaOnTpx4cIF1q5dy8iRIyvz48HDw4OpU6cyZ84cEhMTqVu3LufPn6dQrWbu3LkY358K1cLSklatWvHLr78ydepUAI4cOfLMe9JZWVkEBwdTr149WrZqxZUrV9DT06NevXo0btKE6dOnU8/bm5CQEPr370/Hjh0JCQkp3X41PJy2bduWntvZ2Zk+vXuzZcsWOrRvL7q9K4kIaUF4AhHQFc/CwoLmzZuzYeNGfBo0oGnTpiQmJDD/u+8oApr5+/Pnn38WB7q/P+vWrSMsNBTvevWICA8v03sU5OeTnJyMyQPze5uZmdHEz4/w8HBatGhBYmIiiYmJ9O/fH1VhIVfDw2nm78+xY8f47/z5TPn0U4yMjOjUsSPW1tYcOHCAHj16VOoc2SWLbDRt2pTTp0+TmZHB2HHjaNGiRelkJn379sXNzQ1PT0+WLFnCmTNnyFcqGTlyZGmIl6hdpw7vvfde6b+trKz4aPRoWrZsiUQioV379kgkEpycnJg+fTp/Hj9OSkoKr776Ki1btQJg+rRp/PnnnyQlJdG+Qwdat25NSEgIFubmxSHdty8GMlmlfSaCmLtbEB5LBHTluXv3Lt9++y2HDh7E19eXxMREateuzfQZM3B2dmblypUkJCTw3XffsXHjRtavX4+ToyMR167h5OjIvv37S595vn37Nh9PmEBaWhoODg7k3w/oevXrM2XKFAIvXGDDhg1s2bqVc+fOMXv2bFxdXJDL5XTq3JnJkyfz+++/l27PysqiV69edO7ShVEjR7JgwQJqWVnx0Ycf0rlLF2bMmPFC1y7m7hbKS4S0IPyLNgb0nt27WfnDD9U+oEuoVCqSkpK4ffs21tbWpQuSKJVKYmJiUKvV1KtXr3S/hIQEvLy8HpmQJDc3l/DwcLLvP8+so6NTer6SY5OTk/Hz8wOKP8/Q0FAcHR0fahUrFAquXLmCtbU13t7eKBQKwsPD8fLywtDQkOjoaPLy8l548JgIaaG8REgLwgO0LaB3797N9m3bWPvjjxqtRagYIqSF8hL3pAXhvpKJSrQpoDdu3MjSJUtEQNcQ+vr6WFpaPvdobOHlIx7BEmTo3S8AACAASURBVAT+H9Dbtm7VuoBuKGZzqvGysrJY99NPdOvWDblc/sz9g4ODcbC3L/3j6uLCm0OGcOPGDTIzM/nxxx95tUcPMjIyqqB6oTKJkBZeeiKgq052djZnz54l9v5kGmWhVCqJiIjgn3/+4doDK0ApFArOnj1LXFxcZZRapQwNDenarRvffvttmY9xd3dn788/k5iUxIkTJ9DX12f8uHHk5+fTvXt3vv7mm0eOSU1NZd++fVy+fLkiyxcqkQhpodopKCggOjqae/fuvfC5tCmgs7Oza3RAA8TExDB+3LgyzautUqkIDQ1l6NCh9O7Vi+/mzWPIkCFMGD+euLg4Ym7fZsL48RU2R7cmKZVKQkJC2L9vX7lW6yrh4urK5ClTkEqlHNi/nytXrnBg//5H1ntOS0vjwP79XLx4saJKFyqZCGmh2pHL5Xw1a9ZDM0o9D20L6F27dtXogAbw8fEhMCjooYlMniQtLY2ffvoJhULBX3//zb79+9mwYQOJiYksW7q0CqqtOmq1mrtJSQQGBREdHc2CBQvw9vbG29ubXr16cePGjWeew8DAAGNjY65cuUJSUhJBQUGEhYUxdepUBg0aRKtWrVi0cCGBgYHs2L6d9957j86dOnHjxg3S09NZumQJ3bp2JT4+vgquWCgrEdJCtWNgYFC8VvDffz93a1qbAjovL4/jx46xZfPmGh3QAOHh4fg3a8apkyfJz88nIiKCkydPEhwc/Mi+aampnPj7b0aOHImTkxO6urp4e3sz4eOPHzu7VW5uLsHBwVy4cOGh+7o5OTkEBQU9sh2Ku8xPnjypVS3L+Ph4Dh06xIoVKzh16hTdunXj98OHn3mckZERzi4uZD0w93dOTg5Xw8LQ1dVlw4YNfDJxIv7+/gx5800mTZqElbU1ly5eJEMuJyo6mo6dOuHo6FiZlyeUkxjdLWit3NxcTp44gaOTE/Xr1yc1NZWcnBycnJzo2asXo0aN4srly3Ts1Klc59W2gD565AjLly9n0aJFNTqgH5SVlcWG9ev5/vvv8Q8IIDEhge7du/+PvfuOiur4+zj+piy9CygWQEXsCjYUS9QklsSoaPLEJJaIxhZ7zM8eNfaGscTYe69EYzc2sIJdwQaIioD0smzfff5AiMSuyK5xXufknLC7d+53V+WzM3fuDL379MHBwQGpVMr5CxeQSCT5S3ZC7rXbhg0bAnD92rX8x2NiYhg4YAB3Y2MpUaIEZcqUYcKECSgUCvr374+rqyuOjo5EREQwffp0JBIJrVu1wtHJCScnJ2QyGd906sSQoUOL/LP4NysrKywtLBg3bhwdAgJo0KAB/o/f84vk5OQQ9+ABHp6eBR53dHSkyUcf4e3tzc2bN/Mfd3Z2pkaNGhz++28qPH6u09dfF/r7Ed6O6EkLBksul7Nz506+/eYbTp06xfhx4/iyY0eWLV2KTqejXdu2bNu27bXaNMSAnj9/PrNmzfpgAhogLS2N48eP06t3b1auXMms2bMpVarUU9djzc3Nnwqdf0tPT+fPP/8EIyNCQkL4448/yMjI4NDBg2RkZNClc2fWrFnD4MGDcXNzIzw8HABHJycGDBjArl276P799/z111+vNLP6XfPy8mLzli1Mnz4dlVrNmLFj6fHE8p7Pk5OTQ0JiItWqVXul8zg5OeHn58fFCxfYvm0bbk9s4iEYDhHSgsFydHRk6rRpNGjQgB/79aNHz55M+PVX9u3bx/fff09ySgonT57k+vXrr9SeCGjD4ejoyCeffMLWLVto1bIlfwYH4/lEGJuamuLi4pK7AtkTE8MUCgUXzp9n1apVpD0OVKlUyt2YGCpVqsSVK1eIjIykuKsrYeHheHp6kpiYSMcOHejSpQsXL17Mb8vayooqVapgYmLy3M07ippCLmfPnj20atUKGxsb+vTpw1dffkna4x2vnif27l3mzZ2LnZ1d/upqLyORSChbtizuHh7s3buXxk2aPDXRTNA/EdKCwZJKpQQHB5OQkECOTEZg9+54enqyafNmpkyZQnZWFpmZmaxZs+albeUF9Pp160RAGwBjY2MqVa7M+g0bCJozB1OJhGHDhuVfmzY3N6d8+fJYWlpy+O+/849LSU5myZIl/H34MI6Pe90ajYaU1FSio6M5Hx7Ondu3qVKlCk2bNmXt2rUcPHSIKVOnsnbt2ne6J3RhMLewoF69enz66ad8+eWX+NSsyYEDB+jXr99TowxRUVF07NABtxIlaN68OTpgwoQJL7ymbGVlhaWVFYsXLWLXrl0UK1aMph99hJOTE40aNXrH7054E+KatGCQlEolp06dYunSpcyePRtXV1dmzpjBt998w4aNG2nVqhXNmzfnyJEjjBwxgr59+xboiT3pyYBevGSJCGgDkJKSwtq1a/H29uajpk1xdXHB2MSkwE5OxYsX59tvv2XhwoW4lSiBh6cnx48d48KFCwQFBeW/zs7Ojnr16nH0yBFq16lDQkICGzZsoF69ehgbG2NvZ4dWq+XkyZPcvn3bIMPI1taWwB49COzRA4BffvmFX3755bmvr127NvEJCc99vmfPnvTs2ROAevXq5T9epkwZ/vjjj/yfHz58SHp6Ov7+/nh7e7/t2xDeARHSgkFSKpVcu3YNF2dnGjyeyTtx0iR69ujBd99+y/oNG6hatSo1a9bE1dWVmOjoZ4a0CGjDYm1tjZ+fH9WqV8erQoXckY1FiyhdujTz58/P32gDcsO3c5culCxVikMHD3LixAkqVqzIosWLqVWrFnfv3sXPzw+vChVo2KgRlpaWrFyxAolEQr9+/WjRogWPHj1iiUrF1KlTqV69OgP69+d6RASVKlWiXr16uLi4YGxsTPHixalbt+4b3aP8vrp58yZDhwwBI6PXWkRFKFpigw3BIKnVas6cOUOvXr2YMWMGbdq0ITMzkwXz53MuLIxOnTrRvn17Duzfz/Lly1m1ejVOTk4F2jC0gD548CAzZsxg4sSJNGvWTG+1CPqTmprKzp07ycjIYKgBzCQXDJ/oSQsGQ6lUcubMGdauXUupkiX5v6+/ZuCAAQwdMoSrV6/i6eHB0aNHGTR4MG3atAGgXfv2tGvf/qm2DDGgp0+fzqRJk0RAC4LwysTEMcEgKJVKQkJCmDB+PDVr1iTm7l0mTJhAs+bN+W3uXG7dusWBAwcKBPTziIAWBOG/QvSkBYOQnZ3Npk2baNasGd988w3nzp3jXmwsY8eOZezYscyePfup4exnEQEtCMJ/iehJCwZBIpFQwcuLB3FxLF60CK1Wy87gYGKio+nWrdsr32a1Y8cOEdCCIPxniJ60oDcKhYKQkBBuREbi7e1Nh44dkclkdP7uO9atX09ycjJm5uYsWbKEqi9ZCSkvoNeuWcOSpUv1GtAqlYpz586JgBYE4a2JkBb0IicnhzVr1jAnKIhu3boxOygID3d3ugcGogN+++03jI2Nad2q1WsFtL570CqVijNnzjDx119FQAuC8NbEcLegFxkZGaxYsYIZM2fSoWNHjI2NkZiZERcXx9SpU5FIJNT382PM2LEvbOffAf28BU2KQl5A/zphAqNGjxYBLQjCWxM9aeGdU6vV3Lx5k7Nnz+Lp4UHzjz9Gq9WSmZHB3bt3WbRoEVWqVOH777/nu2+/ZeOmTSxatOil7RpaQJ89e1YEtCAIhUr0pIV3KicnhxUrVvD111/zZ3AwvXv3Zs6cOVhZWdG0aVPm/vYb1apVY+rUqcTHx2NsbFxgacgXtWtoAT1+3DgR0IIgFCoR0sI7k5OTw7p161i+fDnz5s5lw8aN9O3Xjx07dqDRaBg8ZAhly5UjPCyMmTNmMH3aNIaPGPHSwDXUgB49ZowIaEEQCpUY7hbeibyAXrlyJfPmzcPPz4+cnBysra25f+8ew376iY5ffsnu3bsJDg4mLTWVKVOn4ufn98J2ZTKZCGhBED4YIqSFd0KlVHLp0qX8n/N2tVq0aBE9f/gBCwsLhv30Ez///DM9f/jhldqUyWRs377doAJ69KhRDB48WAS0IAjvhAhp4Z2wd3BgypQpjBo1ih9//JFvv/2WDRs28PPPP/Ptt98ik8lwK1GC3+bOxdrGhm+++eaF7RliQI8aOZIff/yRgA4d9FaLIAj/bWIXLOGdSk9PZ+SIERw+fJh+P/7IkCFDXrsNQw7orzt10lstwvtH7IIlvC4xcUx4pxwcHJg6bRqftmjBli1bOHv27GsdLwJaEIQPmQhpoVCp1Wqio6NJTU3Nf8zh8dC3r68vgwcPfuWgFgEtCMKHToS0UKgyMjIYP24c+/fvL/C4g4MD06ZN4/PPPycqKuql7RhSQKvVai5evCgCWhCEIicmjgmFytzcnKpVq3Ls2DFatWpVYHtJOzs7xowZ89I2DCmgNRoNERERjB83TgS0IAhFTvSkhbem1Wp59OgRd+/excrKii/atuXy5ctcunjxtdsytIC+fv06I4YPp1u3biKgBUEociKkhbcil8sJ3rmTUSNH0qFDBxYvXoxWo6FDQABbt259rbYMaaESEdCCIBgCEdLCG8u7Vjt69GhatW7NpEmTOHjgAF26diUlNZWTJ09y/fr1V2orL6BXr1olAloQBOExEdLCG9Fqtdy6dYuuXbtibm5O8+bN+eyzz9i0eTPTpk0jKzOTrKwsVq1a9dK2ngzoJUuXioAWBEF4TIS08EaMjY3x9PRk2LBhyGSy/Nnc5ubmtGzZknnz57N4yRIOHjjA3bt3n9uOoQV0RESECGhBEAyGmN0tvJa8vaFPnTqFubk5jRs3BmDC+PEAfPvttwBIJBJq1qyJq6sr0VFRzwxfQwzoYcOG8dVXX4mAFgTBIIietPDKVCoVx48f59tvv+X6tWvs3LGDwMBAvL29GfrTT0wYP54NGzYAoFAoOHv2LObm5vj4+j7VliEG9E9Dh9KqVSt69uypt1oEQRCeJHrSwivLzs5m8+bNdOvWjaFDh5KZmcnkyZMZM2YMS5cuxc7Ojryl4M3NzWnbti1t27Z9qh1DDejWn332RmuLC4IgvCsipIVXptPpyJFKsbWxAXIXJxkyZAjHjh0jIT7+pTtZgQhoQRCE1yGGu4UXUqlUXLhwgbNnz2JmZkalSpVYsXIl165dQ6vVkpqaipGREdaPg/tF8gJ61cqVIqAFQRBegehJC88lk8lYt24dQUFB2NnaUqxYMX5fuJD4+Hg6d+7MZ599xoULF2jUqBF+fn4vbSsvoJcuWyYCWhAE4RWIkBaeSyaTcTI0lPnz5uHu4UG/vn35sV8/VqxcyfXr14m4fp3//fwzzT/++KXtGEpA63Q67t27x6+//ioCWhAEgyeGu4WnyGQyli1bRn0/P86cOUOOTIaXlxcL//gDpVJJYPfu+Pr6MmDgwPcuoGNjY/nf//6Hv7+/CGhBEAyeCGmhAK1WS2xsLEsWL2b69Ol8/PHHTJ48mbCwsPygNjM3JzQ09KVtGWJA//zzzyKgBUF4b4iQFvLlLfUZEBCAi6srAR06MGXqVOrUrs3AgQMJCwvD29ub4ODgZ95a9SS5XC4CWhAE4S2JkBbyGRsb4+HhwZAhQ4iOiuLI339jb2+fH9RDhgx54RKfeURAC4IgFA4xcUxALpfz1+7dbN++nXLlyvHJp5/y07BhjBw1innz5uHn58dvc+dy8+bNlwZuXkCvXLFCBLQgCMJbEj3pD5xcLmfnzp1Mmz6dL9q2xcLCgn59++JWogQ9e/Zk4MCBnD17FolEQrVq1V7alqEF9LBhw6hTp44IaEEQ3ksipD8wKpWKS5cu5Q9by2Qydu/aRadOnahbty4nT52icZMmXLt+HR8fH4YMGUJUVNRL2zXEgB46dCheXl4MGzZMb7UIgiC8DTHc/QFRq9VcvHiRbl274unpyfoNGzA2NsbC0pIzp09z+PBhqlatypgxYxjQvz9Ojo780KvXS9s11ID29vZm8uTJmJiY6K0eQRCEtyF60h8QU1NTypUrh42tLXfv3uW7b79FLpfTrl07zp47h4ODA9OnT+f27dvcvnOHGjVrvrRNEdCCIAjvjgjpD4yNjQ29e/dGYmaGl5cX3b//njp16jBu3DiuXLlCixYt6Nu3LwMHDnzpUp8ioAVBEN4tMdz9gbGwsKB9+/asX7eOKlWrAtCzRw/WrltHmzZtiIqKolSpUu/lLO6hQ4fiXaGCCGhBEP4zRE/6P0ylUnH06FGqVKlCQEAAZ86cAXJ709917syGDRuYPGUKXl5edOncGTMzMxo2bPjeBXRiYiLjfvkF7woVmCQCWhCE/xAR0h8AjUbDjchIBg8aREBAAJcuXaJ9+/aYmpiwe/duJk+ZQtVq1Vi1atVL28oL6BXLlxtEQD969IixY8bg5ubGpMmTMTUVg0OCYYqLi2PBggVERUVx+9YtFixYQHJysr7LEgyckU6n0+m7COHdUalUhIaGMnDgQBo3bkydOnVYsngxjk5OlCtblitXrxISEvJKbT0Z0MuWLzeIgB4zejTFihUTAS0YvLi4OCZNnEhwcDASiYSPmjZl7dq1+i5LMHCiJ/0fJ5FIaNSoEfPmzSMkJIRr165x7PhxvvrqK86ePUvSo0fs2rXrpe2IgBaEt2NjY4OPry8Atra2+D7+f0F4EfGb7QPwZFAPHDgQgKCgIDp37syFCxeoX7/+C483pIAGREAL7yVbW1tq1KiBiYkJNra2VK9eXd8lCe8B0ZP+QDwZ1IcOHWLo0KGYmZmJgBaEImJsbIyzszOVKlXC1saGGjVq6Lsk4T0gQvoDkhfUixcvxt7O7qWvN8SAHj1qlAho4b1la2uLX/36lCtXjuLFi+u7HOE9ICaOCc9kiAE9YvhwjE1MWLhwIWZmZnqtRxDehDQ7m5DQUO7cuUP//v31XY7wHhAhLTwlb2es5cuWGVRAGxkbM3/+fKysrPRajyC8KrlcTlRUFPfu3SMjIwOZTMaDBw9ISEhAYmqKRCLByckJSysrHBwcsLa2xsHBgXJly+Lu4YFEItH3WxD0TIS0UEBeQC9bupTlK1aIgBaEV6DRaEhMSOD06dNcuHiRmJgY7sbEkJycjLu7O+7uZbC3t8fCwoJizs6YmZlR3LU4KpWKlNQUZDIZGenpZGdnk5Kayt2YuyQlJeHm5kZ5Ly+8ypfHt1YtateuLYbJPzAipIV8IqAF4dXodDpSUlI4dvQop06fJjw8HKlUSkN/f/z8/Cjr6YlnWU9Kliz5xudQqVQ8ePCAO3eiuHP7NuHnz3P16lVsbW1p4O9Po0aN8Pf3x+4V5pcI7y8R0gIgAloQXkVWVhZHjhwheOdOLl2+TC1fX5o0bkzjxo0oV778Oz+/Uqnkzp0oTp8+xcmTJ4mMvEHtOnXoEBBA4yZNxPD4f5AI6Tek0+nISE8nOiaGO7dvc/PmTWJjY0lLS0OpUpKYkIhWqyUuLg5jY2NcXJwxN7fAzt4eezs7bG1t8SxbFk9PT7y8vPDy8tLbMJahBXRaaipjx45FJpeLgBb0TqFQcO3aNTZt3Mjx48fx8PCgY4cOtGjZAicnJ73VpdVqSU5OZt++/fwZHExcfDxftGlDhw4d8jfPEd5/IqRfkUaj4drVq5w6dYpTp09z4fx5jI2NKevpSdly5Shfvjyenp44OxfDTCKheIkSGBsbU6pUKbRaLUlJSSgUClJTU5FKpaSnpRNzN4a7sbHcjblLVFQUMpkMHx8fGvj706BBA3x8fN75LGZDC+iMjAymTp1KUlKSCGhBrxQKBRcvXmTxokVcv3aNr7/+moCA9kXSY35dKpWKqDtRbNm6lSNHjlC9enV69e4tFkz5DxAh/QLZ2dn8tXs3e/buJTw8DA8PT/z9G9CwgT8N/BsUaoDodDpycnIIDw/n1OnTnDl9mjtR0dSoXp3mH39M27ZtC72nLQJaEJ6mUCi4dOkSixctIurOHb4P7E67tm312mt+VTqdjqSkJDZs2EhwcLAI6/8AEdL/olarCQ0NZeuWLRw7fpwGfn60bdsW/4b+ODs7F1kdOp0OqVRKWFgYe/bs4dChw9SsWZMOHTvSokWLtw4whULBjh07DC6gHz16xIIFC0RAC0VOq9USGxvLwgULOH/+PF2/78ZXHTtibWOj79JeW9769hs3bmL37t00bNSI/v374+rqqu/ShNckQvqxzMxM1qxezcqVKyleogRff/UVn7f5vEiD+Xl0Oh3Z2dkcOHCQ7du3cz0igvbt2tHzhx9wd3d/7fZEQAtCQenp6WzauJGtW7fyxRdf8EPPHu9lOP+bTqcjLi6OP/5YxOnTp+nVqxcdv/xSTDB7j3zQIa3T6UhOSmLFihVs2bKZen71+bFfX6pVq6bv0p5Lq9Xy4MEDVq9Zw47tO2jdujV9+vZ95bAWAS0I/1AqlZw7d465v/2Go6MDw4YNw9vbW99lFTqlUsmlS5dZsGABKpWK4SNG4OPjo++yhFfwwYZ0ZmYmC+bPZ8uWLbRs2ZKePXtQoUIFfZf1ynQ6HYmJiSxdtowd23fw2Wef8WP//i+8L1MEtCD8Iz09nQ0bNrB921aGDhnC523a6Lukdy4zM5OdO4NZt24dnTt3pnOXLpiYmOi7LOEFPriQVqlU/LV7NzNmTKd+/foMHjwYDw8PfZf1xgqE9Y6d9O3Th++7d39qVrghBvTkyZOJunOHtevWiYAWioxOp+PBgwfMnDGDR48eMWXyJIOcsf2uqNVqLl26xOygIDw9PPnf8OE4OjrquyzhOT6YkNZqtdy5c4fJkycT//Ah48ePx9+/gb7LKjQajYZbt24xZeo0EhMSGDduHA0bNQIMN6Bv37rFsuXLKVasmF7rET4cSqWSsLAwpk+bRr169fjpp6FYWlrquyy9iI+PZ+HCP4iIiGDsL7+I4W8D9UGEtEKhYOmSJaxYsYI+ffoQGNj9P7vNoVKp5MD+A8ycNYsGDRowYuRI9u/fb1ABPWXKFG7dvCkCWihScrmcY0eP8ttvc+jfvz9tPoDh7ZfJzspi9+7dbNq8hZ+GDaNJkyb6Lkn4l/90SOt0Oh4lJvK/4cPJysxk/vx5lCpVSt9lvXM6nY7U1FQmTpxEyIkT2NjYsHrtWhHQwgdLKpWyd88eli5dytixY2ncuJG+SzIYcrmcv//+m99/X0ifvn1p27atvksSnmAyfvz48fou4l3QaDScPXuWHj160LhxY4KCZuPg4KDvsoqEkZERVlZWNG3aFDs7e0JPnqSspydV9bhU4JMBvXTZMoO4tU34MGRkZLBhwwY2bdrE7FkzqVO3jr5LMiimpqaULVsWT08P5s+bh0KpxNfXV99lCY/9J3vSSqWS1atWsXz5cmbOmEHjJo31XZLeaDQarl69yoiRI6lVqza//vprkQ/1Z2ZmMmvmTK5evSoCWihSGRkZbNm8mX379jJz5kzKf0ATxF6XWq3m/PkLzJ07l+Yff0zPnj31XZLAfzCkFQoFQUFBHD92jNWrV4m9V3l8P3hyMiNGjECt0fLHH38U2WxqaXY2S5cu5fjx4yKghSKVlZXFtm3b2LljO7///jtlypTRd0kGT6PRcPHiJaZOm0b7du3o0rWrvkv64Bnru4DClJ2dzejRo7l4/jxr164RAf2YkZERLi4uzJo1C1dnZzp/9x3Jycnv/LwioAV9yZFKObB/Pzu2bWPqlCkioF+RiYkJNWvWYOCAAQQHB7N71y59l/TB+8+EdHp6OoMHDSIxIZ5Vq1fh4uKi75IMjqOjI+MnjKdunTp8+8033L17952dSyqVioAW9EKhUBB68iRLly5l9JgxVDXgFQQNkUQiwc+vHj16BLJkyRJCQkL0XdIH7T9xH1JWZiY/DxuGlZUlixb98Z+9vaowWFtbM2jwICytrAjs3p0tW7cWeoBKpVKWiYAW9ECj0XD92jXmz5/HiJEjqF/fT98lvZcsLCxo3rw5arWaWbNm4ebmhpeXl77L+iC99z1puVzO5MmTUSjkBAUFiYB+BVZWVvTq9QPt2rWjR2AgWVlZhdZ2XkAfPXpUBLRQ5OLi4li8ZDGfffYZzZo21Xc57zULCwsaN27M561bM2XyZKRSqb5L+iC91yGtUChYMH8+MdHRLFq0SAT0a7CysiIwsDtVqlRhwIAB5OTkvHWbTwb0suXLRUALRSolOZnNmzZhYmxMrx9+0Hc5/wmOjo60bNUSRydHZs+ere9yPkjvbUgrlUrWrlnDoUOHWPC72JzhTdja2jJixHDs7Wz5ZexY1Gr1G7cllUpZumQJe/bsEQEtFDmZTEboyZOEhIQwbtw4sWlEIXJ3d6drly5cuniB1atW6bucD857GdIajYYL58+zYsUKVotJYm/F3t6eMWPGkJCQwLJly96oDalUypLFi9m1axdLli4VAS0UKZ1OR1RUFKtXrWLE8OHiro5CZmRkRKVKlfjhh15s3LiRY8eO6bukD8p7F9L5S33+739MnzaNEiVK6Luk916xYsUYPXoUmzZu5MyZM690jFarJT09PT+gd+/ezYqVK/W+9Kjw4UlOSmLPX7upU6c2/g399V3Of5K5uTm1a9WiadOmLFy4kLCwMH2X9MF475YFlcvlDPv5Zxo3akinbzrpu5z/BCMjI+zt7XF1Lc7EX3/ls88/x9ra+rmvV6lUXDh/nrlz5xIdFSUCWtCbvF2tdu7cyfjx49/4sld8fDyTp0whODiYEiXcAJg8ZQqbNm1Cq9Xi5ubGli1bmD9/PlqtlkqVKuUfm5qayurVa1i1ajVubiVxc3v9jkNKSiqrV69m5swZbN26la1bt/LXnj0kJibi5eWFhYXFa7UnlUo5ePAgs2bNQqeDihUrvnZN/2ZlbYWdnS179+whJvYuNjY2uLu7Y2Rk9NZtC8/3XvWklUoly5YuJUcqZdCgQfou5z/FzMyMpk0/olHDhvTu3fuFE8mysrKYOHEiO3fuJDg4WAS0oDfx8fFs3ryZzp2/e6vLLMbGxui0E678+QAAIABJREFUOk6cCCH8fDjZ2dmEhp4kNPQkV69dIzMzk6NHj3LlytUXfoGF3H8fJ0+e5ObNm698fpVKSUx0NBERkZQvXx6fmj5kZ2cTNDuImTNnvvb70Wg0JCQkEhYWTnJK4SxcZGRkhJeXF927d+fyxUscOniQg4cOFkrbwvO9NyGt1WqJjo5m48aNzJkjbrV6F2xtbRkwcCCynBxGjRpJdnb2U6+Ry+Xs3buX8PBw1Go19+7dY+7cuYUyO1wQXkdmZiYnjh/H1MSEdu3avVVb1tbWVK5cGZlMRnRUFDKZjLsxMUjMzEhISEQmk3H7ThTW1lYFetGQu/iHh4cHtWvVwtm5GFFRUXTp0pX5Cxa8dh329vZ80eYLRo0exaSJk3BxdSU8/Dzp6elv/N5UKhWRkZHMCZrDurXryMjIeOO2rK2tqefnR+06tYmIjCQsLIzQk6Fv3J7wcu9N0ikUCmbNmkXvXr3Edeh3yMnJkeHDhzNw0CDKuC+m1w+9sLW1BXLnA6SkpDB/3jwALC0t6fTNNwwdOlTMrheKXFJSEgcOHuTnYT+99WxuGxsbatXyRSaTcenyFWrXro2ZmRn29vbcvHGD+Ph47t+7R7NmzbC2tmHduvWkpKRgbGzMw4dxaDVaQkJCsLGx4diJ4/nD8HPnzqVLly4EBwdz5coVjE1MaN2qNZ9++slLa9Jo1MjlcooXL05OTg5hYWHs2rWLxMREXFxc+O677/D398/9snIihFOnT6GQK2jdujX16tXNbychIYF58+cTGhJKr14/YG9v/1afVZlSpfiqY0f+N3wEj0qX5sSJE1hbW+PrI3bOehfei5BWq9UcP3aMhPh4vuv8nb7L+U+TSCTUrl2LFi0+5dDBg+h0Or7v9j3Ozs5IpVJWr15NfHw8Dfz9+WXsWHzElnaCHmRmZnIyNBRra2tq1qxZKG3a2NhQo0Z1EhMfERERibOzM+3btXs8o/k4NjY2+PjUJC0tlQ0b1nPlylVKlS5F82bN8ttwcHCgSeMm/LX7LzzcPahRowZjf/mF48eO88knHxMbG8vw4cNJThrGN99+81QN8QkJTJw0CTMzM2JjYwH4/PPPSE1NZcTIUVhbWdGsaVMOHzlCZGQkM2bM4NKly0ydOpXKVSpjbmbOkCFD6NTpa4oXL0FaWho7d+wkKyuLVq1b0bUQNswwMTXF3cODuvXqcu/ePczNzTl48CBWVlZU9H77a99CQe9FSGdmZjJjxgxmzpguhrmLgK2NDT/27UvHr/6PGzdusHbdWnoE9iAuLo5DBw8yOyiIgIAA8Wch6E1SUhL79+/nxx/7FVqb1tbWVK9egxs3tnL8xAnKlCmT/+X06rXca9FP7slerlw5li5dgoO9A0FBQUDu5CoXVxdMTExwLe5KsWLOHDhwEGMjIx4+fEiOVEp6ejpr1q5lZ/BOAIoXL85nn32ee7ylJT4+NSnmVAx3Dw8OHjzInj17afHpp8yYPp20tDSk2dnYhZ0jKyub27duExJyAg8Pd4Jmz8bW1patW7Zi52BPeno6CoWCxMRESpUqRZNGjd+6F52nVKlStP3iC0aNHoOnpydJSUns27cPR0dHXF1cC+UcQi6D/y2rVCrZsnkztevUoXYdsVl7UTAyNqZkqVIMHTKEJUuX4OTkxPIVy6lTuw47g4NxcHDQd4nCB0wqlXLx4kVMTU2pX79+obWbd11aqVSSlJREpUqV8PX1ISMjg5OhJ6latSp169YlJSUFyJ1sWbx4cRRyxXPb1GjUSLOz8fLyon//AQXew43ISADs7OywsrIE/rkm7d/Qn+joaB4+jCMhPoGDBw+xYuVKUlNS8HtiPXKlUkli4iPMzMxxdXXFwcGBgYMGkpmZyZYtWzExMcHC0pKEhAQ2bt5Mw0YNKV269Ft/VhKJhLJly1KjejXu379PuXLlSEhIYN/efXTq1Alzc/O3PoeQy+AnjmVnZ7Nu3Tr6F+I3ZuHlLCwsaNWqFcYmJiQmJpKQkEBUVJS49izoXXJyMocPH6ZTp06FurJY3nVpjUaDEeDjUxNLS0vKe3lhaWlJxUqVXvsLqoODA/4N/dFoNGRnZXE3Jobly5cR9zCOIUOHMGToEHr07PHULVJyuZxbt24RdScKlUrFgwcPyMxIp2/fPvwydixWj2eYW1pZUq58OVJTU9m3bx8bNmykYsWKjBkzBshd1rNd2y/4+OPmxN69y8FDhwrlswIoXbo07dq14/69+2i1WtRqNVFRURwqxHMIBh7SSqWSrVu20KhRQzw8PPRdzgfH1taGH/v0JToqCo1Gw42bN9i+fbu+yxI+YCqVinv37vEwLo5mzQp/Aw0bGxt8fX2QSCS4OLtgZmZGiRLF869HvwozM3Ps7e3Zu2cvEydNpvN33yGTyejRsydjf/kFqTSH2rVqP/PY6OhoOn75JWXLlqN790AAAnsE0qJlC+zsHQgKmkPnzl1ISEhEo9FgZ2dPl86dkZiZMXToT4waNYqaNX348suvADA1NaV8+fJ8+eWX5Mhk7Nq1mwcPHhTKZ2VhYUH58uVxK1GCR48eAZAjy+HK1StcuHihUM4hgJFOp9Ppu4jnSU1N5bPWrVm1cgWVKlfWdzkfpPj4eDoEdKBq9eo4ODpgYWFB69ataejfUN+lCR+g5ORk1q1dg0ql4ueffy709hUKBdHR0WRlZePtXQFLS0uio6PJzs6mQoUKODg4kJOTQ0REJCYmxvj6+uYfk/caGxsb4uMTuHcvFmdnZypWrPj4mAhMTEzx9fV56rxyuZzo6BiSk/+5p9nS0pIKFbzye++ZmVlERFyndOnSTw1Zy+VyHjx4gIWFBaVLl0atVvPwYTwPHz6kdOlSODo6EhkZiVqtoXTpUoUy5A2QlJTMunXrOHjoYIF9u93LuNO5c2ecnJwK5TwfMoMNaaVSyYrly7ly5QoLF/6u73I+WDKZjPUbNrJ+w3pq18799m9ra8v33b4XoxtCkYuKimLcuF/4ediwQpvVLbw5jUbDqVOnGPrTMPwb+iORSIDcXnbt2rUJaB+g5wrffwY73K1SqdiyZQv9+vUt8nPLZDJGjR5NyZKlqOf3z8SUrKwsAgI6ULlyFWJjY/P/PzU1tchrLCqWlpZ81roVGekZ5EhzFyzJzs5m2/Ztz1zsRPiHSqXixo0bnDp1Kv92Gsj9xfbw4UNCQ0OJiIjQY4UF5eTkcOLEiQL/hYeHF1r7UqmU06dPc+/evTc6Xi6Xc+vmTdAhAtpAmJiY4ObmRo3q1Yl/+DD/8bxr6jdu3tBjdf8NBhnSebtcWVpaUu2JIZSiolKpOHTwEDqdjrTUVE6ffrVNJwpLTk4Oc3+by59/7irS8z6Pra0tn7Vqxf0H94HcRU2SkpII/jNYz5UZNqlUyob16wns3p1du/75s8zOzmbNmjX07NmTI0eO6LHCgu7fv0/n775j1MiRLJg/nzlBQQwYMIDu3buTlpb21u3HxsYycMAAYu/efaPjMzMzuXrtKi1atnjrWoTC4+LiQpMmTUhLK7gqWmpqKqGhoSgUz5/9LrycQYa0Wq1m7759dAgo+qESjUbDpUuXHl/LKY1SqWTv3j1FWkNOTg6zZs9m/YYNRXre57GwsKBlyxbEPTHhRK1Wc+vWLa5evarHyt4PMrmcc+fO5QddVlYWe/fu1XNVz+bi4sKUqVPZsnUr27Zv57c5c7hw/jx///23vksjKyuLyIhI6opbMQ2KnZ0dFStVJD09HbVKlf+4RqMhPj6esHCxY9bbMMiQlkqlHDt6lM/bfF7k51Yqlew/cAAzMzM6BASgUqk4eOjwS4+Ty+UsXPgHAQEBuLt70LVrN06fPoNWq+XevXsMHDgQP7/6NGnyEYv+WIRarSY0NJRmzT/Gza0k7u4e9OjRg5iYGH744QfUajWnT50ioENHTp48Sddu3ahUuQoffdSUxYsWF8En8Q+JREKlylWwtbMjKSkp/3GZTMahw4eQy+VFWs/7xNTUFOdixYi4fp34+HhUKhW3b98mJjqakm5u+a973tA45H7OeUPPcrmc8+fPc/bs2QK925ycHEJDQ4l8fO9tHqVSyfXr19mzZ0/+MRqNhri4OE6dOvXCoWcTExNKuLnhWbZs/uxdpVKZX+eTxyqVSiIjI58azlar1cTFxXH69Gnu38+9VefRo0cFXieVSgkNDeXGjecPjWo0GlJTUkhKSsLb2/tFH7lQxIyMjLCzs8PdvcxTIy6ZmZlcuXJFrO3/FgxuMRO1Ws3J0FCqVK2ilzW684a6JRIJTT5qwqG//ybuwX2uXr363J2elEolhw8dZsaMGXzzTSd69+7DjBkz6N69O9u2bWXRokXs33+AYcOGce3aVWbOmkVWdhZXrl4l7sEDlixezJUrV1ixciX16tZj6dKl+PrWooG/PwsX/k6jRo0p6ebGtClTOHT4ELODgijh5ka7dm2L7HOxsrKk7edt2H/oIC4uLsA/a3mfCDlBi0/FEOSzGBsb4+zigluJEly7do0yZcoQHR1NgwYNMHu84ENaWhpBs2ezfv16qlevTnpGBrNmzcLJyYkmjRvj6OSEs7MzqamplC9XjocPH2JpaUnr1q0ZNHgwf//9N8OHD6d48eJoNRo+bdGCr7/+mtWrV7Nx40YszM3p0LEje/fs4Y9Fi/D29mbbtm3s2L6d4ydOvLB+uVxOdFQUNtbWpCQnExQUxKZNm6hatSrZUikzZ86kTJkyzJgxgyuXL+Pn58eRo0cZOnQoLVq0YMvmzcz57TdcXV1JT0vDxMSEzMxMlixZQufOnfm6UydCQ0MZ98sv/L5w4XPrkEql3Lh5k+o1ahTqvdFC4XCwt6da1WpcunwZF9d/VhzL+x1x4eIFGjVspMcK318G15NWq9UcO3aMzz8r+l70k0Pd7u7ueHh6Ur++HyqVmtCQ5+/0olAo2L3nLywsLOjVqxfNmzejT+/eKJVKdu/azd9HjlLTx4cvv+zI2LFjWblyJf7+DZk+fToTJkwgIiKCw0eOoNPpyJL+MxlLqVRy+tRpMtLTiYyMpG+/fuzYsROVSsXFIr4P0cLCguYfN+dh3MMCjysUCs6cOVOghy0UZGVlhW+tWpwMDSUnJ4fz4eH4Pl7zXKVScenSJfbs2cPmLVtYsXIlDRs2ZP26dUDuUGKfPn3YuXMnAe3bI1co+PvIEbp06cKff/5JTEwMu3fvpm/fvhw8eJCZs2Zx8OBBoqKi0Go0uLq4cCIkhD59+uDr68uRv/8mOzub69eu8fnnT/8bU6vV3L17lxMnTrBv3z7+WLgQW1tb/Bs25PyFCxw6dIgtW7eybPly6vv5sWH9ekyMjalcqRLLli9n0ODBtGzRggMHDpCcnMzuv/7ixx9/ZPfu3QwdOhQAJycnPm3RgmPHj3P//n0uXbqEl5dX/t0Dz5Kdnc3tW7eo+4LXCPpjb29P1apVSH/G3IW83rQYcXszBhfSGo2G8PBw/PzqFfm51Wo1ly5dRqvVcv36derWqcvKFStRKBTsDH6zSVI6nY7MjAyys7Ly7xk0NjbGxsaa/j/+yLTp01GqVbRr+3Sv2MjICBsbayQSCW3afE58/EPi4x8SExPN+PHj3+q9vi4TExNKlSqFlaUlGf/aNk8mk3H02NEired9YmVlRc2aNTl16hQRERGcO3eOen65SzvK5XJu3rxJyZIlkclkXLx4EVtb2/yhaQsLC6o/njxpKpHg5uaGsbFx/p7G2dnZnDt7lurVquXPtC1TujRnz57F3NycSpUr4+joiLW1NT6+vpw5c4aIiAguX77MF8/4O5eWlsaSxYtZMH8+SxYv5uy5c3hVqJC7VePt27i5uSGVSrl8+TLW1tacO3eOHJkMK2trxo0bR7euXVm5cmX+e4t78IBqVatibW1NrccBa2NjQ/Xq1YmMiODmzZuEhYXRoWPHF36GOTk5xMREU7NmjUL7cxEKj7W1NWXLlSNHJkP1xHVpyP0dmJaWJuavvCGDCmmtVkvcgwcYGxtTqlSpIj+/Uqkk+M8/sbKyYt68eWzevJkVK1ZgbWNDbOzd5/4lMzc354vP2yCTyZg5axZHjhxl8dKlOBUrRrPmzWj+cXOioqJYsmQpEydO5Pvvv+fo0WOcOXMWC3Nz2rdrx+3btwq0qdPpyM7KwtjYGFdXV44fP8GaNWsICAigQgVv1q1bXxQfSQFmZmbUrl3rqV6zSqUiIiKCxMTEIq/pfSCRSChfvjzW1tZs3rSJYs7OVKlSBcj9O5+ZmcmjpCTOh4dz9coVLMzN6d27N46Ojq/UdvHixZE+vuan0WjIkclwdS24yYGdnR0tWrQg9t49tm/bRtmyZan8jAWCnjVx7Pq1a0RHRxeo89rVq1hZWdGtWzciIyOZOWNG7hD7mjV0794dADOJBFdXV6Q5OajV6vw9kc3MzKhatSrVqldn+7ZtJMTHU7du3adqyaPT6cjKyiI+Ph7PsmVf7UMvJDk5OVy8eJGbN28CuV/k799/QFhYWP77+fdrCr4u/K32gpbL5URERHLiRAiXLl361+MRXLp0+Rmvf/rxomBpYUHx4sXJTH96v+qMjAwuX7mMRqMp8rredwYV0hqNhvDz52ncpLFezn379m1u3rhB2bJlad68GU2aNOajj5rQ4tNPUKnUnAw9+cxjzczMaNuuLcOHDychPp6fhg2jpFsJpk2Zgp+fH5MmTsS/oT9z580j5m4sPw0dyv99/X9MmjSJ9IwMOnfpilOxYjRoUB9baxvMzc1p1rwZN27c4Le585g79zfq+dVjxIiRxNyNZeiQIXz2Wesi/oRyh7wbNWpM1jPuj1YoFBw/cbzIa3pf5PUkjxw5QrOm/yxnaWVlRd26dVEqFFSuXJmKlSoRFRX10mvFefKGotesWcPhw4dZt24dCfHxfPLJ0/sV29ra4uvjw8mTJ/nyq69e2raJiQkurq4UK1aMpEePqF27NiqlksqVK1PB25s7d+5w/MQJcnJykEgk2Nvbc/36dUJCcy8N2Ts44Ofnx9q1a9m/fz/Lly3Lb9vGxobKlSsTEhLCx598QpkyZZ5bh0KhIDk5GXd39yK/Hv3o0SOC5sxh3vwFAKSkpLBg/nwGDhzE9WvXAbh16xaBgT04f/58/nEymYzDhw8zevSoNzqvWq0mLCyMgIAA2rdvz4wZ0+ke2IOBAwdy6dIl0tLS2Lxpc/6oRZ7nPV4UrKyscS9TBqns6UliWq2WtLS0N75H/kNmUBPHNBoN58PDafbE/qxFxcTEhFq1ahEXV3BdWysrKxYsWPDMY3bu3FHg5379+j5z8RUPDw/WrF791OOBgd0JDOz+zLbXrllT4OeGDfW/DKeZmRm+vj5MnZYA/9pGWqVScfPmTVJTU8VSgI+ZmJjg4emJvYMD1tbWtPn8c3KkUtq2a5ffm6xYsSL169dnytSp7Nu3j/T0dJo0aUKHjh2RyWT41a+Pi6srpqameHp64uTklD8Zzc/Pj/LlyzNgwABWrVrFyhUrqFixIsuWL8fFxQXPsmVxKlYsvx5bW1uaf/wxN27c4OOPP36qXisrK/z8/PInBuYd81HTpjg4OtKwYUPGT5jA3r17yczM5KOPPqL94y1LpdnZLJg/Hy8vLwIDAzl//jyxsbH0HzCA1atXs2XzZry9vfH398fD0xMHBwdatmzJhvXr+eQZtTxJqVSSnJREyZIlC+8P5xVZW9vg7V2R8PDcHnF2djbXIyPAyIiIG5H41vLl5s1bj3fQqpJ/nK2tLd27f0/37t+TmprKihUryMrKYtCgQa903jt37jB8xEjKlC7Fxo0bsbGxISw8nF8n/MrGjRvp/v2zf2/ok6WlBW5ubsTFP3zm89nZ2dy4mdsJEl6dQS0LKpVKafvFF6xfv04vM7uFl3v06BHt2rajuk9N7OzsCjxnZmaGv78/bT5vo6fqhOeRy+WcPHmSDRs2ULJkSSZOnKi3WpRKJdeuXWPH9u1cuXq1wEIvz5KcnLs+tJVl7sTMopSTk8Nff/3FggW/s3TpEuRyOV26dKVlq5bk5MiY+OsEli9fwZEjR9i3b2/+MZcvXyYkJJT9+/fx66+/sn7DBnJyZAweNAhfX5/8tbx1Ogqszw25vwd3797NwoV/MG/eXHx8ctf6zszMYuvWraxevZqRI0dy5vRp0jMymDv3N6RSKZGRkSQ9SuLMmTP5jxel9PR0tm3fwfYd2wvsu53HyMiIsmXLEtg9EAsLiyKt7X1mUMPdKpWKlJQUEdAGzNTUlDLu7mRlZT31nEql4vr16yiVSj1UJrxIdnY2R48exdXVNX+Wtb7k5OTk90xnzJjx0tcrFAoSExIo6Vb0PWkrKyuqVKmCiakp169HcPHiJYoVc+KjJh9x88YNEhISeJT0iPJe5YmKiqJNmy/wrVWbkSNHIZfLc+/vTk3l/r373L9/n+TkZO7cucP//d/XdA/swajRo/n5f8ML7EyVlZXFhfMXsLS0LHDbp52dLT4+PmRmZnL+wj9D67du3eLrr78msEdPpk6fzs4//yzSzyiPubk5ri4uSLOevVywTqcjKzOL6OjoIq7s/WYwIa3Varl79y7uYtMGg2YqkeBVwQtptvSp53Q6HVKptMAEmme9RoR40XN2dmbSpElMnTr1lSakvUsODg706tWLBb//TqVKlV76epVSSXp6GmXcn3/d+l2ytLTEvUxpIiIiuH//HvXr18fT0wNjExMiIiJ4lJiYv5a4mbkZn376Cbt376JMmTKYm5vj7e1N7dq1qVKlCrVr12LXrt1IJBJCThxn/ry5pKelEXIipMA587bI/DdzczOKF//n8bT0dA7sP4BareHE8WMsW7oEr/Ll3+0H8hyWlpYUL+5KRsbTE8fySKVSEdKvyaBC+v69e3i4u+u7FOEFTE1McC9dBplc9szn84Yy8+TNzD169CiTJ0+mQ0AAv82ZU1TlCsJbs7GxoaxnWU6fOUPio0dUr1YdGxsbvL0rEHYujNu3blPl8Ux5WxubF27+kZ2dzb17sXhX9ObKlavcvHkLZ2dnTp35Z38AicQMO3t7EhKevltCoVCSkZGBh3tuZ0Ymk5GcnEzFihVxcHDA1tY2/5Y9QySTy3gQ90DM8n4NBjNxTKvVEnP3Lp6eoidtyExNTSlXriw5z9kBS61WExEZwZEjR7hw4QLHjx3jypUr+b1na2trqlarxqxZs4qybOE9lp6ezqNHSZiZmenl/FZW1pT38mLj5s2oVCp6BAZibW1DqZKl2LJlC87OxahatSopKSkvbUuj0ZCSmopcJuf84x3GqlWtSsVKFfNfY29vR926ddiwYQPbd+ygR2AgkDsfZNeuXdjYWFOpUkXu3L6NmZkZzi4uJKWkkJ6ejkajeebs6qJiZGSEiYkJWq0WY+On+4B5o22JiYl6mQj4PjKonnTcgweUKSN60obM1NQUd09P0jMyn/sarVZLdnY2rq6ulHBze2qCmSC8Dq1Wi1qt1tswva2tDTVqVCczIwNjIyN8fX2xtraifPlyZGRkULFSpQITv55HoZCTmZlJndp10Ol01K5ThxJubvx99Ch3n1iv3dTUlBo1avLNN9+w8PeFLFm8hH379jNzxkz27t3LgAEDKV26NJC70lf16tWJjIzkzz93sWvXbg4ePPTOPouXMTU1xdraGqXi+Ze0ZDKZuBXrNRhMTxqdjszMTKysrPRdifACxsbGONjbI5c9e7gbcnsLUqmUrl270rVr1/zFTkJOnCAsPJwSxYvTf8CAIqxaeJ/dunWLMaNH67UGJycnunTpTIXHm3tYWVlRu3ZtPv30E9q1bQfkXpOtUrUqnh6emJiYULy4K3Xq1MHd3Z169eqyZcsWwsLD6dKlM5aWlqxYuQILc3P69e3z1H3txYo50bdvXypVqsjhw4c5EXKCSpUqsXTpEnx8fEhJSaFsuXK4e3pQt24dRo0cwa5du5DLFQweNAh3A75sKJPJCkyUE17MYG7BkuXkEBgYyODBg/B7vGTiq9Jqtdy5c6fANRxjY2NKlnSjXLlyb12bRqMhKiqKlJRUGjSo/9btvc45U1NTqV//n3Pm7SIUHR1DpUoVX+ueZKVSSVhYGKVKlXruZiGvIiEhgYYNGxHQscMznzcyMsLZ2Zmfh/38zCEvQXgdN2/eZPSoUSxa9AfOzs76Lkd4gQsXLjBo0GBq+vhgYfn826zKepalV69eSCSSIqzu/WQwv0F1gEarwfQNVhRSqVTs2L6D7777jgUL5rNgwXyCgmbzySefsmPHzreuTaVSEbwzmFmzZ791W69KoVCwY8dOguYUvNdRrdYQFhb+RveLpqWl06NHT6LuRL1VbUZGRlhZWT13wXydTkdOTg73799/q/MIAuT+fTM2NkatVuu7FKGQqNSqF84CF/5hMMPdOp2OxIRESjyxx+7rMDY2pk7d3CElyF28YdLkySxYsICPPmpCsSdWXhLejpGRERYWFmg12ue+RqPREBsbi4e4pU4QhH9RKVWkp6eLkZFXYDA96cJmYmKCT42aBa59qNVqTpwI4dSp0wVe+7zHNRoNFy5ceOrxf1OpVJw4EcLp02ee+7hWqyUxMZGTJ0+RmpqKSqUiNPQkMTExaDQabt269dTxABq1mlu3bnHq1GlSU1OfeX6lUklISGiBW5+0Wi0JCQlPPZ73XExMDL169yboHd0OpVKpiIp+ux67IEDuZCQ7W1uSxXaoBk+tVpOVnY2Z+Ytn4itVStKesa2l8DSD6UlDbigW1gL6edepjYyMcHR05PLly/Tq1RvI/UfftOlHDB48mLi4ODp36UqLTz8hLT2dGTNnMCcoCBcXF7p160ZE5A1KlizJw4cP83cuypOWlkbVqtWwd3CgZMmSPHr0iID27Rg3bhxXrlyhT5/cdbwlEglNmjSmefPm9O8/gI0bN5CRkUFgYA/6/diPH3r2ZMKECTRp3KTANW+tRsO169c5nD0KAAAgAElEQVRpH9CBkiVLYgRMnz4t/3mVSsXRo0f5sf8ASpYsiUIup1mzpvTp04d9+/YzZ84cKnhXIDb2Hj8NHZo/OSU9PZ0+ffvi6eHB0CFDCuXzftbn/yq3pAjCyxgbGSExk6DRPn/kpqhERUUxcuTI/J9NTEwo7+VF7169sLa2Jjj4TzIzMxg8ePArtymVSjl27BjHjx9n1KhRrzRT3FDpdDp0z7n96kkqleqtdgf7kBhUSJuYmLzVTe55PWKdTkfK4w3nv/rqSxQKBatWraJKlcqsWLGCmJgYWrRoScuWrdBqtUz89VcCAtqTnp5OnTp1iYyIJFwazvXrEZw8GYqZmRmBgYFonzHFztzcnMDA7gwaOJDgncGMGz+eH374gTVr1lCtWlWWLl2av1xg48ZNKF68OOHh58mRyTC3sODs2XN8360b589foH//gjOetVotElNTTpw4jomJCX369GHbtm00aOAP5C6vuHHTJnr0CGTI4MHcuXOHzp27ULeeHwv/+IPJkyfTqlVL9u7dy5UrV/jkk0+QSqX8sXgxcrmcqVOnvvFn/TJ516Wzs7OxsbF5Z+cRPgw6HQaxAEZ2dja3b9+hT58+VK5cmYcPH7J8xQrS09MZO3oM92JjSU59vS+nuaNsj164vaRcLic2NhYjIyO8H88wNzQ6ne6590f/m0olrkm/KoMZ7s6bEfzvvYpflVar5dLFiyxYMJ/ff1/AuvXrePjwIRUqeKNWqwkPP4+vjy8hIaHcuRNFBW9vTp0+RYUKXly8dJEvv/ySTz9tAeT+MoiJiaFK1aoUK1YMiURC3TrP3u/W1NQU35o+GBkZYf04jFQqFefPX8Cnpg+hoSeJioqmvJcX58LO0bRZU86cPcO1a1dp164tly9d4sjfR3Aq5vTUzHFTiYQqVavi5OSERCKhZk0fIiJv5D+vUCg4cfwEPjVq5u87XbasJ1u3bkGpUNC4cSPMzc0JCAhg3Lhx+e/twYMHpKelcevW7Tf6rHW63C9ExiYv/usjetNCYTAzN8e1eHHu3TOMiYgWFhZUq1qVJk0a07pVK9q3a8fNGzdIzyicnmFWVtZT+0enpaWxYf0GFvz+e6Gc412QyWQkJiZiZ//ydRE0Gs1zJ54KBRlMT9qI3PVqFQrFGx3/rIljk6dMIfjPPwkIaE9qWhrXIq7nfxtv3bJl/spXqampzJw5E0dHR+rUqYuxsTEl3Nxye+QpKVhZWZElffYKW8+i0+lITUvj6vVr+TNSW7dsSY2aNUl69Ij9+/ZjY2ND1y5dOHb0GCtWraRevXovbTNHlkPpUqXyHzMxMaFkyZJkS3PX0dbqdGRLc/D2rsj58PNkZmZiZ2fHjRs3OHXyFO3at8fOzo7Jkyaxectmli9fhrd3hdfeWlKn05KZmfnSnWw0mv9n77wDmjq/Pv5JQhJIIOw9ZMl0gAoyFHAgrg7r7lZbZ39vW7W1w7Zaa4fWWke1ra1V6x51770Q9x4goiJbDCMQAgR4/0BocVSRqc3nH+Xmcp+TS3LP85znnO8pITMzU5c8pqNGSCQSLMzNSUl5cAvEhkSj0ZCWmoqDgwMmxn+HqbV3c0kW/fknSbdu4e/vz5AhQzA0NCQ+Pp5VK1dx6fIlPL28KhXFABITE5k792e0JSV88flnQHk4/MiRI2zasgWxnh4zZ87k9ddfZ9PGTezasxu5TMYrr7xCSEhIvb//f1JYWMjtjNvI5fIGteNZo9GspBEIMDIyIiurdmajIpEIdzd3EhMTyc3NJapLZHnP6NatcXRyYv6CBahUKnJVKhTGxkilUhYt+hMo30Nu1y6UhIQE1q1bz6ZNm1m9es1jjy2RSOgS2Rk9PT1atW6Nvb09CxYtorioiA4dO3Dr1i3UBQX4+/vTunUrrsVfIyI84r7raIuLOXP6NCtXrmLTxk1s2bKVHt27V76ur69Pl8hIFixcyJ49e1m4YCGJN28yaNCbtGjRnHnz5rF79x6m//gjV+L+bnphZGTEmDFjOHjwEIcOHa7BXf53SktLuVPN0J8OHfcilUqxtrHhViMRwEhPT2fS5Mn069ePNwcNYsfOnbz88itVzrl58yaTJk2irKyMvn37EX/tGuM/+5wbN24wceJE8tT59O3bjxs3blR2AsvMzGTZ0mUk3rrFB2PHVKqKyeVygoOD6dm9O4FtA3nzzUGsW7eeBYsW0bNHT3x9mzFx4pdER0fX+734JwUFBSSnpiKRSh95bmlpqW4l/Zg0npX0XSetVldfd1YoFOLg5EiQoOoxD4+mNPP1QV9fnw8++IC1a9cxZ85PmJmbM+ennwgODqJNm9ZMmzaNDz74gIiIDowdO5aDhw7SqXMnfv3lZ5YvX05GRgZjRo++r4xLT0+PkJBgrG2s7yaomRASEoy9vT1jx45l3br1zJnzExaWlsyeNYvg4CDUajXDhg9DJpMhkUjo1LETGo2GsLD2Va4tFosJCQ3F3MKCmJgjaAoL+e6bbwiPCCcmJobg4CAcHR159713mT9/PvPm/YqbmxvLli3F2dmZ7777jnm//caCBX/g4eHBu+++i0AgICQkGDt7O1xcXHhryBBOnz7F888/99j3uqy0lDyVCn0Dg0efW1ZGoebJIiM6dFQgkUiwsLDgViORkjQ2NqbXiy/i7e2NSqVi+44dTP9xOh+NGweARlPI5cuXSUtLZ+rUqdjY2KBQKPjkk0/YunUrKSmpTJgwATc3NwIC2nD9+g3i4+NJTU1l3fr1vPraq/+675yVpeT8+XM8/1xP+vTpTVJSEknJSezbv79BV9NqtZqkpFvoP6aTLirWdcN7HBqNkxYKhTRxdiYx8eajT74HsVjMywMHVjkmEokIDg4mODi48tjIkSMYOXJElfMcHByY/pAypLZt2/6r+pmRkRELFy6s/DkkJKTyS2JnZ/fA8WQyGV98/nnlzy/1fomXHqDcJRaL6dixAx07drjvtXbt2tGuXTugXIpw1KhRjBo1qso5Tk5OTPryy/t+d/78+ZX/H/vB2Ie+t4ehLSnhZmIiJsbGjzy3InlMh46aIJFIsLS0JCMjg6KiogZrtFFBxZ50aLtQAOzt7Rg5YiSZtzOB8pyU27cz0dMTYWhoiJ6eHiYmxuXJXzduVrab1NPTw9HRERMTE+Lj47G1taVzp05s2byFDuERhIQ+2OEWFRWReecOPr6+QPmzTizSI/0BXbPqk4KCAlKSU7CxezKtCx0PptGEu4VCIU5OTty8UX0nraP+0Gq13LyZiMzw0ftOZWVlutmyjhojEAiQy+XY2Nhw7Vrjqr0vLCwkKSkJoUiEwd2+A0ZGhrRp0xoQcOniJVQqFefOX8DZ2ZnnX3yBsrvHlUolM2bMZPDgIUB5z++BLw/E1c2VZStWPHRMY2NjvL28OXf2HFCeaJaUlERwUP1IFj+Iiu5WGRkZKIyMGsyOZ5FGtZJ2dHDgZiMJael4MOVO+sZjhbR06Kgt5HI57k2bcubMWbzv9m5uKCr2pBVGhqjVBaSmpdHrxRdo5e/P0bt9oe3t7enWrRuj/vcO9nb2qPLyeP+992jm60u3rl0rjxdoNIwaObKyZtjOzo6+ffowadJXrF+/gRdeeB4oXy2L9PQ4c/oM27dvJzwinM8//4LILlEAuLq40K59u4a5IZSXpiVcu4aRQoGeTo+7Vmk0DTYAlEolkZGRnDxxvKFN0fEQlMosRr4zirKyMhwdHf/1XKFQiHMTZ0aOHFlP1ul4VsnLy2Prli3ExBxhWj1q6N+LSpXH6dOnK38Wi8U4ONjj6OhIYWEhN27cAMDT0xOtVktqaippaek0bepeKVJScTwpKRlHRwdsbGxITU0lM/MO/v5+5OfnExcXh1wur7I3nZur4vz581haWuDh4fHQ8xqCpKQk5sydy5UrV3B1c3vk+QKBAHd3d4bdFZjS8XAazUoayrM4DfT1ycrKqrXesVqtlr1797FgwR9ERXXl9ddfq5Xr/pPCwkJWrlzJ9u076NOnDy++WN66rkIRbNGiRURFdeW1116t9bHrm5ISLclJSXh5eT3W+aWNQCVKx9OPTCbDzd2dhQsXNui+tJGR4X1JnhVIpVI8PT0rf67Yc753Mvug4//8WS6X4+/vf9/1FQojQv+xT/2w8xqCnJwcLpy/8Ng9EkQiEXKZrlTrcWhUTlokEuHv78/JEyfpHNn50b/wGBQWFvLbb/OwsLSk3d1Ej9qmtLSUW4m3OHjwIOYW5pVOuqioiA0bNhAdfYSWfn51MnZ9UlZaSk52NncyMzFSPFqwAECk92CZ17KyMvLy8rhz5w63bt3i9u3bKJVKsrOzEYlEWFlaYmlpibm5ObZ2dlhZWaGn16g+rjrqEaFQiKmpKbZ2dly+fJmWLVs2tEk67lJaWkpOTg6p6Wm4NXWvkzG0Wi15KhVlUGsLuKeFRvXUE4lEtG7dmugj0bXmpOHvpLTa6C39MAQCAfoGBhw5EoNSqcTMzIyioiJ27tqN4TOSSFFYVETM0WNY29o+lvSfUCislAQtKytDqVSyfds29uzdy949eygpKcHW1hZbW1usrKywtLTE2MSEoqIiTp85Q0ZGBrczMkhPTycjIwN7e3u6REXRs2dPWrdurXPa/zEMDQ3x8vTk6NGjOifdiKhYRZuZmj527wWhUHhfEw6NRsPFixc5fOgQGbdvk5GeTmpqKikpKWRlZSHV10dA+cLLzs4OBwcHrKytsbW1xd3dndDQUGyfsItiY6ZRPeVEIhGt27Rh+fLltXK94uJiVq9ew+kzZ0lOTsHczBxDQ0OysrI4d/4cLw98GYlEzPLly0lPT6d9u/aMGDkCjUbDz3N/RiKVsm/fXvT19XnttddZtnwZ2uJiRowYeZ+Ep1AoxNHRkRKtllMnT92tZz6KqYkJZndDQCUlJVy6dIn58+eTnp6Of6tWfDB2LGq1ml9/+RWxRML+/fswMDDglVdeZfmK5ZSWlDB8+HCCgoIoKChg/vw/OHBgP1bW1gwbOhQPDw8OHTpMbGwscXGx5OTkYmJqwg/TpqEp0LB6zRquXo3j3Xffrbay2L0UFhZy/MQJjB5z0lGh2Pb777+ze/duzp8/T0BAAN27d+frr7/GysrqsceuUHDatnUrEydOJCUlhcjISHp0705IaGiDl+XoqHuMjY3xb9WKuXN+YsiQIbXWjOdxKSws5Pz588QcicHTy5PIyMjK19LT0lm+YgVNmjSpjKT9V8jIuM3+Awcqn3OPg1gsxtjYmIKCAs6dO8emTZvYv38/ZaWlhIWFYW9vT5s2bbC3t8fa2horK6tKhcOKjPrbGRlkZGSQlpbGoYMH+WHaNMzMzenatSsRERF4e3vX+2ekLmg0JVhQ7uhcXV3Jycl5Yg3vfyIWi+nTpzf+fi3p0bMHAwcOYNWqlfz8yy8EBgQil8t4e+gwXF1ceeONN9mwaRNTpk5Fo9Hw/bRpbN22jZcHvgwIGDFiBJ07dcbB0ZH3HtI5SizWo1Urfw4cPEBxcTFHjx0lODgIk7tatiqViuHDR1BUXMzrr7/B3r37+H7aNNRqNdN++IEdO3cycMBASsvKGDVqFJ06dsLWzo7RY8od+YwZM9mxcyevvfoa7m7uvPX2UK5evUr04cN8//33WFlb89xzPdm2dRsXLlxAXVDegENhbFxjBw3l4fvjx48/dg9YbbGWK5evcDUujkGDBnH06FHmz59Pnz59quWgoXwfz8fHh9FjxrBp0yY2b96Mr68v8377jQ4dOrBgwQKKinTlXs8yEokEFxcXFMYmHD9+ot7HLyoq5sKFi0z9/nuWLFlaeTwnO4fVa9YwY8YMdu3eVe92NSRarZak5CTi4q9iY2Pz2L+nVqtZ99daOkRE8Oknn2BsbMzMmTPZt38/k7/+mpGjRvHiiy8SEBCAk5NTFQliqVSKm5sbQcHBPP/CCwwdNowfZ8xg9549fDZ+PBnp6fzf//0fYWFh/Dh9OmlpaXXx1uuNRuWkoXw13aZNG44ePVYn1xeLxTzXswevvPIy589fwMrSkv/93//o2LEDQwYNqpT/lEqlDB40iK7dutLM15eWfn707duH0JBQcnNyHtg4QiyWENQ2iB07d1FUVMS+vfto1aoVUL6qP3w4Gm1JCZO+/JIOHSLo07s3f/31F1AukDDozTeJ6hpFMx9f/Pz96du3LyHBIeTm5JCSksL27dsZPGgQPZ/ryeuvv4alpSWHD0cjEonw9PTk448+IjwiAlc3Nw7sP8DVq1e5cf06UV261Pi+lZSUkJqaSpZS+dit9KT6Unr06MG3331HZGQksrt1pDVFKBRib2/Pm2++yaJFi/j999+JOXKEzp06sW7dukbRLUlH3WBiYkJgYCA7duxoMBuKiopISEggNrZcajdXlcvx4//NipQ7d+5w/NhxrK2tq7VqlcvlREZ14Y8FC9i1ezdjx47Fz8+vRitfAwMD2gYF8eWkSWzbto2ffvqJW0lJDOjfn5/nzn1qW2M2qnA3lDvpdu3asWXrFnr27FHr1xcIBBgpFOXt4dLSKhOgBAIBMrm80gELBAIMqykUL5GI6dS5Ex9/8gl//bW2PITevj1bt25Fq9Vy9uxZ8vLyGD58OGVlZWTeUZKTnYNSqXzkeCUlJaSkpFSeIxQKMTKUk5aehkRPXBmClhkY8FKvXixatIjSsjLatQulWbNmT3i3/kaj0bB3z17s7Oweaz8a7t7TWnLMD0MkEuHl5cWsWbM4duwYU6dO5ddffmHsBx/QsWPHOh1bR/2jUCho3aoVEyZOJCcnB+PHUL6rbQwNDXF3c+PkiZN4enqSnZ3N2XNn8fP/OzlUpVJx6NBhrsbF4XQ3BK5Wq4mNjSU/P58LFy4ilUho1boV586dp0CtJiAwEH9/PzQaDZcuXeLYsePoS6V0juxcWaZ1/foN8vPziY2NxcjQkPZh7fHw8CA1NZWNGzcRGBiIn1/97denp2ewd2/5c6E6GBsb065dO6wsqxdRe1wkEgl+fn74+Phw/vx5fvn5Z1avXs2Qt96iV69ej2wO1JhodCtpPT09OnTsSExMDFlZWXU2Trk2dgiJiYlcv34drVbLxQsXCAkJfuwyggchkUho164d8+bNq3Kt8oYfbigUClauXMmyZcuY8t23fPzxx48VipZKpYRHhHP67Jm7/WfTiY+/RmhI1Yx1iURCSEgwcXFxzP/jD8LCwp/4vfyTgoICNm7aiG01vowikahWwuyPg1giIbRdO5YtX86gwYOZ/NVXfP755zpZ0mcMkUiEtY0Nbq6u7N61u0FsMDQ0xMXVhfMXzt91vHEYyg1p0aw5UL4//fXX3zDpq0kkJiXxxx9/MGPGDFJSUvjkk08YPnwEV65cZuv27bw5aDDbt2/j6LGjfDHhC+Lj49m9ew8jRo4iIeEaJ0+fZviIEZw5c4YdO3by+uuvM2fOnPLS0n172bZtG/n5+ezdu4/ly5chkz1aU7+2UKvVxMVeQaVSYWpeve+5WCzGWFH3EyyJRELr1q2ZMXMm48ePZ93atbz26quc+Uete2On0TlpgUCAQqEgIjyCDes31Nk4FZnk7UJDePnlV3jllVdYtmIFb731do2uKxaLCQsLIyMjg4iIv3W3JRIJXbt1xcHeji5RXenffwBjx37w2Nc1MDDg5YED+eOPBfTt25dBgwbTrn07goKqaotXhIJfeql8ttitW9cavR8oX8XfuHGDO3eUWFk//sy3osd1fWJgYECfPn34Y8ECbiUmMnToUDIyMurVBh11i6WlJVFRUSxbvrxB8hCMjIzw9PQkJiaG8+fPc/rMaVr+Y/WacTuDo8eOMXHCRL6cOIGXXx7I+vUbSEpKwsTEhAEDBzBp0iS6RkVhZmrKt99+y6hR73An8w6nT50m+kg0zz//HFOmTGHsmNF4eniwbds2AFxcXJg27XsGDXqTNm0COHnyFNevX+fsubOEhITUq6jJrVu3WP3XWhydHB87ugblz0hzc3Ok9ahaaGBgQESHDvzy669ERUUxfvz4ynva2Gl04W4o/yN2696dWbNm8cabb9ToWvr6+owbNw6FQlHl/1D+h5s+fTrx8fFkZt4hJKS8GYdWq2XhwoV4eXkiFovp9VIvunXvhp6eHm3atGb+/PlVVtsSiYSXer9E9x7dEYvF9OjRHU9PT7y9vTAwMODDDz/E2NgYhULB8uXLuXbtGrdvZ+Lt7YWZmRnFxcUsWLAALy9PpFJp5bX09EQEBLTht9/mYW1tjbW1NadPneLYsWPY3+1kVVJSQu8+ven5XM8q71sqlRLVJbJWVrJqtZpNmzdj72BfrS+jSChqkJpGgUCAk5MTP86YwfTp0xk4YAAzZs6slbC/joZHX1+fZs2aYWVlxY7tO+777Nc1EokEZ2dnLK2s2bdvP9cTrtO9Wzfi4+NR56u5dOkyWUolF86f58L586SmpqLRaEi8mYhEIqmSYCUSlTfhyMgoT5RVF6hJunWL9mFhlWMZyg2Jv5aAra0dEokEKysrDA0N8fPzY8eOHZw+fYbYK7G888479XYPCgoKuHLlCjdv3iC4mp23ZDLZI9UK6woTExNeefVV7OzsmDtnDomJiQ1SKVAdGqWTFolEhISEMOGLL7h86RLePj41upbfP4RE/O4RFSlvaenBPyegenp6VZR9mjZtWvn/Cmd57xj/ds4/xxSJRHfH+3tAsVhcOUG4dzwbG5sqX2qJRFxFlOXesbOzsxk8eDDJKan8/tu8e2/HE1FQUMCWzZvxb936sX+noilCXe9J/xvGxsaMGzcOLy8v3nrrLcaPH0/PnvX7QNdRN5hbWNChY0dWrlpFt+7d6v0ha2hoiKurC/v27UOj0eDl7UV8fDxCkQi5vLwNbRNnZywsLMjPz8fb2xunJk6PvK7MQIaDoyPp6eUdrYqKisjLz8PdrarGg56eHi4uzjRp4sS8337D0tLiblOP+iE5OZkNGzZgW40clQoMDAxwcnr0vagrDAwMiOraFWsbG6b/8AMpycl8+OGHyKqZg1RfNLpwdwVisZgXXnyRhYsWNbQpTxUymYzRo8ewfNnSWksY279vPwYGsseuj4byyYOllWWNx68pBgYG9O7dmylTpvD91Kns2bOnoU3SUQvI5XLatG6NRCJh39599T6+iYkJrfz9uXYtnqCgtjg6lK8M9fWleHt74+rqwp69ezh08CB/Lv6TAwcP4uDg8MjrmpubExIcwubNW5j45Zd8P+0HYuPi6Nr1/m0rU1NTWrduQ5ZSSXhY2GNXXdQUjUbD5cuXuXDhIk5PsCKWGciwtWlY0RGRSESrVq34ctIk8tVqxo0bh0ajaVCbHoZowoQJExraiAchFApxc3Xl66+/JiqqS719AJ92RCIRTk5OtRZmzsrKZuy4D3F2cUFejZmmRCIhMDAQJ8eGmzFXIBKJsLW1xc3NjcmTJxMcXLPkQB2NA7FEQmlpKYsXL6Znzx6I67z7UhlQhpOjEyGhIVhYWGBuZk6XLlFY21ijpyfG08OTNm3aENk5EsrKKCoupnPnzoweXa6toK9vgI+PD9bW1uXbMo5OBAQEIBAIMFYoCAgMoFkzXwIC2pCnyqNp06aMHDECZ2dnBAJo4tSENgFtgPLPdU5ODidPnuS9996rt8/0tYQEZsychZHCqFoCJlC+VeHp5Ymvj28dWff4CAQCTE1N8fDw4MKFCxw/fpzQ0NBqRwbqmkbVBeteioqK+PHHH1HeyeTbb79taHP+c2g0Gjas38DMWbMI+kc4/nEwNDTk7bfext7evo6sqz5qtZqVK1fy15o1/LFggc5RPwMkJyfzw7RpeHp6MnRozZI+nyZyc1Xs3LmTtevWYW5mxowZP9bLuNnZ2axcuYrFixfTJjCg2g7N3NycHt170KJFizqysPqUlZVx4fx5Zs6cSWDbtrz9duP6HDWuKcM9iMViXnv1Vfbs2cPNmzcb2pz/HKq8POb8/DNNnJtU6/cq9qMbk4OG8q2AXr16Edi2LePHj9eJnjwD2NjY0K9/fzZv3lTZJvK/gszAgK5dujBxYv0EQ0tLS4mLi2PhwoW4ezR9ohWnkZERbo/RyrI+EQgE+Pj68uagQezetYudDSiU8yAatZMWCASYW1jQp28/5s6d29Dm/KfQaDTs3LGTgoKCatVGQ0VSi0sdWVYzjI2NGTZsGMXFxXz//fcNbY6OGlKRiBnZJYoffpje0ObUGwqFEd26d+PV116tt63A5ORkVq5chamZ2RNVjVQkjFVn26y+qNij7j9gAD///DPnzp1raJMqadROGv5eTe/bt48zZ840tDn/CSoaY0yfPh1PL89H/8I96Onp4ebauGbL/8TCwoJx48axa+dOrsbFNbQ5OmqIqakpPXr0QKVSVcrs6qhd8vPziY4+wqHDh3Bzf7LvdkV9eWPFwMCAiPBwunTpwqyZMykuLm5ok4CnwEkLBAIsLC159933mDRpElqttqFNeubJy8tj7py5mJiYPJEYiYGBAd7e3nVgWe0gEAiwtbVl4MCBTJ/+31l9Pcs4ODgweMgQfv99PnG6iVetUqLVcub0aWbMnImnl9cTJegJBAKMjIxwdam7dsG1gamZGe3at0cqlbJ58+aGNgd4Cpw0/F2Opa9vwOpVqxvanGcarVbLpUuXWLN2LR5PsIoWi8V4eHig1WqZ/sMP/Davaq22Wq1m6dKl/PrLLyiVytoyu9rI5XIiu3QhLS2NmCNHGswOHbWDWCymZcuW9OnThwkTJpKfl9fQJj0zxCckMGPWbKysy3u+PwkKhYLmzZsjFou5fPky/fr2ZcIXX1Q559q1a7wzahSffvopOTk5tWH6E+Hs7ExYeDjr1q5FnZ/fYHZU8FQ4abirHPbRR/wwfXqdanr/18nNzWXil1/StGlTDAyqrwMsFotp3qw5KpWKKVOmMGvWrMqEntLSUhISEhgzejQ///xzbZteLQQCAfKVVW4AACAASURBVObm5vTv35/ZP/2kSyJ7BlAoFER17YqtnR1TdPkGtUJaWhrLly4jLT0NV9cnXwWbmpri7+cPQE5ODgcPHiQ6OpqrV68C5YJJp0+fZs2aNZxv4P1guVyOv78/1tbWrFrd8IvCp8ZJC4VCPD096d+/Px98+GFDm/NMkp+fz6+/zkN5R4l7U/dq/75AIMDY2LhK9mZhYSHR0dFAeTLa4cOHa83emiKTyYjo0AGhUPjU6Pjq+HdsbW0ZMmQIFy9eYtWqVQ1tzlONSqVi544drN+4kWbNmj1x/bCRkRE+3j5VEsZEenoUFxdXNrrIzs7m3LlzjSaprEmTJoRHRLBt2zZu377doLY0SlnQhyGVSnl76FBGDB/OL7/8yrBhQxvapGeG4uJijh8/zuLFiwkLD3+iL6REIqF58+bo6ZV/rKRSKS1atODggQO8/PLLaDQajsbEEBgYyK1bt4Dy1XVycjJbt2xBW1JCeHg4np6eJCQkkJ2dTXx8PFlKJc1btKCoqIhLFy/i6uZWKe9ZUFDAju3buXnzZuVxjUbDiRMnEIlExBw5gkQqxdfHh4gOHcjPz2fTpk0YGhrSo0cPjI2Neemll1i0cCE9etR+a1Qd9YtAIMDDw4MxY8YwccIE5HI53bt3b2iznjry8/PZvHkLP/w4A/9W/jWS9zUzNaP1PZLCxgoF9g4OxBw9St9+/cjKyuJqXBzNW7Sg5G7eUUZGBitXruTA/v04OTkxbPhwLC0tiYmJITY2lqtxcWi1Wvz8/UlPSyM+Pp6QkBBGjBx5t1XoITZv2kRhYSFRUVH06duXxMRE1q1dS4FGw7mzZ7G1tSU4OJjeffpw/fp1li5ZgpeXF7379MHHxwdfX1/WrVvXoLXTT81KugIjIyO+mjyZRYsWcfLEiYY255mgrKyMlJQUPvjgQ1r6tUQmf7IvpEwmIyT4b83zCqd94eJFlEolhYWFnDt/vrJ5QGlpKZcvX6Z7t27s37+fGzduMHToUI4fP86ypUvp17cvmzdt4mZiIsOGDePryZPJysri448+Yu+ePWRnZzNx4kRmzJhRnuw2dy6Tv/qKjIwM+vfrx8iRI0lLSyNLqWTGjBkAZGVlMW3aNFQqFVC+jRIQEEBubm7lxEHH042enh6tWrVizNix/PTTHA4ePNTQJj1VaDQa9uzZww8//ECz5s1q1KTHyMgIX1/f+/p+KxQKmjRpwqWLF7lx4waJiYncSkoioE25mlpGRgbz589n48aNvPDii8jkcj7++GNir1xh+7ZtLF2yhObNm+Ph4cGP06eTnZNDWHg4a/76i3Xr1hEdHc3UqVPx8/OjfVgYy1esYNGiRSTevMmsWbO4dOkSz7/wAuYWFmzctIni4mIuXbrEnj17Kpt/WFtb06xZM04cP/7kN7MWeKpW0lA+U3Z0dOSLCRMY+8GHbFi/DqO7Xa10PBk5OTlM+GICltZW1a6JrkAikdCieQsMDQ0rj4nFYpo2bcr+/fvZtWsX2uJixGJxZTi8oKCAHTt24OrqypKlS1EqlYwbN461f/2FoZERLnePJyUlsWnTJkaPGUPbtm2Ji4vj9JkzmJubs23rVpYsXYqHhwdhMTH873//Iyw8vLK5Ru/evYmJiWH1mjWcOHGCK5cvI5fLiYqKqrRTJpMRFBzMnj17eOONmnVd09E4kEqlhIaGolKp+OabbzAz/Q5fXRe0R1JcXMyRIzFMnvw1Lm6u9zUTqg5CoRBrK2vatm1732tSqZQmTk5cv36dPXv2kJWVhaODQ6XM6O3bt4m/epW3hgyhb79+nDp5knNnz3L6zBn09fVp3bo1w4YP5/Dhw2zcuJEB/ftjaGRE9OHDXL16FQHg7eXFW2+/zZ07d8hSKtm9ezeub72FnZ0dgwYNIjQ0lB07drBn92727dvHpUuXcHd3x9PLCyivUnF0dKS0tJQrV67gdfd4ffPUOWkonymHh4dz4sQJhg4fzu+//dag3ZaeZvLy8vjhh+nEXYt/4JfpcTEwMCA0NPS+4/r6+oSEhrJr1y5sbW3p1LFj5WuFhYWcO3cOhULB9B9+oLCwkCylkvT0dILatq2iWCYUCJD/429cXFzM1fj4Sl1usVhME2dntFot1xMSEIlE2FhbIxaL8fT0pHmzZuzds4e0tDQiO3euom1uYGBAQEAA69ev1znpZwiZTEbXqChKS0r4cNxHTJwwoVL3Wsf9VDTTmTx5Ms6uLo/VEOTfMDExoW1Q24fuM5uZmeHp4cHePXuwtbMjKPhv6eGcnBz27dtHckoKq1atIi8vD1VeHpmZmYhEon/tWFVUWEhBQUHlOSKRCLFEQnZ2Njm5uYhEIgwMDCorUVq0aMGmjRsB6NKlS5VVv7m5OW7u7pw6darBnPRTF+6uQCqVMnr0aNzc3Bk9erSufvoJyM/P5+eff2bz5s0EtGnzxIkhEokEv5Z+DwyLSSQSfLy9OXvmDIcPHcLP37/yNaFQiLFCgUQioXWbNrQNCqJvv34MGDDgkWOKxWKaurtTUlJCamoqxcXF3Lxxo1zt7J4sVLlcTvuwMFauXEnM0aN0joys8rpUKsXHx4dr8fHcuXPnie6BjsaJTC6nW/fuDBo0iM8+/0wX+n4IGo2GXbt2Mf6zz7B1sK+xg5ZIJLi6uNKyRcuHnmNiYkJTDw+OHT/O5cuX8f/Hs0EulxPYti2jRo1i5apV/D5/PqNGjXrgQuC+65qa4uXtzc2bN0lOTkalUpGRnk7rVq0wvifqamZqipOTE5s2byYuLo6W97QytrCwwMXFhaMxMdW8A7XHU+uk4W5Z1rhxlJSU8uEHuozv6qDRaFi3bh1LliwlODQEvRp0ECp3gu0f+Jq+vj7hERFk5+RQWFRU5UtmYGBARIcOnDl7lpMnTnDo4EGmTZv2WGOKRCKcmjShW/fufPzxx0ydMoVvvv2WPn360KRJVa1xfX19goODycvPx8rSksDAwCqvVwgttG3blkOHdA/xZw25XM5zzz/P+6PHMHHiRNb+tbahTWpU5KlUrF61ik/Hf4aXj3flnmxNsLCwIPwRCaiGhoZ4e3lhYmyMtZUVzs7Ola85ODjQLjSUqVOm8FKvXgwePJjTp08je4yyUCMjI4LatkVhZMTLAwcybOhQTp85w4u9et13rrmFBSGhoTjY2xMcEoK7e9WqFkNDQ5ydncnOziYlJaUad6D2aLStKh8XqVRKREQEy5YtI+7qVdq3b9fQJjV6NBoNa9b8xXffTSEoJLhGZQ/6+vp06tgJT4+qwicCgQADfX0CAgMxNzfH3t6eiIgIWrZsSWlpKXa2toSHh+Pu7k779u1JT0tDJpPx8SefEBAQAAIBnp6eeHh4AHdD0oGBmJiYoCcW06xZM9zc3AgNDcVYoaCwsJAXX3iB1++Gq2UyWeX5QqGQsrIyYmJiGDBgwEP7bKvz8zl79iwRERFPfD90NE709PRo0qQJXt7e/Pjjj6jV+fj5+TW6toT1jVKpZMHCRcyb9xutWrfCwsKixtc0NjamXbt2D21HaWRkRJs2bfD08sLC0pKQkBA6duyIo6NjebZ1SAje3t4EBAbSq1cv3Js2pU+fPvTv3x9zc3OcnZ0JCAjA3NwchUJBQEAAHp6emJqa4uXlha+vL87OzkR26UJIaCidOnXivffew9raGoWxMW0CAvDw8EBfXx+AlJQUzpw5Q9++fatMFCrQaDQkJiYigAaRNW3UrSofl7KyMjIzMxk6dCju7u588/XkyjIgHVXRaDQsW7qU6T/OIDg0BCMjoye+llAopEmTJgwbOqzR3u/i4mIuXrzIkiVLOHr0KH/++ed9K20o3x8/dOgQa1avZo6umcszS0lJCbFXrvDNN99gaChn0qRJteKYnjZKS0uJj49nypSpXLlyhWYtmldJ+nxSpFIpfi396N27d6OfAKlUKrZt28avv/5Ks2bNmDBhwn1Z6ACJiYmsXLkSa2trXnvttXq3s3HfxcdEIBBgaWnJooULyc7K4v/efQ+1Wt3QZjU68vPzmTFjBjNnz66xg4by1W1UVFSjddAVCIVCXF1cmDt37gMdNJSHz42NjUlNTa1n63TUJyKRCB9fX6ZNm4aJiSkvv/wKJ47/t0o5CwsL2bVrF2+/PZS0tDQC2gbWioMWiUQ0adKE7t27N3oHDeVRwMDAQL799tuHOmgon3goFIrKss36pvHfyWpgpFAw/ccfkclkDB7yls5R/wOVSsX48Z+xYsVKQtu1q7GDrtBKdnervjJZfSIWi2nRogUjRo7E1/fB4TcoD4daWVnpEsf+I1hZW/PBhx8SFRXF/737LvN+nUdRUVFDm1Xn3L6dyfTpP/Lhh+OwtbfDy8cbkUhUK9e2tLSka1TXRqMa9ijEYjFNmjShdevWD3XQUO6k5TIZtzMy6tG6v3mmnDSUb/R/9dVXeHt50bNHT65cvtzQJjUopaWlXL9+nddef4Njx48RFhFeuRfzpAiFQuzt7enZo2ctWdk4EAqFyGQysrOzG9oUHfWAmZkZg4cM4eVXXmHxkiX06vVSpYTts0Z+fj4bNmyg/4D+bNuxnaCQ4BpncP8TMzMzOnboiJOTU61ds7EgFouRyeUN9lx45pw0lIcxPvn0U/73f//Hy6+8yuLFSxrapAahuLiY3bt28eKLvSguLqJtUFCNQ9MCgQATExP69+uPRCKpJUsbByKRCBNTU91q+j+Eqakpr7zyCq+98TqGCiPGfvAB7733foNl8tY2JSUlXLx4kf/937tMnPgldrZ2tGnTplbC2xUYGxsTFhZGq1atau2ajQmJRFI+eW+gzlzPpJOGv9tbLlm6lNmzZ/P20GGocnMb2qx6Iz8/nylTp/L+6DG0aNkSbx+fWtkn0tfXp0f3Hk/csq42yc7O5quvvmL58uW1cj2hUIjMwKBB2+TpqH9MTU158YUX6dChA/6tWhEbF8uLL/biq0lfPbXOuqSkhKtxcYz76CMGDnyZO8o7tA9rj42dba2OI5fLCQgIqCIH3Bg4dOgQHSIiaqW+WSwWIzMwIL+B2lY27oyfGiIUCvHy8mL5yhUMHzacjp06M2HCBHr0eHYF97VaLadOnWb8+PHkqlSEd4h4opaTD0IilhDQJoCWLR8uUFBTtFot165dIzMzE3t7+8qSiIrjSqUST09PjIyMiI2N5ciRIxQVFXHx4sV/3XPWoePfMDc354UXXkCtVqOvr09+Xh579+9n7bp1PP9cT1577TVc/9HdrbFSUlJCwrVr/DJvHtu2bsOpSRPahbWvE0VGfX19WrZsSZfILnWaKFZQUEBiYiKZmZlcu3aNArUaPz8/2gYFUVxczI0bN8qfA4WFBLZti42NDfv27SMrK4sDBw5gbmFxX/3z08Qz7aShPDzr5OjEjBkz+O677/jiiy9YsngxX03+qkb9URsbZWVlpKWmMnXaNLZs3oKPrw/NWjSvtS+Pnp4eLVq0qOw+VduoVCp+nD6dxUuWVCZxFRUV8euvv2JnZ8enn3zCwUOHcHN1JeP2bb799luylEqUd+5w+fLlWpnllpSUoMzKwta2dlcbOho/AoEAG2sbBg4YyNq1a0m4noCfvx95KhV7Dxxg9V9rCW/fnn79+xMU1LbRbfXk5+dz+PBhVq1axZEjMTg6ORIWEV5ncskymYzAgECioqLqPJP7TmYmP8+dy9atWwkODkYikbB8+XK+/fZb9A0M+Oijj7C3s8PU1JTVa9YwatQoHBwckEqlODg41Djqp9FoyMnNxbwGjUZqwlMvZvI4CAQCTE1NcXVzJSs7i5TkFObOnUueSkXLFi2QSqUNbWKNyMvLY/HiJYwcNQp1gZqg4GAsLC0RCAS1cn2RSIS3lzf9+vWrs3KroqIioqOjSUhIYN++fbz00kvs2LGDoqIiSkpKWLRwIXv27qV3nz7k5uQQHR3Na6+/ztGjRwkOCaF37941tiE7O5vly5YxYuTIp6KEREftUqE85+rqilKpJDMzE6lUiq2tLTY21ty4eZPVa9bw+++/k5aWipmZWY0aUNSUwsJCzpw5w4yZMxk//jN2796DSCymRcsW2NnbI66BiuC/YWhoSFj7MLp06VIv5Ze5ubkcP34cYxMTFi5ahKurK5cuXaKwqIhbiYnk5OTwx4IF+Pn5oVKpOHH8OOHh4Rw6eJC+ffviVsNVtFqt5vKlS2RnZ9O5c+daelePzzO/kq5AJBLRzLcZ/fr1Y/Xq1Tg2cWLz1i0sXrKEIUOG8MYbr1dpuvA0kJeXx8qVq5gzZw4SqYTAoLY1aiv3IIRCIU5OTvTp06fOVw9isRhvHx/MzMy4fft2pZLYyRMnKo9rNBqaeniwatUqlEplrY1dVlZGQUEBEomk1kpSdDydmJub0/ul3shlco6fOI5AIMDQyAgfX188vbzIzs5m/8GDrFq1GplMRvt27ejYqRNt2rSuU6ddUlJCWmoa0dHRHDh4kJiYGNRqNY5NnGjVuhUm9fD8MjY2pnOnzgT/oxlGfSDV17/v3hao1RQUFGBlZQWUJ3jJ5XKSkpPJrcW8kuLiYtRqNSYmJrV2zerwn3HSUO6oA9oEUKAuYNv2bQQEBpKTk8PatWv55ddfGThwACNHjGjUCkRlZWWoVCpWrVrNnDlzkOpL8W3erE4SuSoUxd54/Y1azQatDiKRCGtra85fuIBSqcTAwIACtRpjE5NanZCUlJSQnZ2NVQOujHQ0HoyNjenZsycKhYK9+/ZSWloKlH8ezc3NMTc3p0Sr5c6dO1y6cplDR6JR3lFiY13emtHH2xsXVxfc3d2xs7Or9sSvuLiYW7duERcbR8L161y+fIljx09wJzMTG1sbTM3MaN6yRaXsbX1gaWFJ9+7dad68eb2M9ygMZDJMTU05ffo0OTk5FBUVkZ+fj4O9PYp/qXuuLhXXbaiWyP8pJw1/t7lUKBSsXLUSExMT2gQGkJ+fz959+1i0cBFBQUEMHDiQzp07NZpQeHFxMUeio1mxchW7d+/GzNycZi2a11mWtUgkwsPDg/79+jeYg4by5JS2bdvy888/s2HDBszNzVm+YgUvvPACUD5pycnORqlU1shpa7ValEol5nf72erQIZfL6dSpE7Z2tmzYsIHce6pDRHp6WFlbV07sKj5DV+JiOXf+HOp8NVlZSgoKNNjb22NsbIxcLsfMzBQDAwPs7O0pLi4mIyOD/Lw8srOzyc1VkZWdTebt2xgYGGBmZoZMLkdfKsXH1wdTU9N634rR09PD3c2dwLaB3Lh+vdE4aXNzc/z8/Ni6bRufffYZUomE8xcuMG7cOACysrI4evQoXt7e/ypW8iiKiooo0GgeqlZY1/wn9qTvRSgUYmNjg5OTExcvXaSkpASJRIKdnR2ubm7cvp3Jxg0bmD79R64nXEcmk2FpaVlnezwPQ6vVcuLECX6dN48xY8ayeetWSstK8fdvhauba50p++jp6dGieQsGDhxYa5nhj6KkpISU1FRMTU0JCgpCq9Vy4+ZNfHx8CAwMpHnz5uzetYuTJ0/Su08f3nrrLQA0BQWcOXMGI4WishnHk1CgVnPwwAGMTUxq1Fdbx7OFSCTCysqKph5NuX37NllZWQ89VygUIpfLsbCwwNrGBgdHR9ybNsW9qTsKYwUSqYQyICcnlztZSmJjY0lMTCRPpaKwqBixRIKRsQJ7O3uaNW+Gh5cn9g4OWFlbYWZujkwmq7U8k8dFJpMRHBxMr1690BRoWLd+PYWFhTX6rlWX0rIyJBIJnp6euLi4VNrl4+ODj48Pbdu2pbS0FAtzc4YPH07r1q2Ry+U4OTqip6eHvYMDihqsgpOTkzl44ABt2rRpEEf9TDTYeFJKS0u5desWfyz4g7y8vCqvlZWVkZ+fz/WEBNLS0snOysLf35/wiHBCQ0Lw8/Or9T1arVbLhfPnORwdzb79+zl9+gz6+lJsbGxxdHTAvB7C8EKhkCZOTRg6dGi9T0oakvT0dD7+6COGjxhxXytLHTqgPAdk3/59REdHP/MSokKhECsrKyI7R1aWXKakpDBjxgzOnD7NT3PmPNVlTY9LSUkJ+/btY/7vvzNv3jxkDSB5+p920lDujJVKJStWriAhIeGh5xVqNGRkZJCZeYfMzEyylEocHR1xcXWlma8P7u5NcXNzxcLCAoFAUB6muqf8oaioiPT0dMrKysjOyuL6jZtcjYvjwsULXLuWQHJyMjK5DCsrK8zMzLGyskImr5sSigdhaGhIZOdIspRKkpKTGT58eL2N3ZCUlpZy6dIlxowezZatW3WJYzoeirZES2JiItu3b+fatWsNbU6dIJfLCQwIJCIiokq0TqlUsmjhQqZPn05ERASzZs+u0Qr1aSAzM5O1a9eSnpbG+M8+axAb/vNOuoKKzjD7D+yvTBL5N4qLi1Hl5qLKyyM3JweNRkOeKg+NRlO5Cr93tq2np1f5oZZKpRgqjMr/NTTEWKFAYWzcIPWXQqEQO1s7Bg4ciLm5OdGHDzNs2DB+mj2bjg1QclDf5OXlsWLFCm7dusV/cPdHxxNQUFDAyZMn2bNnD7mqZ0PJUCwW4+LiQlRUFE2c7g/rqtVqNm7YwHvvvYexiQkDBw5k/Pjxz/SkNjY2lgULFhAeHk7Xrl0bxIb/XOLYw5BKpXTt2hVnZ2dWrV51X/j7XsRiMWbm5pg95YlGenp6+Pv788LzL6Cvr09ZWRmOTk7k5OTw0ccfs87HBzs7u4Y2s05Rq9UcPXqUAQMGNLQpOp4SDAwMCA0NxcfHhyMxRzh69OhT23VPJBJhb29PWPswmjdv/lCnK5VKsbkr9JOTnc3GjRvx9PSs8fcmLy+PK1euVLl/MpmMpk2b1ijhqwKVSkV8fDxGRkbVCtGXlZWRkZ7O9YQEPvjggxrb8aTonPQ/EIlE+Pj4MPr90WzdtpWTJ08+1qr6aUQgEGBlZUX3bt2ryGkKBALkcjkmJiakpaUxdswYFv35Z41FC9RqNStXrGDLli2Vx0QiEV5eXvzv//6vxuVU2dnZzJ49G3d392o9NMrKysjOziY+Pp6goKAa2aDjv0XFtlb3bt0JDQklOjqaEydOPDUra7FYjJOTExEREXh6eD4ya1wkEqFQKLCzs8PCwgL/Vq1o2aJFje1ITEzk888/Jz0tDTc3N7RaLbczM7GwsGDKlCk0bdq0Rte/efMmM2fMoEPHjtVy0tlZWcTHx+Pi4lLr+hPVQeek70EgEKBQKOjbpy+t/FuxadMmklOSG9qsWkVfX58OER1o3779A8Prenp6ODs7c/r0aY4ePcp3333Hp59+WqMxS0pKSE5OJicnh0/HjwcgJyeHOXPmkPfNN0ydOrVG1y8uLubypUvV7pOtUqnYsnkzQW3b1pmEoo5nm4rOcN27dycsLIxTp09x6tQpkpKSGtq0ByKTyfDy9CIgIAA3N7dqlXTZ2try8ccfI5PLWbRoES61JK1sbWVFv379ePPNNwE4e/Ysn376KWvXruXDDz+slTGqy62kJGJiYuj10ksNMn4FOif9EIRCIU2bNmXUqFHExMSwZ++eR4bAGzt6enq0bNmSyM6R/yrYIhKJcHR05OzZs5iYmFCgVpOSklLjsLdQKMTcwoKwsDCgPMwVGxvL0iVLalzn/CSUlpaSkpzMxo0bWbBwYb2OrePZpEIyMzQklIyMDE6dPsWFCxe4fft2g9olkUhwdnamdavWeHp6PrH2gY2NDX369iU2NhZLCwt2795Njx49atnacjEZDw8PMjIygPJJeEpKCklJSeUlcXdX1w87DuXRtYsXL1be++zsbA4fPoy1tTXu7u6oVCpiY2ORSCS0uCcikKVUcuzoUaRSKZGRkbX+/qqDzkk/AolEQlhYGIGBgRw7dozD0Yefun7DFc65Y4eOjyVbqKenh4+PD15eXmzdupV+/fvXyb60UCis8rBQq9WsWLGCrVu2YGxszHvvv4+3tzc3b97k999/J/7qVWxsbXn77bfx9fUlPz+flStWsH37dqT6+uTk5qJUKhn34Yd4enoyeMgQsrOzmTVrFvZ2dgweMqTK+Dk5OaxYuZIuUVE4OjrW+vvT8d9FJBJha2tLD9sedInsQmpqKrGxscTFxZGcklznJVwV3y03Vzc8PT1rbX+3Ant7e4JDQliyePF9WeC1QX5+Pkm3buHr68udO3dYsngxv/3+O8bGxkilUt5//32CgoJYuGABK1asIDIykosXL9KhQwf69e/P0aNH+XryZKC8tFVuaIiDoyNLlyzB2saGzz//nCtXrjDpyy954403qjjpsrIy4q9dI/rIEYYOHdrgiXE6J/2Y6OvrExYWRlBQECdOnuDAgQNkZmY2tFn/ioGBAa1btSYsLKxaq1SZTMbbQ4ciFApxcHBg0pdfsmz58loX0y8sLOTC+fM4Ojqir6/P4sWL+e2333j//fdJSUlh+PDhzJw5kwV//IFWq+W333/nl19+YdSoUSxevJjNmzczf/583nvvPZKSkpj366+EhIRga2vLkqVLeePNN7l58yYrV6xg1qxZVcYuKSnh+vXrHDxwgBUrV9bq+9Kh459U7P06OTkRGRlJQUEBCQkJJFxPID09vVIkpSb5L1KpFEtLS6ysrHCwd8DV1RU7O7s6UyczNDQkOCiI06dO8eeff9a4XFOr1ZKSksKBAwcoKiri6NGjpKamMmLkSG7euMHOnTv5bPx4OnbqxJLFi1m8eDEeHh64uLoy77ffcHJyYtmyZWzbupWw8HD2799PWHg4X3/9NXv27GHy5MnY2Njg6urKmtWriY2N5cKFC5SWlhJ0jw55RkYGhw8fxs7WtlHkqeicdDWRSCSEBIcQ1DaIpKQkTp06xbnz5+6TDGwoRCIRTZs2xd/PH19fX/T19at9DYFAULk/2zkykp27drFo0SIGDx5cI9u0Wi3nzp2jX9++lJaWknnnDrczMpg9ezbqu4pfQ99+m4EDB5KWlsaWzZu5cuUKeiWe5AAAIABJREFU0374gWvXrhEdHU1qaiqq3FwKCgo4ceIEzz/3HAMHDiQ9PZ39+/ejr69PcHAwc+fM4cCBA1y9ehUXFxda+vlVsSU7O5ulS5bQf8AAnRSojnrFwMAAX1/fKgmbxcXF3L59G2WWkvz8fNT5aoqLiykpKSEvL4/SslLEYjGGckMEQgFSqRS5XI6RkRGWFpYN0hzI0cmJHj16MHv2bLp3746Tk9MTX+uOUsma1as5c/p0ZeKYqZkZBgYGXEtIQKVSoVAouHjxImKJhLTUVG7evImBvj6//vILCQkJxMbF0exuhC1LqaRDx46IxWLs7e1xc3XFyMgIb29vNqxfz86dO0lOTiaiQwfs7e0r7SgtLSU+Pp4TJ07w8ccf18ZtqjE6J/2EVHSHcnJy4rnnniM+Pp6z585yNe4qWdkPlw6sC8RiMc7Oznh5euHv71+rAgMKhYKRI0cy+v336dq1a43C3kKhEHs7O9753/+A8nDz7NmzWbVqFR6enuzfv5+M27crW1RmZWcTFxfH+PHjiTlyhPCICPJUKqD8y6TOz8fwbqKYUCjEWKGo3E/v3LkzG9avR1NYyIsvvljlIabRaDh8+DBXrlzhy0mTanB3dOioHcRiMXZ2dk9VuWPFtlhISAhz5sxh8uTJTxwaflDi2KRJkzhx4gRGRkaoVCqOnziB/O7iYfDgwajVan6eO5eXevfmgw8/ZMuWLWzbuhV9fX3MzMwqe8xrtVpUd/OJ7O3tCQoOZsf27UilUqKioqrYcf36dTZs2EArf/8qk6iGROekawGRSISnpyeenp6UlZWReSeT2CuxXEu4xtWrV9FoNLU6nlAoxMbaBg9PD5o2bYqLs0udiaCIRCLc3d3p0bMnkydPZsaMGU8c9r43cUylUnHu7FmOHTuGWCzGv1UrBgwYwMCBA8nLy2PNmjXY2NgwZvRoZs2aRVBwMKtXreL48eMYGBgQEBjI8ePHy1v4paVx+coVAtu2RV9fH39/fyZ++SVyuZx33nmn0gatVsv58+eZPWsW3373nS6jW4eOGmBpZUVkly588803LFiwgCH35H08KYZyOTbW1tzJzCQkOBg7OztsrK1xcHTkwIED7Nu3j1HvvEOBRoNcJiMzM5PDhw4BYGFhgaeXFxs2bMDG2ppjx49z4/p1AExNTXF2dmb2rFl06tyZiIiIyjHT09NZu3YtBWo1I0eNqpX3URvonHQtIxAIsLSwxLKdJe3ataOsrIy8vDwyMjJIS0vjzp073M68TWFhIbm5uZSWlKIt0ZKbm4tAUB7GkhnIKuuVJVIJCoUCG2sbrKyssLCwwMLCol6arVdgaGjIG2+8wbhx42qlHKsCiUSCt48Pa9asQavVMqB/f2bPmsWa1atR5eXRxMmJESNHEhERwcSJE2nXvj3nz50rD40fPEhUVBSbN2+mS5cuVfrHymQyOnbqxNy5c/H/x4y4rKyMxMREJn35JcNHjKBVq1a18j506PivIhAI8Pb2ZsSIEfw4fTr29vbVVuaSy+X4+PpWCZcbKRS09POjuKgIbx8fPvr4Y9avX8/+/fvx9/dnzty5GBsbM2bMGNauXcvZc+fo1q0bV65c4cKFC/Tu3RupRMKmzZtRKBS8P3o0zZs3L99q8PGhc2QkHTp0qBxPpVKxc8cOzp09y5SpU59om7DOKNOh4zEoLf3/9u48LuqqX+D4h2HHWARZlcAN3FDJVBw1SnPLXBIUaUFcyiw1tbSr2XJv+ZS4gHvZy91HxbJHTcUwSYWGXADZlV2UHUQBmX3m/oHMS1ye1DS49znvv/LMmXO+vx/TfOec8/udn05fWFioHzd2rH7H9u2P/H61Wq3PysrSp6WlGcq0Wq2+uLhYL5PJ9FVVVXq9Xq9XKBT62NjYJvWUSqU+MTFRn5aWpler1frc3FxD/Ttfu1NRUZF+2Msv63/++WdDWUVFhX7atGn6fyxb9sjxC4LwYPX19fqDBw/qR48erb948WJzh3NfKpVKn5ubq1+5YoV+5IgR+uzsbL1e3/CdE3XsmD5o0iR9cnJyM0d5L7F3t/DQdDodly9fZvb777N4yRJeboH7eqtUKmJjY/nmm29wcnJi/fr1tG7dmps3b7JmzRpKiotZv2FDs99WIQj/39y8cYP9+/fz85EjLP/mG7p269bcITVRW1vLr7/+yslffyVw4kRefPFFtFot586dY+OGDYSEhDBs+PDmDvMeIkkLj0Sj0ZCYmMiC+fNZsmQJrzyFjQz+Cq1WS3l5OQUFBXTp0gU7OzuuX79ORHg4GRkZbP7+e3E1tyA8JdevX2f37t1ERUXx6aefIpVKmzukB5LL5Zw4cYJtW7cSNHlyi9273/gL8dgf4RFIJBKcnZ3p1bs3y776irq6Ovr27dvcYRlIJBKsra0N914XFhby4YIF6IG1a9c26x68gvD/naWlJd26dcPM1JQNGzbQ2t7+L++9/TTcuHGDyH37iIyM5MMPP3wqu6Y9KWIkLTwWnU5HdnY2ixcvxqtzZz77/PMWdaV044j/kyVLGDFiBPMXLBBT3ILwN5HL5cTExLBh/XrGjx/P1GnTMDU1be6wACguKmLz5s1kZ2fz+Rdf4OXl1dwh/VsiSQuPTa/XU15ezn99/DHV1dV88cUX9Pb1be6wUCgUREVFEb56NR9+9BHjxo1r7pAE4T+OWq0mMTGR8PBwLMzNWbxkCd7e3s0Wj0qlIikpic3ffYetnR2fffYZdnZ2zRbPwxJJWvjL5HI5+/buZf369YwePZoFH37YLB/+xnugV61axc0bN/jqq6/u2WlMEIS/1/Xr19m7Zw//+te/mDhxIlNCQ//WW5y0Wi25ubl89913JF+8yNRp0wgICGhZt1n9GyJJC0+ETqejpLiY5WFhyGQy5s+bx8RJk57aJit30mq15OXlEREeTmJiInPnziUgMPBv6VsQhD+n1Wi4dOkS69ev58qVK0yfPp2Ro0Y98Qdz3Emv11NcXMz2bduIiYlh3PjxhISE/J8YPd9JJGnhiVKpVMhkMlavWsW1oiKmhIQQ/PrrODk5PfG+Gh+SsWvXLo4cOULolClMnTrVsFWoIAgtS319PefPn2fnzp1cunSJwMBAAgIC/tK+33eTy+UkJydz+NAhzp07x+AXXmDmzJm4uLg8sT7+TiJJC0+FRqMhOTmZ3bt3c/LkSV4eOpQxY8bQt2/fv5RE1Wo1yRcvEnX8ODExMdTW1vLaa6/x9ttvP5UfAoIgPHkajYacnBx27drFiRMnaNeuHVKpFOmAAfTq3fuRR9g1NTXEy2RER0dz9uxZXFxcGPXKKwwbNuyJ/gBoDiJJC0+VXq+nsrKSH374gZiYGFJTUvD09KS/nx99+/bF3d0dR8eGp/jceXW4UqmkpKSEkuJiyisqKCsr41JmJqdPn8bWzo5hw4YxauRIevj4/K1bpAqC8OTo9Xpu3rxJUlISMpmMP+Ljyc/Pp2OnTnTq1AkbGxvs7e1xc3PD1tYWrVZLWVkZRUVFlJeXU3F7u+UbN27g07MnI0eOxN/f///sqPl+RJIW/lZyuZykpCTi4+NJTEigpLSUmzduUFlZiVarxdHREYVCgVwux9XVFRdXVxwcHHB2dqZTx4684O9Px44dm/swBEF4ChqTdlpaGgUFBVRXV3OjuprS0lJqamowNjHBzdUVVzc32rVti5OzM26urjg7O2P1FNe3m5NI0oIgCILQQkmaOwBBEARBEO5PJGlBEARBaKFEkhYEQRCEFkokaUEQBEFooUSSFgRBEIQWSiRpQRAEQWihRJIWBEEQhBZKJGlBEARBaKFEkhYEQRCEFkokaUEQBEFooZo8mUCj0bBx40bycnObKx5BEARB+I9gampKb19f3njjjQfWaZKkjYyM6NG9O87Ozk89OEEQBEH4T2ZsbIy7u/u/rSMesCEIgiAILZRYkxYEQRCEFkokaUEQBEFooUSSFgRBEIQWSiRpQRAEQWihmlzdrdPpuHDhAitXrGhSydTUlA/mzWPlihWYmpqy6OOP8fHxISsri71793IpMxMPDw/GjR/PgAEDOH/+PKtWrsTMzIyFixbRtWtXli1bRkF+Plu2biUyMpJDBw8a2pdIJLRv355p06dTVVXF6lWr7uk/IDCQCRMmGMrq6+sJnTKlSb1WrVqxbfv2JmV6vZ6SkhL+uXs3Fy5cwN7BgbfeegupVIpGo+HUqVPs2bMHhVzO4MGDmfXee490AuVyOV9//TWXMjMNZcbGxjzXpw8LFy58pLYel0qlIjY2lrS0NDw9PRk3btyf1k1PS8OzfXvGjh37VGOrra1l44YNJCQkYGNjw/wFC+jevTsASqWS2NhYMtLTad+hA0OHDiUyMpJfT5ygb79+zJs374nFUV5ezuz338fOzo558+fTrVu3x27r+vXrrFq1ipLiYgICAxk9evQTi/Nh1dfXExcXx+VLl+jUuTOjRo166PdWVFQQHh5OeVkZw4YPp6amhjOnTzNAKuW9R/z8C4LwdJncXXDz5k1iY2OblJmbmxM6dSqxsbGYm5tTU1NDRkYGEyZMoLamxlBv//79bNq0CWMTE2JjY7GwsGBWXR06nY601FRSUlLQ6XRcu3r1nj7OnDnDsagowsLC7tv/wIEDm5RpNJp76tnY2NxzgLdu3eLNN98kMyPDUHYiOpotW7dSUV7O3LlzsbWzw9XVleXLl1NbV8eiRYv+7Lw1iSM1JYU//vjDUGZqaoqVldVDt/FXqdVq4mUytm/f/qexq9VqZL//zs6dO1n4CMf5OOrr69mzZw9r166ltb09fv37N3ldpVLxe1wce/bsYeHChWi1WgqvXOH333/Hzs7uqcb2V6hUKlKSk8nNzWXw4MHNEoNCoSD2zBl++umnR/q8QsOPo5TkZAoKCujevTtVVVXIZDKcnJyeUrSCIDyue5J0I0tLS/Ly8w3/lsvlhv/WaDR8v3kzdbW1eHl5sS8ykm++/poDBw6we/dupoSG/mnHxsbGDB06lC1bt3Lo4EFmz57NzRs3SEtLA8Da2pqs7Oz7vlej0SCTyTA2Nqa3r6/hS8rEpOnhaLVaUlJSMDExYeTIkaxbv56xY8eSn5fHubNniY+Px8zMjNDQUAIDAxk0cCDbtm595C+9xvO1aNEi3p01y1CmUqmIOnaM06dPUy+XM3DgQIKDgzl79ixrIiKwsbFh1erVvD1jBlZWVsyeM4eMjAyif/kF6cCBZGZm8s477+Dj42M4noz0dLZs2UJZWRkdO3Zk3PjxpKamcvDgQRQKBfv27cPZxYWRI0dyPCqKCwkJ5Ofl4efnRw8fH/Ly8jh06BByuZzIfftwcXFh1KhRXLhwgaioKMrKyvD19WXSpEnY2dlx7do19u7ZQ2JiIo5OTkx47TWGDB3a5NjVajXnz5/n2LFjFOTnM3jwYAICA6mpqeFiUhLGxsZ4e3vz9jvvGEbR9fX1REZGcvjwYerr69m3bx9WrVoBDTM6VwoLWbp0KSXFxcx891369etHXV0d27dvJzU1lfaenvTv35+Xhgy5J5bU1FR2bN9ORUUFnTt3ZlJQEI6OjoY61dXVfPLJJxQXFfHSkCGkpqTg4urKsGHD+OX4cWpra3l1zBg8PDyYM3s21tbWDB8+nKNHj/LiSy/xyiuv3PM5KywsZN/evWRmZiKVSnnB3/+e0XpjbAd+/JGrV6/i7+/PhIAAbGxsuHLlCpH79pGRkUFvX19GjRqFu7s7kZGR/B4Xx/N9+5KdnY2JiQkTJ04kMTGRo0ePUltby759+5AYG5OZmUlZaSkDpFLS09L4+ptvOH/+PFFRURRdu4a/vz+v3TEb9SDV1dXs2rWLjIwMOnTogJ+fH7169WL//v3Ey2T06t2boqIipk6dSteuXf+0PUEQHt8Dk7RGoyF89WokEgl9nn+ePn36GF7T6XSkpadjbGLCiJEjcXZ2JmTKFAYOGoSLiwsKheJPO9br9eTk5LAmIoKU1FSgYTMVBwcHoOHXfvjq1RgZGfGsh0eTqe47qdVqdu7cSRsHB8beNc1rbGyMVCrl+PHjZGdnc/z4ca5du2aYji4sLOT8+fOkJCdjaWlpOG6ZTIZUKv3TY7j7fJ05cwa5XI6lpSWhU6fy3XffEbZ8Oe7u7lhaWRF17Bh//PEHo0aNIjY2FgcHB9RqNbGxsdja2hIyZQpXCws5efIkJ0+exNbW1rATjU6nIzc3l8CJE7G0tCRo0iR+/vlnrly5wvN9+1JTW2uIRalU8tOBAyxcuJAOHTowQCpl2bJlPPPMM0yfMaNJXY1GQ0JCAgEBATg5OTF8+HCWLVvGqVOn2LhxI3PnzCEtLY3JwcFkZmSwfPlynJyd6dGjh+H8nzp1itApU2htb0/HDh348ssv+fHHH3nrrbc4eHtZQ/b777w3axYJiYmGvnU6XZNY7vybpiQnU1dXR25ODpWVlWzfsYPF//VfREdHM/iFF4g6fpx//vOfrF271pCotVotly5dIjg4GGtra8aPG0dUVBTl5eW8O2sWsbGxODk5MXbcOFJTUkhISEAWH49Op6OutpaI8HCcnJwoLS0l/o8/+P7774mNjcXKygqFUsm5c+dISkri7q0FSkpKCAwI4NatW7w6ZgzhERFE7t/P9u3b8fDwMMSWnp5OUFAQapWKZz08kH39NVnZ2bz++utMmzqV6upqfHx8+Pbbb9m3dy8Ra9ZwpaCA6Ohozl+4gL29PQX5+aSnpfHqmDHU1tU1+ZunJCeTkJDAsWPHcHd3Jzo6mlnvvkubNm1wd3fniy++ICoqis8+//yBn+PS0lKWfvIJp8+cYcCAARz5+Wci9+1j6dKlFOTnExUVRVRUFO7u7gQFBT3c/xyCIDy2B144plarCQsLY9WqVSTd8cUKDV+uGenpGAFWlpbs3buX5d98w48//MB33377UB3rdDry8vJYuXIl0b/8goWFBcvDwnB1dQUaRqFhYWGsXLmSw4cOPbCNwsJC8vLy2LFjB1NCQsjLy7unnkql4qcDB5gzezby+noGDRpEz549mfH227i4uPDbb7+xceNG2rVr91Cx349area3334jLCyMdevWoVQqOXTwIFZWVvzPl1+yefNmVCoVJ6KjqbljieB+jIyMcGvblnXr1uHl5WU41qKiImpu3qSqspJTp07RuXNnQkNDmTJlCt26dsXCwoLJkyczadIkJgQEsHbtWjp17szlS5eAhmn4Xr160a1r14ZEP3kyI4YP50R0NFaWloSEhPDxxx/TqWNHki9e5Jfjx8nIyEChUBBz8iSWlpYEBgYaEjQ0zLCcOHECS0tLpk+fzpatW+nUuTPXrl0DYPz48ZiamiIdOJCNmzYZ3mdlZcWECRPo1rUrVlZWTJ48mTFjxgANyxvDhg1j7pw5aDQaiouLuXXrFocOHaJ169b84x//YPq0adysqWHL1q2GNrVareEcVZSXExsXh7e3N0FBQbRu3fqe82xjY8O7M2fyenAwFhYWjBgxgsWLFxuSdiNra2tCQ0N5PTjYsBZ85/HLZDIqKyvp7+fHkiVLGD16NCXFxRw+fNhQT6FQkJSYiFql4qUhQzhw4AABAQE86+5OYkICVVVV+L/4Ilu3bePVV1+lrq6OmJgYw/mQSqW8N2sWarWauro6xo8fj7eXF9bW1kyePNmwJm1ubs6LL73E/3z5JTExMdja2vLOzJls3LQJz/btycvLIzUl5YGfvZs3b3L06FGcnZ1ZtmwZISEhVF2/zs5duwCQ3J4VWb58OR06dPi3n2NBEP66B46kzc3N2blrV0PCcHNr8pqRkRHu7u6UlJZSW1eHo5MTVdevk5GejoWFxUNNd0skEnr26sWL/v5ERERgbGyMr6+vIclaWlqyfccOjIyMsLW1bRq0iQkvv/wykfv3Y2trS4cOHRg7dix5ubkcj4rivfffBxoSW05ODqWlpQwcNIi+/fqxc+dOfvvtN9ZERPDVsmX8LpNx5MgRevXqxaCBA7Gzs3vkUXTj+QoODmbUK69gamqKVqslMzMTa2trrK2tsbe3BxoSSWMCexATExOe8/Vl2PDhTcr69+/PnDlz2L5jBykpKaSkpHDu3DnCIyKavF+hULBr1y4+/+wz3Nq2ZebMmZw9e/a+fanUahISElAoFPz4ww/EnjlDUVERer2eyspKvvzyS1asWEF+fj75+fmGdt5+5x2g4cfJ5UuXkEgkPNOqVcPfy8aG4qIiqqqqcHV1RSKR4OToSP+71qQflkKp5Nztfquqqvhg7lwqKitRq1RkXb5sqGdmZoZUKmXWrFns2r2blORkw+jy088+e6y+76bT6bh11wg2LTUVjUZDUmIiM6ZP58qVK6hUKnLuWK5Rq9Xk5+cjkUiwsbbG0dGR5WFhVFdXs3rVKkN543lUKpXkZGfz7LPPPlJ8zzzzDCNHjMDHx4f169YZ2jM2NsbG2prrVVUUFBTc9723bt0i4cIFAEqKi5n3wQdUVFSgVCjIyc5u+CFobk6fPn3uWWYQBOHpeGCSlkgkvPDCC4Z/37kmbWJiQmBgIOHh4WzevJlp06ZhdzuRGhkZGUbDarWadbdHc/Hx8Xh7exvaMDIywrFNGyYHBxMREYFarWb//v08//zzQEMya/zCMDY2pq6uzpA8G6fC169fj0/Pnvj6+pKZkUGrVq3o1r07u3fv5uiRI3Tv0YMu3t7MnTuXNo6OvPnGG1y7dq0hAVVVsW3bNpZ+8gmenp4899xzmJqaNkmMj0IikeDh4WE4Z3V1dbw8bBhxsbGcPHmSjIwMjIyMaG1vb1irVKlUnPz114dqX6PRkJiYSFpaGqGhoXh7ebFr1y7S09PJzckxnG+ZTMazHh4cPXIES0tLJk2aRM+ePe9pT6VSES+T4enpiZubG0YSCQ4ODkilUlrb26NRq7GxsSH6xAkGSKWMGTOGg//6F1FRUVzOyjK0Y2FhwQv+/iQnJxMfH4+TszMZmZlYmJszQCol+pdf/vTYlEol8fHxeLZvf9/XTYyNcbq9n7yZmRk+PXuiVqlwdXHBw9OzyTElJiaSlZXF9OnT6dC+Pbt37yYnJ+e+MywPS6lUkpiQQFZ2NmZmZnT28iIlObkhNhMTnF1cDOdiwIABuLu7U11dTe/evQ1tWFpa0t/Pjy1btpB08SKRkZEsmD+fzl5efPTRR2zdupWkixeJPXOGixcv0qpVK6QDB3Lt6tV/G5tCoUAmk2F310xB4/szMzORyWRYWFpyOSsL+9at6duvHzKZ7J62TE1Ncbx98Zi5hQU9e/VCqVTi5uaG/e1lqEbl5eVEhIdTXl5O4MSJjBw58tFPrCAIf+qx7pM2MTHhrZAQZsyYgUat5vvNm8m4fcGMRCKha9euhK1YgVWrVpw+fZqtW7bQxtGRxYsXN2nHyMgIFxcXJk6caEjSjRqnu8PCwli9ejUXk5IMr5mZmfHGm2/Sr18/LiYlsW3rVszMzXn7nXcYMGAA165eJS4ujtycHF4dM4bQqVOpKC8nPDycy5cu0bFjR2bNmsXQoUPp378/eXl5/PTTT3Tq1IkZM2Y85qlsytLSkoUffUTv3r3ZsH49n336KV26dGHNmjV06dIFaxsbbt26RXh4OF0e4uIbExMTfHx8kMvlrFu7ltmzZ5OUlGS4+CgoKAiVSkVcXBzZWVkEBQVRX1/PurVrWbp0qaEPKyurJnXz8vL48KOP6PPcc1y4cIHVq1fzW0wMDm3a8NKQIXh6ePDjDz8wJSSEw4cP4+XlRegdMyWtWrVixvTpjBo1iqioKN6bNQtbW1sWL1liuEjsQVq1asXEiRNRKpXExcU9cBrWxMQEX19fvvjv/0YPfLtpE9u2beNKYSEjR4ww1DMzM6N79+7U1NSwJiKCDz74gNTUVPz9/RlxR71HVVdXx/79+zlz+jSubm5Nblt75plnCA4OJmjyZK5evcrq1as5eOgQao2G/n5+hnrm5ub079eP0aNHk52VxYL58/Hw9GTRokUMHjyYD+bNo6SkhJkzZ5KVlcUbb77JpEmTHhiTra0tr732mmH6Pf32BZeN7OzsmD59OkOGDOHw4cMsmD8fR0dHwy2R92NmZka/fv1Y8sknqFUqvt20iR07dlBSWsqwl19uUlepVJKSksLZs2cpLy9/nNMqCMJDaPKADb1eT0VFBZduT18OGjTIUFGn0xEXF2dIwg4ODoaLmcrLy5FKpVRUVJCdnW24XUqn05GcnIxEIqFXr16GstzcXEpLS7GxscHHx4fc3FxKSkowMjLCycmJsrKyJkFKJBLc3NzuWQNrnM6uqKigS5cuhphycnIoKyvD1taWnj17otfrKS8vJysry1DWSKvVkpycjEKheKxpbo1GQ0pKCvX19bRt25b2d40GtVoteXl5KBQKw1XaOp2OiooKcnJy6Hx7/VahUNC5c2eqq6spKyvDzs7OUP/u9hrP+Z39NZZfv34dPz8/dDodlZWVhrhSU1ORy+W0bduWdu3akZubS3V1NX63E0njlceNdTxvj1B1Oh3l5eVkZ2fTunXrJuvRd/8tysrKKCwsNExrazQaQ6z29vb3TdqNdW7cuEGfPn3Izc2loqICW1tb2rRpQ3Z2NhYWFvTr18/Qx51l96NWq8nLy6OyspJ27drh4eGBQqHg3LlzmJqa0r59e4qKilAoFDg7O6PVag19Ojg4kJOTg4WFBU5OTgzw88PZ2Zm169ZhZmaGt7c3VlZWpKWloVQqadu2LR4eHqjVanJzc6msrMT+jtmS+8XWeLze3t5N1srlcjnJycmG8jvbtLW1xd7entzcXKysrHj++edRqVTk5eVRV1dHjx49SE9PR6lU0q5dO8M0uVarpbS0lJKSEsMslUKhMNR1cnJCo9FQWVmJg4MDXbt2Nbznfn011mvfvv19+xME4ckST8EShAcoKCgwJOnN33//wB8FgiAIT4tI0oLwAI2j78YR9P2uEBe6xu4OAAAAJElEQVQEQXiaRJIWBEEQhBZKPGBDEARBEFookaQFQRAEoYX6X2RHs403DtDHAAAAAElFTkSuQmCC;" parent="1" vertex="1">
                    <mxGeometry x="60" y="50" width="613.99" height="560" as="geometry"/>
                </mxCell>
                <mxCell id="3" value="&lt;font color=&quot;#000000&quot; style=&quot;font-size: 16px&quot;&gt;空闲&lt;br&gt;状态&lt;br&gt;&lt;/font&gt;" style="text;html=1;align=center;verticalAlign=middle;resizable=0;points=[];autosize=1;fontSize=16;" parent="1" vertex="1">
                    <mxGeometry x="135" y="130" width="50" height="40" as="geometry"/>
                </mxCell>
                <mxCell id="4" value="&lt;font color=&quot;#000000&quot; style=&quot;font-size: 16px&quot;&gt;分配状态&lt;br&gt;从主存读取新块&lt;br&gt;&lt;/font&gt;&lt;span style=&quot;color: rgba(0 , 0 , 0 , 0) ; font-family: monospace ; font-size: 0px&quot;&gt;从%3CmxGraphModel%3E%3Croot%3E%3CmxCell%20id%3D%220%22%2F%3E%3CmxCell%20id%3D%221%22%20parent%3D%220%22%2F%3E%3CmxCell%20id%3D%222%22%20value%3D%22%26lt%3Bfont%20color%3D%26quot%3B%23000000%26quot%3B%20style%3D%26quot%3Bfont-size%3A%2016px%26quot%3B%26gt%3B%E7%A9%BA%E9%97%B2%26lt%3Bbr%26gt%3B%E7%8A%B6%E6%80%81%26lt%3Bbr%26gt%3B%26lt%3B%2Ffont%26gt%3B%22%20style%3D%22text%3Bhtml%3D1%3Balign%3Dcenter%3BverticalAlign%3Dmiddle%3Bresizable%3D0%3Bpoints%3D%5B%5D%3Bautosize%3D1%3BfontSize%3D16%3B%22%20vertex%3D%221%22%20parent%3D%221%22%3E%3CmxGeometry%20x%3D%22135%22%20y%3D%22130%22%20width%3D%2250%22%20height%3D%2240%22%20as%3D%22geometry%22%2F%3E%3C%2FmxCell%3E%3C%2Froot%3E%3C%2FmxGraphModel%3E&lt;/span&gt;&lt;font color=&quot;#000000&quot; style=&quot;font-size: 16px&quot;&gt;&lt;br&gt;&lt;/font&gt;" style="text;html=1;align=center;verticalAlign=middle;resizable=0;points=[];autosize=1;fontSize=16;" parent="1" vertex="1">
                    <mxGeometry x="60" y="355" width="130" height="70" as="geometry"/>
                </mxCell>
                <mxCell id="5" value="&lt;font color=&quot;#000000&quot; style=&quot;font-size: 16px&quot;&gt;标签比较&lt;br&gt;&lt;/font&gt;&lt;span style=&quot;color: rgba(0 , 0 , 0 , 0) ; font-family: monospace ; font-size: 0px&quot;&gt;%3CmxGraphModel%3E%3Croot%3E%3CmxCell%20id%3D%220%22%2F%3E%3CmxCell%20id%3D%221%22%20parent%3D%220%22%2F%3E%3CmxCell%20id%3D%222%22%20value%3D%22%26lt%3Bfont%20color%3D%26quot%3B%23000000%26quot%3B%20style%3D%26quot%3Bfont-size%3A%2016px%26quot%3B%26gt%3B%E5%88%86%E9%85%8D%E7%8A%B6%E6%80%81%26lt%3B%2Ffont%26gt%3B%26lt%3Bspan%20style%3D%26quot%3Bcolor%3A%20rgba(0%20%2C%200%20%2C%200%20%2C%200)%20%3B%20font-family%3A%20monospace%20%3B%20font-size%3A%200px%26quot%3B%26gt%3B%253CmxGraphModel%253E%253Croot%253E%253CmxCell%2520id%253D%25220%2522%252F%253E%253CmxCell%2520id%253D%25221%2522%2520parent%253D%25220%2522%252F%253E%253CmxCell%2520id%253D%25222%2522%2520value%253D%2522%2526lt%253Bfont%2520color%253D%2526quot%253B%2523000000%2526quot%253B%2520style%253D%2526quot%253Bfont-size%253A%252016px%2526quot%253B%2526gt%253B%25E7%25A9%25BA%25E9%2597%25B2%2526lt%253Bbr%2526gt%253B%25E7%258A%25B6%25E6%2580%2581%2526lt%253Bbr%2526gt%253B%2526lt%253B%252Ffont%2526gt%253B%2522%2520style%253D%2522text%253Bhtml%253D1%253Balign%253Dcenter%253BverticalAlign%253Dmiddle%253Bresizable%253D0%253Bpoints%253D%255B%255D%253Bautosize%253D1%253BfontSize%253D16%253B%2522%2520vertex%253D%25221%2522%2520parent%253D%25221%2522%253E%253CmxGeometry%2520x%253D%2522135%2522%2520y%253D%2522130%2522%2520width%253D%252250%2522%2520height%253D%252240%2522%2520as%253D%2522geometry%2522%252F%253E%253C%252FmxCell%253E%253C%252Froot%253E%253C%252FmxGraphModel%253E%26lt%3B%2Fspan%26gt%3B%26lt%3Bfont%20color%3D%26quot%3B%23000000%26quot%3B%20style%3D%26quot%3Bfont-size%3A%2016px%26quot%3B%26gt%3B%26lt%3Bbr%26gt%3B%26lt%3B%2Ffont%26gt%3B%22%20style%3D%22text%3Bhtml%3D1%3Balign%3Dcenter%3BverticalAlign%3Dmiddle%3Bresizable%3D0%3Bpoints%3D%5B%5D%3Bautosize%3D1%3BfontSize%3D16%3B%22%20vertex%3D%221%22%20parent%3D%221%22%3E%3CmxGeometry%20x%3D%22130%22%20y%3D%22365%22%20width%3D%2280%22%20height%3D%2230%22%20as%3D%22geometry%22%2F%3E%3C%2FmxCell%3E%3C%2Froot%3E%3C%2FmxGraphModel%3E&lt;/span&gt;&lt;font color=&quot;#000000&quot; style=&quot;font-size: 16px&quot;&gt;状态&lt;/font&gt;&lt;span style=&quot;color: rgba(0 , 0 , 0 , 0) ; font-family: monospace ; font-size: 0px&quot;&gt;%3CmxGraphModel%3E%3Croot%3E%3CmxCell%20id%3D%220%22%2F%3E%3CmxCell%20id%3D%221%22%20parent%3D%220%22%2F%3E%3CmxCell%20id%3D%222%22%20value%3D%22%26lt%3Bfont%20color%3D%26quot%3B%23000000%26quot%3B%20style%3D%26quot%3Bfont-size%3A%2016px%26quot%3B%26gt%3B%E7%A9%BA%E9%97%B2%26lt%3Bbr%26gt%3B%E7%8A%B6%E6%80%81%26lt%3Bbr%26gt%3B%26lt%3B%2Ffont%26gt%3B%22%20style%3D%22text%3Bhtml%3D1%3Balign%3Dcenter%3BverticalAlign%3Dmiddle%3Bresizable%3D0%3Bpoints%3D%5B%5D%3Bautosize%3D1%3BfontSize%3D16%3B%22%20vertex%3D%221%22%20parent%3D%221%22%3E%3CmxGeometry%20x%3D%22135%22%20y%3D%22130%22%20width%3D%2250%22%20height%3D%2240%22%20as%3D%22geometry%22%2F%3E%3C%2FmxCell%3E%3C%2Froot%3E%3C%2FmxGraphModel%3E&lt;/span&gt;&lt;font color=&quot;#000000&quot; style=&quot;font-size: 16px&quot;&gt;&lt;br&gt;&lt;/font&gt;" style="text;html=1;align=center;verticalAlign=middle;resizable=0;points=[];autosize=1;fontSize=16;" parent="1" vertex="1">
                    <mxGeometry x="580" y="90" width="80" height="50" as="geometry"/>
                </mxCell>
                <mxCell id="6" value="&lt;font color=&quot;#000000&quot; style=&quot;font-size: 16px&quot;&gt;写回&lt;/font&gt;&lt;span style=&quot;color: rgba(0 , 0 , 0 , 0) ; font-family: monospace ; font-size: 0px&quot;&gt;%3CmxGraphModel%3E%3Croot%3E%3CmxCell%20id%3D%220%22%2F%3E%3CmxCell%20id%3D%221%22%20parent%3D%220%22%2F%3E%3CmxCell%20id%3D%222%22%20value%3D%22%26lt%3Bfont%20color%3D%26quot%3B%23000000%26quot%3B%20style%3D%26quot%3Bfont-size%3A%2016px%26quot%3B%26gt%3B%E5%88%86%E9%85%8D%E7%8A%B6%E6%80%81%26lt%3B%2Ffont%26gt%3B%26lt%3Bspan%20style%3D%26quot%3Bcolor%3A%20rgba(0%20%2C%200%20%2C%200%20%2C%200)%20%3B%20font-family%3A%20monospace%20%3B%20font-size%3A%200px%26quot%3B%26gt%3B%253CmxGraphModel%253E%253Croot%253E%253CmxCell%2520id%253D%25220%2522%252F%253E%253CmxCell%2520id%253D%25221%2522%2520parent%253D%25220%2522%252F%253E%253CmxCell%2520id%253D%25222%2522%2520value%253D%2522%2526lt%253Bfont%2520color%253D%2526quot%253B%2523000000%2526quot%253B%2520style%253D%2526quot%253Bfont-size%253A%252016px%2526quot%253B%2526gt%253B%25E7%25A9%25BA%25E9%2597%25B2%2526lt%253Bbr%2526gt%253B%25E7%258A%25B6%25E6%2580%2581%2526lt%253Bbr%2526gt%253B%2526lt%253B%252Ffont%2526gt%253B%2522%2520style%253D%2522text%253Bhtml%253D1%253Balign%253Dcenter%253BverticalAlign%253Dmiddle%253Bresizable%253D0%253Bpoints%253D%255B%255D%253Bautosize%253D1%253BfontSize%253D16%253B%2522%2520vertex%253D%25221%2522%2520parent%253D%25221%2522%253E%253CmxGeometry%2520x%253D%2522135%2522%2520y%253D%2522130%2522%2520width%253D%252250%2522%2520height%253D%252240%2522%2520as%253D%2522geometry%2522%252F%253E%253C%252FmxCell%253E%253C%252Froot%253E%253C%252FmxGraphModel%253E%26lt%3B%2Fspan%26gt%3B%26lt%3Bfont%20color%3D%26quot%3B%23000000%26quot%3B%20style%3D%26quot%3Bfont-size%3A%2016px%26quot%3B%26gt%3B%26lt%3Bbr%26gt%3B%26lt%3B%2Ffont%26gt%3B%22%20style%3D%22text%3Bhtml%3D1%3Balign%3Dcenter%3BverticalAlign%3Dmiddle%3Bresizable%3D0%3Bpoints%3D%5B%5D%3Bautosize%3D1%3BfontSize%3D16%3B%22%20vertex%3D%221%22%20parent%3D%221%22%3E%3CmxGeometry%20x%3D%22130%22%20y%3D%22365%22%20width%3D%2280%22%20height%3D%2230%22%20as%3D%22geometry%22%2F%3E%3C%2FmxCell%3E%3C%2Froot%3E%3C%2FmxGraphModel%3E&lt;/span&gt;&lt;font color=&quot;#000000&quot; style=&quot;font-size: 16px&quot;&gt;状态&lt;br&gt;将旧块写回主存&lt;br&gt;&lt;/font&gt;&lt;span style=&quot;color: rgba(0 , 0 , 0 , 0) ; font-family: monospace ; font-size: 0px&quot;&gt;jk%3CmxGraphModel%3E%3Croot%3E%3CmxCell%20id%3D%220%22%2F%3E%3CmxCell%20id%3D%221%22%20parent%3D%220%22%2F%3E%3CmxCell%20id%3D%222%22%20value%3D%22%26lt%3Bfont%20color%3D%26quot%3B%23000000%26quot%3B%20style%3D%26quot%3Bfont-size%3A%2016px%26quot%3B%26gt%3B%E7%A9%BA%E9%97%B2%26lt%3Bbr%26gt%3B%E7%8A%B6%E6%80%81%26lt%3Bbr%26gt%3B%26lt%3B%2Ffont%26gt%3B%22%20style%3D%22text%3Bhtml%3D1%3Balign%3Dcenter%3BverticalAlign%3Dmiddle%3Bresizable%3D0%3Bpoints%3D%5B%5D%3Bautosize%3D1%3BfontSize%3D16%3B%22%20vertex%3D%221%22%20parent%3D%221%22%3E%3CmxGeometry%20x%3D%22135%22%20y%3D%22130%22%20width%3D%2250%22%20height%3D%2240%22%20as%3D%22geometry%22%2F%3E%3C%2FmxCell%3E%3C%2Froot%3E%3C%2FmxGraphModel%3E&lt;/span&gt;&lt;font color=&quot;#000000&quot; style=&quot;font-size: 16px&quot;&gt;&lt;br&gt;&lt;/font&gt;" style="text;html=1;align=center;verticalAlign=middle;resizable=0;points=[];autosize=1;fontSize=16;" parent="1" vertex="1">
                    <mxGeometry x="543.99" y="355" width="130" height="70" as="geometry"/>
                </mxCell>
                <mxCell id="7" value="&lt;font color=&quot;#000000&quot;&gt;主存未就绪&lt;/font&gt;&lt;span style=&quot;color: rgba(0 , 0 , 0 , 0) ; font-family: monospace ; font-size: 0px&quot;&gt;%3CmxGraphModel%3E%3Croot%3E%3CmxCell%20id%3D%220%22%2F%3E%3CmxCell%20id%3D%221%22%20parent%3D%220%22%2F%3E%3CmxCell%20id%3D%222%22%20value%3D%22%26lt%3Bfont%20color%3D%26quot%3B%23000000%26quot%3B%20style%3D%26quot%3Bfont-size%3A%2016px%26quot%3B%26gt%3B%E5%88%86%E9%85%8D%E7%8A%B6%E6%80%81%26lt%3B%2Ffont%26gt%3B%26lt%3Bspan%20style%3D%26quot%3Bcolor%3A%20rgba(0%20%2C%200%20%2C%200%20%2C%200)%20%3B%20font-family%3A%20monospace%20%3B%20font-size%3A%200px%26quot%3B%26gt%3B%253CmxGraphModel%253E%253Croot%253E%253CmxCell%2520id%253D%25220%2522%252F%253E%253CmxCell%2520id%253D%25221%2522%2520parent%253D%25220%2522%252F%253E%253CmxCell%2520id%253D%25222%2522%2520value%253D%2522%2526lt%253Bfont%2520color%253D%2526quot%253B%2523000000%2526quot%253B%2520style%253D%2526quot%253Bfont-size%253A%252016px%2526quot%253B%2526gt%253B%25E7%25A9%25BA%25E9%2597%25B2%2526lt%253Bbr%2526gt%253B%25E7%258A%25B6%25E6%2580%2581%2526lt%253Bbr%2526gt%253B%2526lt%253B%252Ffont%2526gt%253B%2522%2520style%253D%2522text%253Bhtml%253D1%253Balign%253Dcenter%253BverticalAlign%253Dmiddle%253Bresizable%253D0%253Bpoints%253D%255B%255D%253Bautosize%253D1%253BfontSize%253D16%253B%2522%2520vertex%253D%25221%2522%2520parent%253D%25221%2522%253E%253CmxGeometry%2520x%253D%2522135%2522%2520y%253D%2522130%2522%2520width%253D%252250%2522%2520height%253D%252240%2522%2520as%253D%2522geometry%2522%252F%253E%253C%252FmxCell%253E%253C%252Froot%253E%253C%252FmxGraphModel%253E%26lt%3B%2Fspan%26gt%3B%26lt%3Bfont%20color%3D%26quot%3B%23000000%26quot%3B%20style%3D%26quot%3Bfont-size%3A%2016px%26quot%3B%26gt%3B%26lt%3Bbr%26gt%3B%26lt%3B%2Ffont%26gt%3B%22%20style%3D%22text%3Bhtml%3D1%3Balign%3Dcenter%3BverticalAlign%3Dmiddle%3Bresizable%3D0%3Bpoints%3D%5B%5D%3Bautosize%3D1%3BfontSize%3D16%3B%22%20vertex%3D%221%22%20parent%3D%221%22%3E%3CmxGeometry%20x%3D%22130%22%20y%3D%22365%22%20width%3D%2280%22%20height%3D%2230%22%20as%3D%22geometry%22%2F%3E%3C%2FmxCell%3E%3C%2Froot%3E%3C%2FmxGraphModel&lt;/span&gt;&lt;font color=&quot;#000000&quot; style=&quot;font-size: 16px&quot;&gt;&lt;br&gt;&lt;/font&gt;&lt;span style=&quot;color: rgba(0 , 0 , 0 , 0) ; font-family: monospace ; font-size: 0px&quot;&gt;jk%3CmxGraphModel%3E%3Croot%3E%3CmxCell%20id%3D%220%22%2F%3E%3CmxCell%20id%3D%221%22%20parent%3D%220%22%2F%3E%3CmxCell%20id%3D%222%22%20value%3D%22%26lt%3Bfont%20color%3D%26quot%3B%23000000%26quot%3B%20style%3D%26quot%3Bfont-size%3A%2016px%26quot%3B%26gt%3B%E7%A9%BA%E9%97%B2%26lt%3Bbr%26gt%3B%E7%8A%B6%E6%80%81%26lt%3Bbr%26gt%3B%26lt%3B%2Ffont%26gt%3B%22%20style%3D%22text%3Bhtml%3D1%3Balign%3Dcenter%3BverticalAlign%3Dmiddle%3Bresizable%3D0%3Bpoints%3D%5B%5D%3Bautosize%3D1%3BfontSize%3D16%3B%22%20vertex%3D%221%22%20parent%3D%221%22%3E%3CmxGeometry%20x%3D%22135%22%20y%3D%22130%22%20width%3D%2250%22%20height%3D%2240%22%20as%3D%22geometry%22%2F%3E%3C%2FmxCell%3E%3C%2Froot%3E%3C%2FmxGraphModel%3E&lt;/span&gt;&lt;font color=&quot;#000000&quot; style=&quot;font-size: 16px&quot;&gt;&lt;br&gt;&lt;/font&gt;" style="text;html=1;align=center;verticalAlign=middle;resizable=0;points=[];autosize=1;fontSize=16;" parent="1" vertex="1">
                    <mxGeometry x="480" y="545" width="100" height="60" as="geometry"/>
                </mxCell>
                <mxCell id="8" value="&lt;font color=&quot;#000000&quot;&gt;主存未就绪&lt;/font&gt;&lt;span style=&quot;color: rgba(0 , 0 , 0 , 0) ; font-family: monospace ; font-size: 0px&quot;&gt;%3CmxGraphModel%3E%3Croot%3E%3CmxCell%20id%3D%220%22%2F%3E%3CmxCell%20id%3D%221%22%20parent%3D%220%22%2F%3E%3CmxCell%20id%3D%222%22%20value%3D%22%26lt%3Bfont%20color%3D%26quot%3B%23000000%26quot%3B%20style%3D%26quot%3Bfont-size%3A%2016px%26quot%3B%26gt%3B%E5%88%86%E9%85%8D%E7%8A%B6%E6%80%81%26lt%3B%2Ffont%26gt%3B%26lt%3Bspan%20style%3D%26quot%3Bcolor%3A%20rgba(0%20%2C%200%20%2C%200%20%2C%200)%20%3B%20font-family%3A%20monospace%20%3B%20font-size%3A%200px%26quot%3B%26gt%3B%253CmxGraphModel%253E%253Croot%253E%253CmxCell%2520id%253D%25220%2522%252F%253E%253CmxCell%2520id%253D%25221%2522%2520parent%253D%25220%2522%252F%253E%253CmxCell%2520id%253D%25222%2522%2520value%253D%2522%2526lt%253Bfont%2520color%253D%2526quot%253B%2523000000%2526quot%253B%2520style%253D%2526quot%253Bfont-size%253A%252016px%2526quot%253B%2526gt%253B%25E7%25A9%25BA%25E9%2597%25B2%2526lt%253Bbr%2526gt%253B%25E7%258A%25B6%25E6%2580%2581%2526lt%253Bbr%2526gt%253B%2526lt%253B%252Ffont%2526gt%253B%2522%2520style%253D%2522text%253Bhtml%253D1%253Balign%253Dcenter%253BverticalAlign%253Dmiddle%253Bresizable%253D0%253Bpoints%253D%255B%255D%253Bautosize%253D1%253BfontSize%253D16%253B%2522%2520vertex%253D%25221%2522%2520parent%253D%25221%2522%253E%253CmxGeometry%2520x%253D%2522135%2522%2520y%253D%2522130%2522%2520width%253D%252250%2522%2520height%253D%252240%2522%2520as%253D%2522geometry%2522%252F%253E%253C%252FmxCell%253E%253C%252Froot%253E%253C%252FmxGraphModel%253E%26lt%3B%2Fspan%26gt%3B%26lt%3Bfont%20color%3D%26quot%3B%23000000%26quot%3B%20style%3D%26quot%3Bfont-size%3A%2016px%26quot%3B%26gt%3B%26lt%3Bbr%26gt%3B%26lt%3B%2Ffont%26gt%3B%22%20style%3D%22text%3Bhtml%3D1%3Balign%3Dcenter%3BverticalAlign%3Dmiddle%3Bresizable%3D0%3Bpoints%3D%5B%5D%3Bautosize%3D1%3BfontSize%3D16%3B%22%20vertex%3D%221%22%20parent%3D%221%22%3E%3CmxGeometry%20x%3D%22130%22%20y%3D%22365%22%20width%3D%2280%22%20height%3D%2230%22%20as%3D%22geometry%22%2F%3E%3C%2FmxCell%3E%3C%2Froot%3E%3C%2FmxGraphModel&lt;/span&gt;&lt;font color=&quot;#000000&quot; style=&quot;font-size: 16px&quot;&gt;&lt;br&gt;&lt;/font&gt;&lt;span style=&quot;color: rgba(0 , 0 , 0 , 0) ; font-family: monospace ; font-size: 0px&quot;&gt;jk%3CmxGraphModel%3E%3Croot%3E%3CmxCell%20id%3D%220%22%2F%3E%3CmxCell%20id%3D%221%22%20parent%3D%220%22%2F%3E%3CmxCell%20id%3D%222%22%20value%3D%22%26lt%3Bfont%20color%3D%26quot%3B%23000000%26quot%3B%20style%3D%26quot%3Bfont-size%3A%2016px%26quot%3B%26gt%3B%E7%A9%BA%E9%97%B2%26lt%3Bbr%26gt%3B%E7%8A%B6%E6%80%81%26lt%3Bbr%26gt%3B%26lt%3B%2Ffont%26gt%3B%22%20style%3D%22text%3Bhtml%3D1%3Balign%3Dcenter%3BverticalAlign%3Dmiddle%3Bresizable%3D0%3Bpoints%3D%5B%5D%3Bautosize%3D1%3BfontSize%3D16%3B%22%20vertex%3D%221%22%20parent%3D%221%22%3E%3CmxGeometry%20x%3D%22135%22%20y%3D%22130%22%20width%3D%2250%22%20height%3D%2240%22%20as%3D%22geometry%22%2F%3E%3C%2FmxCell%3E%3C%2Froot%3E%3C%2FmxGraphModel%3E&lt;/span&gt;&lt;font color=&quot;#000000&quot; style=&quot;font-size: 16px&quot;&gt;&lt;br&gt;&lt;/font&gt;" style="text;html=1;align=center;verticalAlign=middle;resizable=0;points=[];autosize=1;fontSize=16;" parent="1" vertex="1">
                    <mxGeometry x="160" y="550" width="100" height="60" as="geometry"/>
                </mxCell>
                <mxCell id="9" value="&lt;font color=&quot;#000000&quot;&gt;主存就绪&lt;/font&gt;&lt;span style=&quot;color: rgba(0 , 0 , 0 , 0) ; font-family: monospace ; font-size: 0px&quot;&gt;%3CmxGraphModel%3E%3Croot%3E%3CmxCell%20id%3D%220%22%2F%3E%3CmxCell%20id%3D%221%22%20parent%3D%220%22%2F%3E%3CmxCell%20id%3D%222%22%20value%3D%22%26lt%3Bfont%20color%3D%26quot%3B%23000000%26quot%3B%20style%3D%26quot%3Bfont-size%3A%2016px%26quot%3B%26gt%3B%E5%88%86%E9%85%8D%E7%8A%B6%E6%80%81%26lt%3B%2Ffont%26gt%3B%26lt%3Bspan%20style%3D%26quot%3Bcolor%3A%20rgba(0%20%2C%200%20%2C%200%20%2C%200)%20%3B%20font-family%3A%20monospace%20%3B%20font-size%3A%200px%26quot%3B%26gt%3B%253CmxGraphModel%253E%253Croot%253E%253CmxCell%2520id%253D%25220%2522%252F%253E%253CmxCell%2520id%253D%25221%2522%2520parent%253D%25220%2522%252F%253E%253CmxCell%2520id%253D%25222%2522%2520value%253D%2522%2526lt%253Bfont%2520color%253D%2526quot%253B%2523000000%2526quot%253B%2520style%253D%2526quot%253Bfont-size%253A%252016px%2526quot%253B%2526gt%253B%25E7%25A9%25BA%25E9%2597%25B2%2526lt%253Bbr%2526gt%253B%25E7%258A%25B6%25E6%2580%2581%2526lt%253Bbr%2526gt%253B%2526lt%253B%252Ffont%2526gt%253B%2522%2520style%253D%2522text%253Bhtml%253D1%253Balign%253Dcenter%253BverticalAlign%253Dmiddle%253Bresizable%253D0%253Bpoints%253D%255B%255D%253Bautosize%253D1%253BfontSize%253D16%253B%2522%2520vertex%253D%25221%2522%2520parent%253D%25221%2522%253E%253CmxGeometry%2520x%253D%2522135%2522%2520y%253D%2522130%2522%2520width%253D%252250%2522%2520height%253D%252240%2522%2520as%253D%2522geometry%2522%252F%253E%253C%252FmxCell%253E%253C%252Froot%253E%253C%252FmxGraphModel%253E%26lt%3B%2Fspan%26gt%3B%26lt%3Bfont%20color%3D%26quot%3B%23000000%26quot%3B%20style%3D%26quot%3Bfont-size%3A%2016px%26quot%3B%26gt%3B%26lt%3Bbr%26gt%3B%26lt%3B%2Ffont%26gt%3B%22%20style%3D%22text%3Bhtml%3D1%3Balign%3Dcenter%3BverticalAlign%3Dmiddle%3Bresizable%3D0%3Bpoints%3D%5B%5D%3Bautosize%3D1%3BfontSize%3D16%3B%22%20vertex%3D%221%22%20parent%3D%221%22%3E%3CmxGeometry%20x%3D%22130%22%20y%3D%22365%22%20width%3D%2280%22%20height%3D%2230%22%20as%3D%22geometry%22%2F%3E%3C%2FmxCell%3E%3C%2Froot%3E%3C%2FmxGraphModel&lt;/span&gt;&lt;font color=&quot;#000000&quot; style=&quot;font-size: 16px&quot;&gt;&lt;br&gt;&lt;/font&gt;&lt;span style=&quot;color: rgba(0 , 0 , 0 , 0) ; font-family: monospace ; font-size: 0px&quot;&gt;jk%3CmxGraphModel%3E%3Croot%3E%3CmxCell%20id%3D%220%22%2F%3E%3CmxCell%20id%3D%221%22%20parent%3D%220%22%2F%3E%3CmxCell%20id%3D%222%22%20value%3D%22%26lt%3Bfont%20color%3D%26quot%3B%23000000%26quot%3B%20style%3D%26quot%3Bfont-size%3A%2016px%26quot%3B%26gt%3B%E7%A9%BA%E9%97%B2%26lt%3Bbr%26gt%3B%E7%8A%B6%E6%80%81%26lt%3Bbr%26gt%3B%26lt%3B%2Ffont%26gt%3B%22%20style%3D%22text%3Bhtml%3D1%3Balign%3Dcenter%3BverticalAlign%3Dmiddle%3Bresizable%3D0%3Bpoints%3D%5B%5D%3Bautosize%3D1%3BfontSize%3D16%3B%22%20vertex%3D%221%22%20parent%3D%221%22%3E%3CmxGeometry%20x%3D%22135%22%20y%3D%22130%22%20width%3D%2250%22%20height%3D%2240%22%20as%3D%22geometry%22%2F%3E%3C%2FmxCell%3E%3C%2Froot%3E%3C%2FmxGraphModel%3E&lt;/span&gt;&lt;font color=&quot;#000000&quot; style=&quot;font-size: 16px&quot;&gt;&lt;br&gt;&lt;/font&gt;" style="text;html=1;align=center;verticalAlign=middle;resizable=0;points=[];autosize=1;fontSize=16;" parent="1" vertex="1">
                    <mxGeometry x="324" y="460" width="80" height="60" as="geometry"/>
                </mxCell>
                <mxCell id="10" value="&lt;font color=&quot;#000000&quot;&gt;主存就绪&lt;/font&gt;&lt;span style=&quot;color: rgba(0 , 0 , 0 , 0) ; font-family: monospace ; font-size: 0px&quot;&gt;%3CmxGraphModel%3E%3Croot%3E%3CmxCell%20id%3D%220%22%2F%3E%3CmxCell%20id%3D%221%22%20parent%3D%220%22%2F%3E%3CmxCell%20id%3D%222%22%20value%3D%22%26lt%3Bfont%20color%3D%26quot%3B%23000000%26quot%3B%20style%3D%26quot%3Bfont-size%3A%2016px%26quot%3B%26gt%3B%E5%88%86%E9%85%8D%E7%8A%B6%E6%80%81%26lt%3B%2Ffont%26gt%3B%26lt%3Bspan%20style%3D%26quot%3Bcolor%3A%20rgba(0%20%2C%200%20%2C%200%20%2C%200)%20%3B%20font-family%3A%20monospace%20%3B%20font-size%3A%200px%26quot%3B%26gt%3B%253CmxGraphModel%253E%253Croot%253E%253CmxCell%2520id%253D%25220%2522%252F%253E%253CmxCell%2520id%253D%25221%2522%2520parent%253D%25220%2522%252F%253E%253CmxCell%2520id%253D%25222%2522%2520value%253D%2522%2526lt%253Bfont%2520color%253D%2526quot%253B%2523000000%2526quot%253B%2520style%253D%2526quot%253Bfont-size%253A%252016px%2526quot%253B%2526gt%253B%25E7%25A9%25BA%25E9%2597%25B2%2526lt%253Bbr%2526gt%253B%25E7%258A%25B6%25E6%2580%2581%2526lt%253Bbr%2526gt%253B%2526lt%253B%252Ffont%2526gt%253B%2522%2520style%253D%2522text%253Bhtml%253D1%253Balign%253Dcenter%253BverticalAlign%253Dmiddle%253Bresizable%253D0%253Bpoints%253D%255B%255D%253Bautosize%253D1%253BfontSize%253D16%253B%2522%2520vertex%253D%25221%2522%2520parent%253D%25221%2522%253E%253CmxGeometry%2520x%253D%2522135%2522%2520y%253D%2522130%2522%2520width%253D%252250%2522%2520height%253D%252240%2522%2520as%253D%2522geometry%2522%252F%253E%253C%252FmxCell%253E%253C%252Froot%253E%253C%252FmxGraphModel%253E%26lt%3B%2Fspan%26gt%3B%26lt%3Bfont%20color%3D%26quot%3B%23000000%26quot%3B%20style%3D%26quot%3Bfont-size%3A%2016px%26quot%3B%26gt%3B%26lt%3Bbr%26gt%3B%26lt%3B%2Ffont%26gt%3B%22%20style%3D%22text%3Bhtml%3D1%3Balign%3Dcenter%3BverticalAlign%3Dmiddle%3Bresizable%3D0%3Bpoints%3D%5B%5D%3Bautosize%3D1%3BfontSize%3D16%3B%22%20vertex%3D%221%22%20parent%3D%221%22%3E%3CmxGeometry%20x%3D%22130%22%20y%3D%22365%22%20width%3D%2280%22%20height%3D%2230%22%20as%3D%22geometry%22%2F%3E%3C%2FmxCell%3E%3C%2Froot%3E%3C%2FmxGraphModel&lt;/span&gt;&lt;font color=&quot;#000000&quot; style=&quot;font-size: 16px&quot;&gt;&lt;br&gt;&lt;/font&gt;&lt;span style=&quot;color: rgba(0 , 0 , 0 , 0) ; font-family: monospace ; font-size: 0px&quot;&gt;jk%3CmxGraphModel%3E%3Croot%3E%3CmxCell%20id%3D%220%22%2F%3E%3CmxCell%20id%3D%221%22%20parent%3D%220%22%2F%3E%3CmxCell%20id%3D%222%22%20value%3D%22%26lt%3Bfont%20color%3D%26quot%3B%23000000%26quot%3B%20style%3D%26quot%3Bfont-size%3A%2016px%26quot%3B%26gt%3B%E7%A9%BA%E9%97%B2%26lt%3Bbr%26gt%3B%E7%8A%B6%E6%80%81%26lt%3Bbr%26gt%3B%26lt%3B%2Ffont%26gt%3B%22%20style%3D%22text%3Bhtml%3D1%3Balign%3Dcenter%3BverticalAlign%3Dmiddle%3Bresizable%3D0%3Bpoints%3D%5B%5D%3Bautosize%3D1%3BfontSize%3D16%3B%22%20vertex%3D%221%22%20parent%3D%221%22%3E%3CmxGeometry%20x%3D%22135%22%20y%3D%22130%22%20width%3D%2250%22%20height%3D%2240%22%20as%3D%22geometry%22%2F%3E%3C%2FmxCell%3E%3C%2Froot%3E%3C%2FmxGraphModel%3E&lt;/span&gt;&lt;font color=&quot;#000000&quot; style=&quot;font-size: 16px&quot;&gt;&lt;br&gt;&lt;/font&gt;" style="text;html=1;align=center;verticalAlign=middle;resizable=0;points=[];autosize=1;fontSize=16;" parent="1" vertex="1">
                    <mxGeometry x="200" y="295" width="80" height="60" as="geometry"/>
                </mxCell>
                <mxCell id="11" value="&lt;font color=&quot;#000000&quot; style=&quot;font-size: 16px&quot;&gt;cache未命中&lt;br&gt;旧块 clean&lt;br&gt;&lt;/font&gt;" style="text;html=1;align=center;verticalAlign=middle;resizable=0;points=[];autosize=1;fontSize=16;" parent="1" vertex="1">
                    <mxGeometry x="325" y="350" width="110" height="40" as="geometry"/>
                </mxCell>
                <mxCell id="12" value="&lt;font color=&quot;#000000&quot; style=&quot;font-size: 16px&quot;&gt;cache未命中&lt;br&gt;旧块 dirty&lt;br&gt;&lt;/font&gt;" style="text;html=1;align=center;verticalAlign=middle;resizable=0;points=[];autosize=1;fontSize=16;" parent="1" vertex="1">
                    <mxGeometry x="565" y="240" width="110" height="40" as="geometry"/>
                </mxCell>
                <mxCell id="13" value="&lt;font color=&quot;#000000&quot; style=&quot;font-size: 16px&quot;&gt;CPU 访问请求&lt;br&gt;&lt;/font&gt;" style="text;html=1;align=center;verticalAlign=middle;resizable=0;points=[];autosize=1;fontSize=16;" parent="1" vertex="1">
                    <mxGeometry x="245" y="180" width="120" height="20" as="geometry"/>
                </mxCell>
                <mxCell id="14" value="&lt;font color=&quot;#000000&quot; style=&quot;font-size: 16px&quot;&gt;cache 命中&lt;br&gt;&lt;/font&gt;" style="text;html=1;align=center;verticalAlign=middle;resizable=0;points=[];autosize=1;fontSize=16;" parent="1" vertex="1">
                    <mxGeometry x="260" y="70" width="90" height="20" as="geometry"/>
                </mxCell>
            </root>
        </mxGraphModel>
    </diagram>
</mxfile>